<?xml version="1.0" encoding="utf-8"?><svg xmlns="http://www.w3.org/2000/svg" xmlns:xlink="http://www.w3.org/1999/xlink"><symbol viewBox="0 0 444.2 394.9" id="ateed"><path d="M229.6 240.5c1.9.2 3.9.5 5.8.4 12.1-.5 24.3-1.1 36.4-1.6 7.4-.3 7.7.1 8.8 8.6-2.3.2-4.5.5-6.7.5-36.2 0-72.3.1-108.5-.1-6.2 0-9.8 1.9-12.3 7.7-7.3 16.8-15.2 33.3-22.6 50.1-2.5 5.7-6.1 8.1-12.3 8.1-25-.1-50 0-75-.1-7.4 0-9.3-3.1-6.3-9.9 24.4-53.9 48.8-107.7 73.3-161.5 20.3-44.5 40.6-89 60.6-133.7 2.8-6.3 6.5-9.1 13.7-9 28.5.4 57 .2 85.5.1 5.2 0 8.6 1.9 10.7 6.5C305 58 330 109.2 350.7 162.4c.7 1.8 1.3 3.7 2 5.6-8 3.9-12 2.4-15.2-5.3-8.2-20.2-16.3-40.4-25.4-60.3 1.6 4.7 3.2 9.5 4.9 14.2 6.3 17.7 12.7 35.4 18.8 53.2 1.2 3.4 2.9 4.4 6.4 4.5 18.1.8 36.2 1.8 54.3 3 3.2.2 6.5 1.4 9.6 2.6 4.6 1.7 8.5 4.2 8.2 10-.4 5.9-5.2 6.1-9.7 7.1 6 1.4 11.8 2.7 17.5 4.2 8.1 2.1 11.4 5.2 10.7 9.7-.7 4.4-4.9 6.8-13 6.8-14.2 0-28.3-.4-42.5-.7h-4.9c-.3.6-.5 1.1-.8 1.7 1.6 1 3.1 2.6 4.8 2.8 13.7 1.4 27.5 2.5 41.3 3.8 4.1.4 8.3 1.2 12.3 2.2 3.7 1 7 3 6.7 7.5-.4 4.5-4 6-7.8 6.5-13.1 1.6-26.1 2.9-39.2 4.4-2.1.2-4.2.5-7.2.9 1.5 4.3 2.8 8 4 11.7 6.9 20.7 13.9 41.3 20.8 62 .8 2.5 1.8 5.2 1.7 7.8-.1 2.4-.9 5.6-2.5 6.8-1.7 1.2-5.6 1.3-7.2.1-3.6-2.7-7.2-6.1-9.4-10.1-7.5-13.2-14.7-26.5-21.4-40.1-7.6-15.7-14.6-31.8-21.6-47.8-1.6-3.7-3.6-5.2-7.5-4.7-2.1.3-4.3.1-6.5.2-5.1.3-10.5 1.3-12.5-5.6-.1-.2-.9-.2-1.4-.3 1.1 8.9 2.8 10.5 10.8 10.3 2.7 0 5.3-.1 8-.1 7.7-.1 9.1 1 10.7 8.4.1.6.4 1.7.2 1.9-5.1 3.3-1.1 7-.2 10.3 5.1 19.5 10.6 38.8 15.6 58.3.7 2.8.5 6-.2 8.9-1.6 6.3-8.7 8.1-12.6 2.9-3.8-5-7.1-10.5-9.7-16.2-10.4-23.3-20.5-46.6-30.4-70.1-2.2-5.1-4.5-8.3-10.5-6.7-.8.2-1.7 0-2.5.1-3.9.8-5.9-.8-6.8-4.5-.3-1.5-1.1-2.9-1.7-4.4-.4.1-.9.3-1.3.4 1.3 3.8 2.4 7.6 3.9 11.2.3.7 1.9 1.2 3 1.3 2.1.2 4.3.1 6.5.1 7.5 0 10.7 4.6 8.6 12-.4 1.5.5 3.5 1 5.2 6.9 20.5 14 41 20.8 61.5 1.3 3.9 1.9 8.1 2.3 12.2.3 3.8-.6 8.1-4.7 9-3.2.7-8.1.6-10-1.4-4.3-4.4-8.2-9.8-10.4-15.5-9.8-26.4-19-53-28.1-79.6-1.6-4.5-3.4-6.3-8.4-5.9-13.6 1.1-27.3 1.5-40.9 2.3-.9.1-1.9.3-2.8.5.3.5.3.9.4 1.3zm-3.4-55.3h28.9c7.9-.1 10.3-3.8 7.1-10.9a8812.1 8812.1 0 0 0-31.5-70.1c-.8-1.8-2.7-3-4.1-4.5-1.5 1.4-3.5 2.5-4.3 4.3-10.7 23.4-21.4 46.9-31.9 70.4-3.2 7.1-.6 10.7 7.3 10.8 9.5 0 19-.1 28.5 0zm104.7 16.7c.3-.6.6-1 .5-1.2-1.1-3.7-2.4-7.3-3.4-11-.8-3.2-2.1-4-5.6-3.2-8.4 2-9.3 1.3-12-7-8.3-25.3-16.5-50.6-24.8-75.9-.8-2.5-1.9-5-2.8-7.4-.8 1.3-.8 2.3-.6 3.2 5.3 24.2 10.6 48.4 16.1 72.6.3 1.4 2.8 2.5 4.4 3.4 1.6.9 4.3.9 5 2.1 1.5 2.8 2 6.1 3.1 9.5-2.4.5-4.1.9-5.7 1.3 2.1 1.1 4.2 1.4 6.2 1.1 9.8-1.5 17.4.3 19.1 11.8-.1 0 0 .1.5.7zm-19.6 1.2c-.5.2-.9.4-1.4.7.8 3.6 2.5 7.2 2.3 10.8-.1 3 .5 3.9 3.2 4.1 5.1.2 10.3.7 15.4.6 4.2-.1 7 1.1 8.2 5.4.4 1.3 1.4 2.5 2.2 3.7-1.4-12.4-2.6-13.5-13.8-13.4-1.8 0-3.7-.2-5.5.1-4.5.7-6.7-1.3-7.8-5.5-.6-2.4-1.9-4.4-2.8-6.5zm70.3 80.9c.3-.1.6-.2.9-.4-5.6-15.9-11.2-31.9-16.9-47.7-1.2-3.4-2.5-3.6-7.2-1.1 6.5.8 7.1 5.8 8.4 10 .6 1.9-1 4.5-.2 6.2 4.8 11.1 10 22 15 33zm-116.8-79.6c0-.3-.1-.6-.1-.8-19.8 1.1-39.5 2.1-59.3 3.3-1.6.1-3.2 1.3-4.8 2 .2.6.3 1.1.5 1.7 21.2-2 42.5-4.1 63.7-6.2zm4.1-73c-.5.2-1.1.5-1.6.7 0 .3-.2.7-.1 1 5 13.7 9.9 27.5 15 41.2.3.9 1.6 1.4 2.4 2.1.6-.4 1.1-.7 1.7-1.1-5.9-14.7-11.6-29.3-17.4-43.9zm24 70.7c.5-.2 1.1-.4 1.6-.5-.9-3.1-2.1-6.2-2.6-9.4-.7-4.4-3.1-6.1-7.3-5.1-5.7 1.3-8.3-1.2-10-6.6-1.9-5.8-4.8-11.3-7.3-16.9-.5.2-1 .5-1.5.7 1.8 4.5 1.1 9.6 5.8 13.5 2.5 2.1 4.3 6.6.7 11.2 4.4 0 8.2.1 11.9 0 2.8-.1 4.3.9 5.1 3.6 1 3.2 2.4 6.3 3.6 9.5zm35.3 48.4c5.2 12.2 10.4 24.3 15.6 36.5-2.7-11.7-6.3-23.1-9.8-34.5-.9-3-2.6-3.5-5.8-2zm-46.1-46.1c-.2.1-.5.1-.7.2.6 2.2 1.3 4.4 1.6 6.7.7 4.7 2.9 6.8 7.9 6.5 5.1-.3 10.5-.2 12 6.5 0 .1.6.1 1.6.3-1.7-4.4-3.2-8.4-4.9-13-3.3 5.6-8.6 4.3-11.2 2.8-3.1-1.8-4.3-6.6-6.3-10zm79.6 19.7c-1-2.4-2.2-5.1-3-7.2-2 1.5-3.7 2.7-4.7 3.3 2.3 1.2 5 2.6 7.7 3.9zm-21.2-37.2c7.5-1.6 6.8 5.8 9.3 9.6.3-.3.6-.5.9-.8-1.3-3.5-2.6-6.9-3.9-10.5-2.4.7-4.4 1.2-6.3 1.7zM321.7 176c.5-.2 1.1-.3 1.6-.5-1.3-3.6-2.5-7.2-3.8-10.8-.3.1-.6.2-.8.3 1 3.7 2 7.4 3 11zm69.2 192.5v-19c0-3.2.9-5.8 4.7-5.7 9.5.1 19.1-.6 28.4.6 14.4 1.8 20.7 10.8 20.2 27.1-.3 12.3-8.3 21.1-21.3 22.2-9.1.8-18.3.2-27.5.2-3.5 0-4.5-2.4-4.5-5.3v-20.1zm16.3.3c.3 13-2.4 11.5 9.9 11.5 7.3 0 10.8-4 10.6-11.4-.2-8.5-4.2-11.6-14.9-11.5-5.7.1-5.7.1-5.7 9.9.1.5.1 1 .1 1.5zm-295.2.1c0 6.5-.1 13 0 19.5.1 3.9-1.6 5.9-5.6 5.9-9-.1-18 .1-26.9-.5-12.4-.9-20.3-9.6-20.6-22.1-.2-7.6 0-15.3-.1-23 0-3.5 1.3-5.1 5-5.2 11-.5 11.2-.4 11.2 10.6 0 4.8-.1 9.7 0 14.5.3 9.8 10.2 16 18.9 11.7 1-.5 1.6-2.7 1.6-4.1.1-9 .2-18 0-27-.1-4.1 1.6-5.6 5.6-5.6 10.8-.2 10.8-.3 10.8 10.5.1 4.8 0 9.8.1 14.8zm236.8 6.4v14c0 3.3-1.4 4.7-4.8 5-11.1.8-11.5.5-11.5-10.6v-34c0-3.1.5-6 4.3-6 10 .1 20-.5 29.8.8 12.1 1.6 17.6 8.2 18.6 20.5.6 8.1.4 16.3.5 24.4.1 3.4-1.7 4.6-5 4.8-10.9.7-11.3.5-11.3-10.4 0-5.2.2-10.3-.1-15.5-.6-9.1-10.6-15.1-18.7-11.2-.9.4-1.6 2.4-1.7 3.6-.1 5 0 9.8-.1 14.6.1 0 0 0 0 0zm-160-14.3c4-4.4 8.1-8.8 12.2-13.1 4.5-4.8 13.6-6.1 20.5-2.6-1.1 1.5-1.9 3-3.1 4.3-3.8 4.2-7.6 8.4-11.7 12.3-2.7 2.6-3 4.6-.6 7.6 5.1 6.4 9.8 13 14.6 19.6 2.7 3.7 2.2 4.8-2.4 5.1-.5 0-1 0-1.5.1-8 1.2-14.2-1.2-18.1-8.8-1.5-3.1-4.1-5.6-6.2-8.5-4.4 1.9-5.3 5.1-5.3 9.3 0 2.5-.7 6.9-1.6 7.1-4.1.7-8.5.4-12.7 0-.6-.1-1.4-2.5-1.4-3.8-.1-13.6 0-27.3-.1-40.9 0-3.4 1.4-4.7 4.7-4.9 10.8-.8 11.3-.5 11.3 10.3v6.8c.4-.1.9 0 1.4.1zM320 394.3c-4.5.8-8-.9-9.8-6.5-.5-1.7-3.4-3.2-5.5-3.6-2.7-.6-5.7.1-8.4-.2-5.3-.6-8.8.7-10.5 6.4-.5 1.7-3.5 3.3-5.6 3.7-2.7.6-5.7.4-8.4-.1-1-.2-2.5-2.7-2.1-3.5 6.3-14.7 12.8-29.2 19.5-43.7.6-1.4 2.7-2 4.2-3 .1-.1.3 0 .5-.1 12-1.5 13.3-.8 18.1 10.1 4.8 10.8 9.5 21.6 14.3 32.4 3.3 7.9 3.1 8.1-6.3 8.1zM298.9 359c-2 5.1-3.5 8.8-5.1 12.9h10.1c-1.7-4.3-3.1-7.9-5-12.9zm-158.8 35.9c-12.1 0-24.7-12.1-24-26.9.7-15.4 15.4-27.2 31.7-25.4 6.5.7 12.3 2.8 17.1 7.3 2.5 2.3 2.7 4.4-.3 6.4-1.3.8-2.5 1.6-3.6 2.6-2.7 2.4-5.1 2.8-8.3.2-4-3.3-9-3.5-13.6-1.2-4.1 2-5.9 5.6-6.1 10.1-.2 4.9 1.4 8.9 5.7 11.4 4.6 2.7 9.2 2.2 13.7-.6 4.7-2.9 11.5-1.6 14.2 3.2.6 1-.2 3.5-1.2 4.6-5.7 6.2-13.1 8.4-25.3 8.3zm86.6-26.1c0-6.7.1-13.3 0-20-.1-3.6 1.5-5 5-5.2 11.2-.7 11.4-.6 11.4 10.7 0 7.5.1 15 0 22.5-.1 3.2 1.1 4.5 4.3 4.4 4.7-.1 9.3.1 14 0 3.8-.1 4.5 2.3 4.3 5.2-.3 3 1.5 7.5-3.8 7.6-10.3.3-20.6.2-31 .2-3.3 0-4.2-2-4.2-4.9.1-6.9 0-13.7 0-20.5zM50.3 394.3c-4.5.9-7.2-1.5-9.4-6.4-3.5-7.7-10.9-2.5-16.5-3.8-3.2-.7-5.6.4-6.9 3.9-2.1 5.7-11.1 8.7-16.5 5.7-.7-.4-1.3-2.4-.9-3.2C6.6 375.7 13.2 361 20 346.4c.6-1.2 2.5-1.9 3.9-2.7.4-.2 1-.1 1.5-.1 12.4-.8 12.4-.8 17.4 10.5 4.7 10.6 9.4 21.3 14.1 32 3.4 7.9 3.2 8.2-6.6 8.2zm-20.8-35.4c-1.9 5.2-3.3 8.8-4.9 13.1h10.2c-1.8-4.4-3.3-8-5.3-13.1z"/></symbol><symbol viewBox="293.1 -203.3 1200.9 1199.7" id="do-less"><path d="M294 196.3v400h1200v-400H294z" fill="#73e573"/><path d="M293.1 596.3v400h1200v-400h-1200z" fill="#66cbcb"/><path d="M294-203.3v400h1200v-400H294z" fill="#fe8080"/><path d="M1095.4 456.4H492.8c-31.9 0-58-26.1-58-58v-3.8c0-31.9 26.1-58 58-58h602.6c31.9 0 58 26.1 58 58v3.8c0 31.9-26.1 58-58 58zm197.9 400.5H492.8c-31.9 0-58-26.1-58-58v-3.8c0-31.9 26.1-58 58-58h800.5c31.9 0 58 26.1 58 58v3.8c0 31.9-26.1 58-58 58zm-106-800.4H494.6c-32.9 0-59.8-26.9-59.8-59.8s26.9-59.8 59.8-59.8h692.7c32.9 0 59.8 26.9 59.8 59.8s-26.9 59.8-59.8 59.8z" fill="#fff"/></symbol><symbol viewBox="768 -256 1536 1498.5" id="github"><path d="M2304 512c0 167.3-48.8 317.8-146.5 451.5S1933.7 1189.7 1779 1241c-18 3.3-31.2 1-39.5-7s-12.5-18-12.5-30V993c0-64.7-17.3-112-52-142 38-4 72.2-10 102.5-18s61.7-21 94-39 59.3-40.2 81-66.5 39.3-61.3 53-105S2026 528.7 2026 472c0-80.7-26.3-149.3-79-206 24.7-60.7 22-128.7-8-204-18.7-6-45.7-2.3-81 11s-66 28-92 44l-38 24c-62-17.3-126-26-192-26s-130 8.7-192 26c-10.7-7.3-24.8-16.3-42.5-27S1256 90.5 1218 75.5 1151.3 56 1132 62c-29.3 75.3-31.7 143.3-7 204-52.7 56.7-79 125.3-79 206 0 56.7 6.8 106.7 20.5 150s31.2 78.3 52.5 105 48.2 49 80.5 67 63.7 31 94 39 64.5 14 102.5 18c-26.7 24-43 58.3-49 103-14 6.7-29 11.7-45 15s-35 5-57 5-43.8-7.2-65.5-21.5-40.2-35.2-55.5-62.5c-12.7-21.3-28.8-38.7-48.5-52s-36.2-21.3-49.5-24l-20-3c-14 0-23.7 1.5-29 4.5s-7 6.8-5 11.5 5 9.3 9 14 8.3 8.7 13 12l7 5c14.7 6.7 29.2 19.3 43.5 38s24.8 35.7 31.5 51l10 23c8.7 25.3 23.3 45.8 44 61.5s43 25.7 67 30 47.2 6.7 69.5 7 40.8-.8 55.5-3.5l23-4c0 25.3.2 55 .5 89s.5 52 .5 54c0 12-4.3 22-13 30s-22 10.3-40 7c-154.7-51.3-280.8-143.8-378.5-277.5S768 679.3 768 512c0-139.3 34.3-267.8 103-385.5S1032.8-84.3 1150.5-153s246.2-103 385.5-103 267.8 34.3 385.5 103S2132.3 8.8 2201 126.5s103 246.2 103 385.5z"/></symbol><symbol viewBox="0 0 580.3 104.1" id="huckleberry"><path d="M258.3.1c.3 1.9.9 3.9.9 5.8.1 19.2.1 38.3 0 57.5 0 3.3-.4 6.5 4.2 7 .6.1 1.1 1.3 1.7 2-.7.5-1.4 1.5-2.2 1.6-7.7.1-15.3.1-23 0-.8 0-1.7-1.2-2.5-1.8.6-.6 1.2-1.8 1.9-1.9 4-.5 4-3.1 4-6.2-.1-18-.1-36 0-54 0-3.2.2-6.1-4.1-6.6-.5-.1-.7-2.2-1-3.4h20.1zm-66 0c.2 2.1.7 4.3.7 6.4.1 19.2.1 38.3 0 57.5 0 2.9-.3 5.8 3.7 6.4.6.1 1 1.4 1.5 2.2-.8.5-1.5 1.4-2.3 1.4-7.3.1-14.7.1-22 0-.9 0-1.7-1.1-2.6-1.7.8-.7 1.4-1.9 2.3-2.1 2.9-.7 3.5-2.4 3.5-5.1-.1-18.7-.1-37.3 0-56 0-2.9-.5-4.8-3.8-5.4-.5-.1-.7-2.3-1.1-3.6h20.1zm-170 0c.3 1.9.9 3.9.9 5.8.1 19.3.1 38.6 0 58 0 2.9-.4 5.8 3.6 6.5.5.1 1.4 1.4 1.2 1.8-.3.7-1.2 1.7-1.9 1.8-7.5.1-15 .1-22.5 0-.7 0-1.4-1.1-2.1-1.7.6-.7 1.2-1.8 1.9-1.9 3.9-.5 4-3.1 4-6.2-.1-18-.1-36 0-54 0-3.2.2-6.2-4.1-6.7-.5-.1-.7-2.3-1-3.5 6.7.1 13.3.1 20 .1zm314 0c.3 1.8.8 3.5.9 5.3.1 21.5 0 42.9 0 64.4 0 5.5-.5 5.8-5.7 4.7-1.1-.3-2.3-.6-3.4-.8-5.1-1-7.1-3.7-7-9.4.4-18.1.1-36.3.2-54.4 0-3 0-5.7-4-6.2-.5-.1-.7-2.3-1.1-3.6h20.1zm241.1 27.3c-6.3 2.3-6.8 8.4-8.9 13.4-4.7 11.4-9.1 22.9-13.8 34.2-.7 1.7-2.1 3.1-3.2 4.6-1.1-1.5-2.6-2.8-3.3-4.5-5.7-13.8-11.2-27.7-16.9-41.6-.7-1.8-2.5-3.2-3.8-4.8-.5-.7-.9-1.6-1.4-2.3.8-.4 1.6-1.2 2.5-1.3 7-.1 14-.1 21 0 .9 0 1.7 1 2.6 1.6-.6.7-1.2 1.7-1.9 1.9-2.7.6-3 1.9-2.2 4.3 2.3 6.4 4.4 12.9 6.8 19.3.4 1.1 1.6 1.8 2.4 2.7.8-1 1.8-1.8 2.3-2.9 2.3-5.9 4.4-11.8 6.7-17.7.9-2.5 1.8-4.8-2.1-5.7-.5-.1-1.3-2.7-.9-3.1 1.4-1.4 11.9-.1 14.1 1.9zm-549.3 2c4.1-5.1 11-7 17.4-4.9 5.2 1.7 8.5 6 8.7 12.2.2 9 .2 18 .1 27 0 3.2-.1 6.1 4.1 6.6.7.1 1.2 1.3 1.8 2-.9.6-1.8 1.6-2.6 1.6-7.3.1-14.4.1-21.6-.1-.9 0-1.7-1.1-2.5-1.7.6-.7 1.1-1.8 1.8-1.9 3.1-.7 3.1-2.9 3.1-5.3-.1-7.8.1-15.7 0-23.5-.1-7.3-1.2-8.7-8.3-10.7-.6-.3-1.1-.8-2-1.3zm139.1 32.7c-6.2 14.1-26.1 17.2-36.7 6.7-12.3-12.1-8.3-35.2 7.3-42.3 1.3-.6 3-.1 4.5-.1-.4 1.3-.5 2.8-1.2 3.9-5.2 8-4.2 21.9 2.4 28.9 5 5.3 11.1 6.2 17.9 4.2 1.7-.6 3.5-.8 5.8-1.3zm338.7 10.1c-5.2 2.6-28.1 2.3-31.2.1.1-.3.1-.9.2-.9 6.1-1.7 5.7-6.4 5.6-11.2-.2-8.1-.1-16.3 0-24.4 0-3.5.2-6.8-4.5-7.2-.4 0-.8-.9-1.9-2.1 1.8-.5 3-1.2 4.2-1.2 4.5-.1 9 .1 13.5-.1 3.5-.2 4.7 1.1 4.6 4.6-.2 10.8.1 21.6-.1 32.4-.1 4.8.4 8.2 6.3 8.1.9-.1 1.8.9 3.3 1.9zm-48.8 1.1c-1.4.2-2.7.6-4.1.6-7.3.1-14.6.1-21.9 0-1.4 0-2.8-1-4.2-1.6 1.1-.8 2.3-1.5 3.1-2.5 1-1.2 2.4-2.7 2.5-4.1.2-10.8.2-21.6 0-32.4 0-1.5-2.2-2.9-3.4-4.3-.7-.8-1.3-1.6-2-2.4.8-.4 1.6-1.3 2.4-1.3 5.3-.1 10.6 0 16-.1 3.4 0 3 2.4 3 4.5 0 10.8.2 21.6-.1 32.4-.1 4.8.4 8.2 6.3 8.1.9 0 1.8 1 2.7 1.5-.2.6-.2 1.1-.3 1.6zM313.8 60.2c-6.5 16.6-29.5 19.7-40.1 6.8-9.9-12-6.5-31.7 6.9-39.6 1.3-.7 3-.6 4.5-.9-.3 1.4-.2 3-.8 4.3-3.7 8.6-3.8 17.2.7 25.4 4.2 7.6 13.7 10.1 22.3 6.6 1.9-.6 3.7-1.4 6.5-2.6zm109.4.4c-6.5 15.7-28.5 19.3-39.3 7.3-10.8-12-7.8-32.2 6.1-40.4 1.3-.8 3-.7 4.6-1-.2 1.5-.1 3.1-.7 4.4-3.8 8.4-3.8 16.9.4 25 4.2 8 14 10.7 23.1 6.9 1.6-.8 3.4-1.4 5.8-2.2zM92.5 25.4c6.8 0 13.7-.1 20.5.2.5 0 1.3 2.8 1.3 4.3.1 11.1.1 22.3 0 33.5 0 3.4-.1 6.4 4.4 6.9.6.1 1 1.4 1.6 2.1-.7.5-1.5 1.4-2.2 1.5-5.5.1-11 .3-16.5-.1-1.1-.1-2.9-2.9-2.9-4.4-.3-11-.2-22-.1-32.9.1-3.9.1-7.4-5.1-7.8-.4 0-.8-.9-1.2-1.4.1-.8.2-1.3.2-1.9zm2 43.7c-4.5 5.6-11.1 7.5-17.4 5.5-5.6-1.7-8.7-5.7-8.9-11.4-.3-9.2-.3-18.3-.3-27.5 0-3.1.6-6.6-4.1-7.1-.6-.1-1-1.4-1.5-2.2.8-.4 1.6-1.3 2.4-1.3 5.3-.1 10.7-.3 16 .1 1.1.1 2.9 2.5 2.9 3.9.3 7.3.1 14.7.2 22-.1 8-2 17 10.7 18zm277.2-23.4c-.3 14.9-11.3 27-25.4 28.8-.9.1-1.9-.7-2.9-1 .5-.7.9-1.7 1.7-2.1 13.4-8.2 14.1-29.2 1.3-38.2-1.4-1-3-3.1-2.8-4.5.2-1.4 2.3-3.1 3.9-3.6 10.2-3.4 21.2 3.6 23.5 14.8.5 2.1.6 4.5.7 5.8zM203.8 72.5c1.4-1.5 2.3-2.5 3.3-3.6-.9-1.4-1.6-3-2.7-4.1-6.4-6-5.5-13.8-5.1-21.4.1-1.3 1.5-3.3 2.6-3.7 1-.3 3.1 1 3.9 2.1 5.4 7.6 10.4 15.4 15.9 23 1.6 2.2 4.4 3.6 6.6 5.4.7.6 1.3 1.2 2 1.9-.6.6-1.3 1.8-1.9 1.8-7.6 0-15.3-.1-22.9-.2-.3-.2-.7-.6-1.7-1.2z"/><path d="M298.5 41.3c-1.8-4.5-3.3-8-4.6-11.6-.5-1.4-1.5-3.5-.9-4.3.7-1 2.9-1.4 4.3-1.2 8.1.7 16.1 10.1 15.6 18.1-.1.9-1.7 2.5-2.7 2.5-6.5.2-13 .2-19.5 0-.9 0-1.7-1.1-2.6-1.7.8-.6 1.6-1.7 2.5-1.8 2.1-.2 4.3 0 7.9 0zm98.9.6c3-.3 5.9-.6 10.3-1.1-1.6-4-3.1-7.6-4.5-11.2-.5-1.3-1.4-3.3-.9-3.9.9-1 2.7-1.6 4.2-1.5 8.3.5 16.7 10.2 15.9 18.2-.1.9-1.2 2.4-1.8 2.4-7.3.1-14.6 0-21.8-.1-.6 0-1.2-.5-1.9-.7 0-.8.2-1.5.5-2.1zM149.1 24.2c6.6-.8 11.8 1.1 16 5.7 2.5 2.7 3.2 6.5.6 9-1.9 1.9-5.4 3.1-8.1 3-3.4-.1-4.9-3.2-5.5-6.7-.6-3.5-1.8-6.8-3-11zm70.7-.8c4.6 0 8.2 3.7 7.9 8.1-.2 4.5-4.4 8-8.9 7.2-1.3-.2-2.6-.9-3.8-.9-6-.3-6.6-1-4.3-6.7 1.7-4.2 4.5-7.2 9.1-7.7zm329.6 66.8c-1.4 2.9-2.4 6.1-4.3 8.6-2.3 3.1-5.9 3.6-9.4 1.7-3.2-1.8-4.6-4.7-3.7-8.4.9-3.9 3.6-5.8 7.5-6 1.5-.1 3.2.3 4.4-.3 5.1-2.5 4.7 1 5.5 4.4zm-82.7-66.5c1.1.9 4.1 2.3 4.9 4.4.9 2.2.6 6-.8 7.7-1.6 1.9-5 2.4-7.8 2.9-1.2.2-2.7-1.3-4.1-1.5-5.6-1-6.1-2-3.2-7.1 2.1-3.7 5-6.2 11-6.4zm53.8 7.5c.1 4.9-4 8.5-8.8 7.7-2.7-.4-5.4-.8-8-1.6-.8-.2-1.7-1.6-1.7-2.4-.2-4.8 5.6-10.8 10.4-11.1 4.6-.3 8.1 2.9 8.1 7.4z"/></symbol><symbol viewBox="0 0 71 60" id="humans-txt"><path d="M53.73-2h1.01c4.36.4 8.5 3.44 9.25 7.92 2.56 15.5 3.88 31.2 6.66 46.66-1.62-.16-3.24-.31-4.86-.44-.61-9.22 1.22-18.74-1.41-27.73-2.44-7.42-11.43-9.8-18.37-8.23-4.98.78-8.84 4.3-11.91 8.06.08-7.85.83-15.8-.6-23.58C40.26-.05 46.98-1.13 53.73-2zM5.4 5.3c3.77-1.81 8.08-1.74 12.13-2.42l.03 5.06c1.7.4 3.44.66 5.08 1.28.43 2.25.4 4.55.42 6.83-.15 15.26.01 30.52-.1 45.78-3.55-.34-7.28.16-10.68-1.13-3.48-1.37-5.54-4.93-5.97-8.52C4.42 40.06 2.42 27.97.59 15.84-.18 11.76 1.72 7.32 5.4 5.3z"/><path d="M47.22 26c-4.096-.054-8.25 2.206-10.47 5.656-2.08 3.01-2.49 6.784-2.5 10.344-.03 6.64.06 13.276.03 19.906 8.23-.33 16.46.225 24.69.125-1.49-.77-3.61-1.292-3.97-3.213-.89-4.1-.43-8.33-.47-12.5 2.11-.62 5.057-.337 6.157-2.687 1.14-1.82.896-4.4-.874-5.75-1.93-.61-3.677.755-5.407 1.405-.03-4.17.943-9.805-3.187-12.405a9.98 9.98 0 0 0-4-.876zm-4.75 4.78c1.356-.02 2.735.857 2.968 2.282.84 2.23-1.87 4.533-3.97 3.563-2.48-.68-2.632-4.53-.312-5.5.408-.215.86-.337 1.313-.344zM50 31.845c2.42-.035 4.57 3.443 2.125 5.312-2.93 2.82-7.12-2.406-3.78-4.656.533-.44 1.096-.643 1.655-.65zM38.094 40.5c4.44 3.28 9.835 1.596 14.625.156C50.63 45.386 48.17 52.15 42 52.22c-4.57-1.74-3.416-7.84-3.906-11.72z"/></symbol><symbol viewBox="-11 313 1000 400" id="ibm"><path d="M-11 313v27.4h194.6V313H-11zm222.2 0v27.4h277.4S460.3 313 422.7 313H211.2zm331.8 0v27.4h167.8l-10-27.4H543zm288.1 0l-10 27.4h166.3V313H831.1zM-11 366.2v27.4h194.6v-27.4H-11zm222.2.1v27.3h309.6s-3.6-21.1-9.9-27.3H211.2zm331.8 0v27.3h186.2l-9.2-27.3H543zm268.2 0l-9.2 27.3h185.5v-27.3H811.2zM44.9 419.4v27.4h84.3v-27.4H44.9zm222.3 0v27.4h84.3v-27.4h-84.3zm166.3 0v27.4h84.3s5.4-14.5 5.4-27.4h-89.7zm165.5 0v27.4h149.5l-10-27.4H599zm193.9 0l-10 27.4h150.2v-27.4H792.9zm-748 53.3v27.4h84.3v-27.4H44.9zm222.3 0v27.4h215.3s18-14 23.8-27.4H267.2zm331.8 0v27.4h84.3v-15.2l5.4 15.2H843l5.7-15.2v15.2H933v-27.4H774.8l-8.4 23.2-8.4-23.2H599zM44.9 525.9v27.4h84.3v-27.4H44.9zm222.3 0v27.4h239.1c-5.7-13.3-23.8-27.4-23.8-27.4H267.2zm331.8 0v27.4h84.3v-27.4H599zm99.6 0l10.2 27.4h115.8l9.7-27.4H698.6zm150.2 0v27.4h84.3v-27.4h-84.3zM44.9 579.1v27.4h84.3v-27.4H44.9zm222.3 0v27.4h84.3v-27.4h-84.3zm166.3 0v27.4h89.6c0-12.9-5.4-27.4-5.4-27.4h-84.2zm165.5 0v27.4h84.3v-27.4H599zm118.7 0l9.9 27.4h77.6l10-27.4h-97.5zm131.1 0v27.4h84.3v-27.4h-84.3zM-9.5 632.4v27.4h194.6v-27.4H-9.5zm220.7 0v27.4h299.6c6.3-6.3 9.9-27.4 9.9-27.4H211.2zm333.3 0v27.4h138.7v-27.4H544.5zm192.4 0l10.2 27.4h39.5l9.5-27.4h-59.2zm111.9 0v27.4H989v-27.4H848.8zM-9.5 685.6V713h194.6v-27.4H-9.5zm220.7 0V713h211.5c37.5 0 65.9-27.3 65.9-27.3H211.2zm333.3 0V713h138.7v-27.4H544.5zm211.6 0l9.8 27.3h1.7l9.9-27.3h-21.4zm92.7 0V713H989v-27.4H848.8z"/></symbol><symbol viewBox="0 0 2048 2048" id="icon-envelope"><path d="M1920 838v794q0 66-47 113t-113 47H288q-66 0-113-47t-47-113V838q44 49 101 87 362 246 497 345 57 42 92.5 65.5t94.5 48 110 24.5h2q51 0 110-24.5t94.5-48 92.5-65.5q170-123 498-345 57-39 100-87zm0-294q0 79-49 151t-122 123q-376 261-468 325-10 7-42.5 30.5t-54 38-52 32.5-57.5 27-50 9h-2q-23 0-50-9t-57.5-27-52-32.5-54-38T767 1143q-91-64-262-182.5T300 818q-62-42-117-115.5T128 566q0-78 41.5-130T288 384h1472q65 0 112.5 47t47.5 113z"/></symbol><symbol viewBox="0 0 2048 2048" id="icon-globe"><path d="M1024 256q209 0 385.5 103T1689 638.5t103 385.5-103 385.5-279.5 279.5-385.5 103-385.5-103T359 1409.5 256 1024t103-385.5T638.5 359 1024 256zm274 521q-2 1-9.5 9.5T1275 796q2 0 4.5-5t5-11 3.5-7q6-7 22-15 14-6 52-12 34-8 51 11-2-2 9.5-13t14.5-12q3-2 15-4.5t15-7.5l2-22q-12 1-17.5-7t-6.5-21q0 2-6 8 0-7-4.5-8t-11.5 1-9 1q-10-3-15-7.5t-8-16.5-4-15q-2-5-9.5-10.5T1368 612q-1-2-2.5-5.5t-3-6.5-4-5.5-5.5-2.5-7 5-7.5 10-4.5 5q-3-2-6-1.5t-4.5 1-4.5 3-5 3.5q-3 2-8.5 3t-8.5 2q15-5-1-11-10-4-16-3 9-4 7.5-12t-8.5-14h5q-1-4-8.5-8.5T1258 566t-13-6q-8-5-34-9.5t-33-.5q-5 6-4.5 10.5t4 14 3.5 12.5q1 6-5.5 13t-6.5 12q0 7 14 15.5t10 21.5q-3 8-16 16t-16 12q-5 8-1.5 18.5T1170 712q2 2 1.5 4t-3.5 4.5-5.5 4-6.5 3.5l-3 2q-11 5-20.5-6t-13.5-26q-7-25-16-30-23-8-29 1-5-13-41-26-25-9-58-4 6-1 0-15-7-15-19-12 3-6 4-17.5t1-13.5q3-13 12-23 1-1 7-8.5t9.5-13.5.5-6q35 4 50-11 5-5 11.5-17t10.5-17q9-6 14-5.5t14.5 5.5 14.5 5q14 1 15.5-11t-7.5-20q12 1 3-17-5-7-8-9-12-4-27 5-8 4 2 8-1-1-9.5 10.5T1057 474t-16-5q-1-1-5.5-13.5T1026 442q-8 0-16 15 3-8-11-15t-24-8q19-12-8-27-7-4-20.5-5t-19.5 4q-5 7-5.5 11.5t5 8T937 431t11.5 4 8.5 3q14 10 8 14-2 1-8.5 3.5T945 460t-6 4q-3 4 0 14t-2 14q-5-5-9-17.5t-7-16.5q7 9-25 6l-10-1q-4 0-16 2t-20.5 1-13.5-8q-4-8 0-20 1-4 4-2-4-3-11-9.5t-10-8.5q-46 15-94 41 6 1 12-1 5-2 13-6.5t10-5.5q34-14 42-7l5-5q14 16 20 25-7-4-30-1-20 6-22 12 7 12 5 18-4-3-11.5-10T754 467t-15-5q-16 0-22 1-146 80-235 222 7 7 12 8 4 1 5 9t2.5 11 11.5-3q9 8 3 19 1-1 44 27 19 17 21 21 3 11-10 18-1-2-9-9t-9-4q-3 5 .5 18.5T564 813q-7 0-9.5 16t-2.5 35.5-1 23.5l2 1q-3 12 5.5 34.5T580 943q-13 3 20 43 6 8 8 9 3 2 12 7.5t15 10 10 10.5q4 5 10 22.5t14 23.5q-2 6 9.5 20t10.5 23q-1 0-2.5 1t-2.5 1q3 7 15.5 14t15.5 13q1 3 2 10t3 11 8 2q2-20-24-62-15-25-17-29-3-5-5.5-15.5T677 1043q2 0 6 1.5t8.5 3.5 7.5 4 2 3q-3 7 2 17.5t12 18.5 17 19 12 13q6 6 14 19.5t0 13.5q9 0 20 10t17 20q5 8 8 26t5 24q2 7 8.5 13.5t12.5 9.5l16 8 13 7q5 2 18.5 10.5T898 1296q10 4 16 4t14.5-2.5 13.5-3.5q15-2 29 15t21 21q36 19 55 11-2 1 .5 7.5t8 15.5 9 14.5 5.5 8.5q5 6 18 15t18 15q6-4 7-9-3 8 7 20t18 10q14-3 14-32-31 15-49-18 0-1-2.5-5.5t-4-8.5-2.5-8.5 0-7.5 5-3q9 0 10-3.5t-2-12.5-4-13q-1-8-11-20t-12-15q-5 9-16 8t-16-9q0 1-1.5 5.5t-1.5 6.5q-13 0-15-1 1-3 2.5-17.5t3.5-22.5q1-4 5.5-12t7.5-14.5 4-12.5-4.5-9.5-17.5-2.5q-19 1-26 20-1 3-3 10.5t-5 11.5-9 7q-7 3-24 2t-24-5q-13-8-22.5-29t-9.5-37q0-10 2.5-26.5t3-25-5.5-24.5q3-2 9-9.5t10-10.5q2-1 4.5-1.5t4.5 0 4-1.5 3-6q-1-1-4-3-3-3-4-3 7 3 28.5-1.5t27.5 1.5q15 11 22-2 0-1-2.5-9.5t-.5-13.5q5 27 29 9 3 3 15.5 5t17.5 5q3 2 7 5.5t5.5 4.5 5-.5 8.5-6.5q10 14 12 24 11 40 19 44 7 3 11 2t4.5-9.5 0-14-1.5-12.5l-1-8v-18l-1-8q-15-3-18.5-12t1.5-18.5 15-18.5q1-1 8-3.5t15.5-6.5 12.5-8q21-19 15-35 7 0 11-9-1 0-5-3t-7.5-5-4.5-2q9-5 2-16 5-3 7.5-11t7.5-10q9 12 21 2 7-8 1-16 5-7 20.5-10.5t18.5-9.5q7 2 8-2t1-12 3-12q4-5 15-9t13-5l17-11q3-4 0-4 18 2 31-11 10-11-6-20 3-6-3-9.5t-15-5.5q3-1 11.5-.5t10.5-1.5q15-10-7-16-17-5-43 12zm-163 877q206-36 351-189-3-3-12.5-4.5t-12.5-3.5q-18-7-24-8 1-7-2.5-13t-8-9-12.5-8-11-7q-2-2-7-6t-7-5.5-7.5-4.5-8.5-2-10 1l-3 1q-3 1-5.5 2.5t-5.5 3-4 3 0 2.5q-21-17-36-22-5-1-11-5.5t-10.5-7-10-1.5-11.5 7q-5 5-6 15t-2 13q-7-5 0-17.5t2-18.5q-3-6-10.5-4.5t-12 4.5-11.5 8.5-9 6.5-8.5 5.5-8.5 7.5q-3 4-6 12t-5 11q-2-4-11.5-6.5t-9.5-5.5q2 10 4 35t5 38q7 31-12 48-27 25-29 40-4 22 12 26 0 7-8 20.5t-7 21.5q0 6 2 16z"/></symbol><symbol viewBox="0 0 2048 2048" id="icon-phone"><path d="M1728 1368q0 27-10 70.5t-21 68.5q-21 50-122 106-94 51-186 51-27 0-52.5-3.5T1279 1648t-47.5-14.5-55.5-20.5-49-18q-98-35-175-83-128-79-264.5-215.5T472 1032q-48-77-83-175-3-9-18-49t-20.5-55.5T336 705t-12.5-57.5T320 595q0-92 51-186 56-101 106-122 25-11 68.5-21t70.5-10q14 0 21 3 18 6 53 76 11 19 30 54t35 63.5 31 53.5q3 4 17.5 25t21.5 35.5 7 28.5q0 20-28.5 50t-62 55-62 53-28.5 46q0 9 5 22.5t8.5 20.5 14 24 11.5 19q76 137 174 235t235 174q2 1 19 11.5t24 14 20.5 8.5 22.5 5q18 0 46-28.5t53-62 55-62 50-28.5q14 0 28.5 7t35.5 21.5 25 17.5q25 15 53.5 31t63.5 35 54 30q70 35 76 53 3 7 3 21z"/></symbol><symbol viewBox="0 0 2048 2048" id="icon-print"><path d="M576 1664h896v-256H576v256zm0-640h896V640h-160q-40 0-68-28t-28-68V384H576v640zm1152 64q0-26-19-45t-45-19-45 19-19 45 19 45 45 19 45-19 19-45zm128 0v416q0 13-9.5 22.5t-22.5 9.5h-224v160q0 40-28 68t-68 28H544q-40 0-68-28t-28-68v-160H224q-13 0-22.5-9.5T192 1504v-416q0-79 56.5-135.5T384 896h64V352q0-40 28-68t68-28h672q40 0 88 20t76 48l152 152q28 28 48 76t20 88v256h64q79 0 135.5 56.5T1856 1088z"/></symbol><symbol viewBox="0 0 96.771 37.686" id="infosys"><path d="M35.25 0c-3.886 0-6.726 2.58-7.125 7.125h-3v2.25h2.97V31h3.374V9.375H39c-2.8 2.264-4.594 5.963-4.594 10.094 0 6.85 4.943 12.39 11.063 12.47.03.01.07.03.12.03 6.18 0 11.14-5.6 11.14-12.5 0-.81-.08-1.63-.22-2.41 1.11 1.78 3.25 2.67 6.09 3.91 3.38 1.43 5.25 2.66 5.25 4.78 0 2.56-2.39 3.86-5.1 3.85-2.65 0-4.74-1.07-7.03-3.15v4c1.4.91 3.58 1.44 5.94 1.44 1.8-.01 4.79-.42 6.84-2.15 1.3-1.08 2.22-2.72 2.22-5.12-.02-1.97-.89-3.33-2.22-4.4-1.16-.94-2.66-1.66-4.22-2.32-4.07-2.02-5.61-2.44-5.56-4.75 0-3.07 2.65-4 4.75-4 .9 0 1.67.15 2.4.41 1.37.5 1.82 1.51 2.31 2.62.15.34.245.55.305.69.03.05.05.1.06.13.02.06.01.06 0 .03l6.34 15.25c-1.07 2.43-2.265 5-3.09 6.62l-.03.03c-.127.24-.238.47-.348.652-.14.26-.25.47-.348.623l-.78 1.47h3.28c1.44-3.186 7.56-18.07 8.87-21.25.853 2.292 2.96 3.23 6.19 4.622 3.36 1.42 5.28 2.655 5.28 4.78 0 2.54-2.42 3.876-5.13 3.845-2.74 0-4.86-1.146-7.28-3.38l-.22-.19v4.065c1.35 1.13 3.76 1.78 6.41 1.78 2.95 0 9.064-1.07 9.064-7.25-.015-3.7-3.104-5.326-6.44-6.75-4.07-2.02-5.45-2.424-5.404-4.72 0-3.077 2.51-4 4.596-4 2.39 0 3.877.876 5.97 2.405v-3.6c-1.693-.6-3.13-.81-5.06-.81-3.853 0-7.33 1.4-8.22 4.66L77.42 23.7l-.5 1.5-.44-1.5L70.052 8c-.44-.12-.98-.283-1.56-.406-1.19-.26-2.564-.45-3.62-.43-.15-.01-.3-.03-.47-.03-4.466 0-8.78 1.88-8.78 6.317 0 .26.014.52.03.75-1.79-4.25-5.62-7.19-10.1-7.19h-.125c-.51.02-1 .05-1.47.13H31.4c-.505-3.16.954-5 3.188-5 2.8 0 4.01.85 5.22 1.97h.13s.02-.14.03-.37V.66C39.162.29 37.79 0 35.25 0zM0 .094V31h3.72V.094H0zM18.04 7.03l.02.003c-4.084 0-5.795 1.468-7.156 2.936-.06.06-.11.15-.156.27h-.062l-.032-2.91h-3.28V31h3.374V13.72c.09-2.11 3.112-4.22 5.432-4.22 2.8.002 5.09 1.9 5.09 4.502v17h3.34V12.467c-.09-2.096-2.65-5.438-6.57-5.438zm27.23 2.43l.01.01h.187c4.13.045 7.5 4.477 7.594 10 .1 5.614-3.21 10.234-7.44 10.31h-.15c-4.14-.05-7.55-4.498-7.66-10.038-.1-5.6 3.26-10.21 7.46-10.28z"/></symbol><symbol viewBox="0 0 296.7 81.1" id="lero9"><path d="M285.6 0v6.6h-21.3c-.2-2.3-.5-4.5-.7-6.6h22zM176.5 50.1c0-17.3 12.6-30.2 29.6-30.3 17-.1 29.9 12.7 30.1 29.9.2 17.5-13 31.3-30 31.3-16.9 0-29.7-13.3-29.7-30.9zm29.6-20.4c-10.8.1-18.8 8.7-18.8 20.3 0 11.9 8.1 20.9 18.8 21 10.8 0 19.3-9.4 19.2-21.3-.1-11.4-8.4-20-19.2-20zm-91-8.6c8.7 0 17.2-.5 25.7.1 6.5.5 11 4.6 12.9 11 2.2 7.4 1 14.2-4.5 19.8-1 1-2.3 1.8-3.8 3 4.3 8 8.6 16 12.9 24.1-8.9 2.5-10.9 1.6-14.9-6-1.5-2.8-2.9-5.6-4.4-8.4-4-7.7-4-7.7-13.4-6.3v21.1h-10.5V21.1zm10.6 27.6c6-1 12.8 2.2 16.4-4 1.6-2.8 1.8-8 .2-10.7-3.8-6.2-10.6-3.4-16.6-4v18.7zm132.7 29.5c.9-2.7 1.8-5.5 2.7-8.2 15.3 1.7 20.2-1 23.3-13.3-2.4.8-4.6 1.9-6.9 2.4-8.5 1.8-16.2-2-20-9.6-4.1-8.4-2.3-19 4.1-24.9 6-5.5 15.9-6.3 23.3-1.8 5.4 3.3 8.7 8.2 10.3 14.2 3.3 12.6 1.6 24.5-6.4 35-7.1 9.2-19.8 11.7-30.4 6.2zm7.3-38.5c0 6.4 4.3 10.9 10.5 10.9 5.7 0 9.5-2.9 9.5-7.3 0-6.9-5.8-13.5-11.6-13.4-5 0-8.4 4-8.4 9.8zM56 21.1h34.2v8.8H66.8v15.5h18.6v9.3H66.7v15.8h24.6v9.1H56V21.1zM0 21h10.2v49.8h24.7v9h-35C0 60.4 0 41 0 21z"/></symbol><symbol viewBox="0 0 312.5 91.3" id="magento"><path d="M43.7 27.4v52l-5.1 3.1-5.1-3.1v-52l-13.2 8.2V80l18.4 11.2L57.2 80V35.5l-13.5-8.1zM38.6 0L0 23.4v44.5l10 5.9V29.3l28.6-17.4 28.6 17.4.1.1v44.4l9.9-5.8V23.4L38.6 0zm38.7 23.4L38.6 0 0 23.4l10 5.9 28.6-17.4 28.7 17.4 10-5.9zm-33.6 4v16.4l13.4-8.2-13.4-8.2zm-23.4 8.2l13.2 8.1V27.4l-13.2 8.2zm116 30.6l-2.7-34-13.5 34.2h-4.4l-13.5-34.2-2.6 34h-5.4l3.4-42.7h7.2l13.3 35.1 13.3-35.1h7.1l3.3 42.7h-5.5zm28.1-8.1c-2.5 2.5-5.6 4.2-8.8 4.2-2.8 0-4.4-1.5-4.4-4 0-3 2.3-6 13.2-7.1v6.9zm5.5 8.1V45.5c0-6.6-3.5-9.5-10.7-9.5-4.6 0-7.9 1.1-11.5 2.5l.7 4.8c3.2-1.4 6.6-2.5 10.2-2.5 3.4 0 5.6 1.3 5.6 5V47c-12.3 1.3-18.6 4.2-18.6 11.6 0 5 3.3 8.2 8.7 8.2 4.8 0 8.1-2.2 10.4-4.6l.6 4h4.6zm16.5-26.1c3.7 0 6.1 2.7 6.1 6.2s-2.4 6.3-6.1 6.3c-3.7 0-6-2.7-6-6.1 0-3.6 2.3-6.4 6-6.4m-8.1 29.3c0-2 1.5-3.8 5-5.5 1.2.2 2 .4 3.7.7l3.5.6c4.2.7 5.6 2 5.6 3.8 0 2.5-3.2 4.5-9 4.5-5.7 0-8.8-1.7-8.8-4.1M194 38.5c-2-1.6-4.6-2.5-7.6-2.5-6 0-11.3 3.9-11.3 10.3 0 4 2.2 7.2 5.5 8.8-2 1.2-3.1 2.6-3.1 4 0 1.1.6 2.2 1.9 3.1-4.1 2.2-6.3 4.6-6.3 7.6 0 5.2 6.1 7.6 13.8 7.6 7.7 0 14.4-2.9 14.4-9.1 0-4.6-3.9-6.6-10.2-7.7l-2.1-.4c-5.2-.9-6.2-1.2-6.2-2.2 0-.6.6-1.2 1.5-1.8.7.1 1.5.2 2.2.2 6 0 11.3-3.8 11.3-10.2 0-1.7-.4-3.2-1.2-4.6l5.6-.6-.8-5-7.4 2.5zm21.1 1.9c4.3 0 6.4 2.7 7.1 7.5H208c.8-5.1 3.7-7.5 7.1-7.5m12.7 10.4c0-8.2-4-14.8-12.6-14.8-7.4 0-13 5.8-13 15.3 0 10.8 6 15.5 13.7 15.5 4.9 0 8.7-1.5 11.8-4l-.8-5c-3.2 2.5-6.3 4.2-10.6 4.2-5.1 0-8.4-3.2-8.6-10.1h20.1v-1.1zm28.7 15.4V44.7c0-5.3-3-8.7-8.5-8.7-4.2 0-7.7 2.4-10.5 4.9l-.7-4.3h-4.4v29.5h5.5V45.8c2.7-2.8 5.6-4.8 8.5-4.8 3.2 0 4.5 2 4.5 5.1v20.1h5.6zm16.3.5c1.9 0 3.2-.2 4.2-.4l-.7-4.7c-.7.1-1.5.2-2.5.2-3.1 0-4.1-1.5-4.1-3.9V41.3h7.1l-.7-4.6h-6.4V26l-5.4.8v9.8h-4.5v4.6h4.5v17.6c-.1 6 3.3 7.9 8.5 7.9m18.3-26c5.3 0 8.2 4.7 8.2 10.8 0 6.2-2.7 10.8-8.2 10.8-5.2 0-8-4.7-8-10.8 0-6.2 2.6-10.8 8-10.8m0 26.1c7.9 0 13.7-5.6 13.7-15.4 0-9.7-5.8-15.4-13.7-15.4-7.9 0-13.6 5.7-13.6 15.4 0 9.8 5.7 15.4 13.6 15.4m17.6-31.2c.5 0 .7.2.7.6 0 .4-.3.6-.8.6h-.5v-1.3h.6m1.9 3.6l-1.2-1.7c.5-.2.9-.6.9-1.2 0-.8-.6-1.2-1.5-1.2h-1.3v4.3h.7v-1.8h.4l1.3 1.8.7-.2zm-1.9-5.3c1.8 0 3.2 1.2 3.2 3.4s-1.4 3.4-3.2 3.4c-1.8 0-3.2-1.2-3.2-3.4 0-2.1 1.4-3.4 3.2-3.4m0 7.3c2.2 0 3.8-1.6 3.8-3.8 0-2.3-1.5-3.9-3.8-3.9-2.2 0-3.8 1.6-3.8 3.9.1 2.2 1.6 3.8 3.8 3.8"/></symbol><symbol viewBox="60 45 230 115" id="moustache-republic"><path d="M245.6 101.5c-.6.7-2.4 3.2-3.6 4.2-1.4 1.2-2.9 2.3-4.3 3.5-.7.6-1.8.9-2.7.8-2-.3-1.9-2.3-2.1-3.8-.4-4.1-.9-8.8 1.5-12.5.9-1.4 2.8-2.2 3.9-.6 1 1.3.8 3.6.9 5.2.1 1.3.2 5.7 2.2 3.2 1.7-2.3 2.3-6.2 1-8.8-2.4-4.9-11.7-1.7-13.2 2.5-1.2 3.5-1.3 10.3-1.3 12.1 0 .3-.1.6-.2.8-.7 1.1-2.5 4-2.8 3.5-.4-.6.1-14 .2-15.2.1-1.1.3-3.6-1.4-2.4-1.7 1.2-3 2.8-3.3 8.6-.2 4.4-.4 6.3-.4 7 0 .2-.1.4-.2.5-.5.6-1.7 2.3-2.2 2.9-.7.7-1.4 2.8-1.3-1.2.1-3.9 1.2-19.9 1.2-19.9s-.1-1.9-1.8.1c-1.6 1.8-2.6 2.6-3.2 9.3-.5 5.2-.7 8.2-.8 9.3 0 .3-.1.6-.3.8-.5.8-1.7 2.5-2 2.8-.4.3-.6.4-.5-1.4.2-1.8 1.9-16.9-3.1-14.5-5 2.4-6.3 4.6-6.3 4.6l-.1-6.5s0-1.1-1.1-.3c-.9.7-3.6 1.7-3.8 6.6-.2 4.4-.4 12.8-.4 14.6 0 .3-.1.5-.2.7-.4.7-1.5 2.3-2 2.5-.7.3-.9.4-.9-1.3-.1-1.6.1-17.2.1-17.2s-.3-.8-1.4-.3c-1.1.6-3.2 1.7-3.2 5.7-.1 3.6-.4 9.5-.5 10.8 0 .2-.1.3-.1.5-.6 1-3.2 5.4-4.1 4.3-1-1.3-1.3-4.7-1.1-7.8.2-3 .3-9.9.3-9.9s0-1.5-1.4-.6c-1.3.9-3.2 2.1-3.5 7.9-.2 4.1-.3 6.2-.4 7 0 .3-.1.6-.3.8l-2.5 2.7s-.3.2-.1-1.4c.3-1.6 1.4-15.4-2.5-14.9s-7.1 3.8-7.6 4.8c0 0 .2-2.1-.1-2.7-.3-.5-.7-.4-2.1 1-1.1 1.1-2.7 2.2-2.8 6.6-.1 3.3-.2 5.8-.3 6.9 0 .4-.2.8-.4 1.1-1.1 1.4-4.5 5.4-7.5 6.3-3.6 1.1-5.2 2-5.3-2.9 0 0 8.3-4.7 10.2-7.1 0 0 .9-5.5-.7-7-1.9-1.7-5-2.2-8.9-.9 0 0-4.3 1.6-5.2 6.7-.9 5.1-.5 9.2-.5 9.2s.4 6.4 5.7 5.5c5.4-.9 7.7-1 12.5-7.6l.1 9.1s.1 1.6 1.4 2.3c1.4.7 2.5 1.9 2.8-2.3.3-4.3.5-9.9.5-9.9s1.1 1.3 3 2c1.9.6 2.4 1.2 5.5-1.1 3.1-2.2 5.3-4.6 5.3-4.6s-.2 1.7 1.9 2.7c2.1 1 5.5 1.4 8.5-3.7 0 0 .9 2.7 3.2 2.4 2.4-.3 4.7-3.7 4.7-3.7s-.5 1.6.4 1.7c.8.1 3.3-1 4.1-4.4 0 0 2.6 2.8 5.9 2.4 3.3-.4 7.3-5.7 7.4-6.4 0 0-.3 3.4 1.3 3.9 1.7.6 3.4.5 6.8-4.3 0 0 .4 1.5 1.1 2.3.7.8 2.6 1.2 4.4-.8 1.8-2 3.2-4.1 3.2-4.1s.7 2.6 3.2 2.8c2.5.2 4.4-.4 6.4-1.6 2-1.3 5.6-4.2 7.2-6.8 1.3-2.6.6-3.8 0-3.1zM144 118.1c.2-1.2.6-2.7 1.6-3.4 1.7-1.3 4.3-1.8 4.6.9.2 1.9.2 3.9.1 5.9-2.1 1.6-4.3 3.3-6.7 4.4-.3-1.4-.1-3.4 0-4.8.1-1 .2-2 .4-3zm23.9 6.4c-.3.9-.9 1.6-2.3 1.5-1.6-.1-3.8-2.2-3.8-2.2v-9.5s1.4-2 3.4-2.6c3.7-1.1 3.2 5.8 3.2 7.9 0 1.6 0 3.4-.5 4.9zm34.4-6.8c-1.5 0-3.5-2.8-3.5-2.8l.2-9.5s2.1-3.1 4-3.2c1.9-.2 1.8 4 1.7 9.9-.1 6-1 5.6-2.4 5.6z"/><path d="M222.5 90.1c-1.4.8-2.1 1.8-1.7 2.5.4.7 1.6 1.3 2.8-.1 1.2-1.5.9-3.5-1.1-2.4zm-101.1-12c.2.6.2 1.3.1 2-1.3 5.9-4.6 31.7-3.2 37.2-.3.1-3.6.4-4.4-2.6-.5-2-.6-7.2-.2-14.2-4.7 7.8-5.8 14.1-6.4 16.6-.2.8-.1.9-.5 1-.8.2-6.3-6.4-10.2-13.8-.1-.1-.2-.2-.2-.4-1 9.9-3.5 21.4-15.3 24.6-8.5 2.3-15.1-.7-18-11.4-3.2-11.9 3.1-23.2 11.3-25.8 4.5-1.2 7-.1 9.5 1.4 0 .1-1.2 3-3.1 3.5-.3.1-.7.1-1 .1-.9-.4-2.3-1.3-4.9-.6-3.3.9-5.5 3.2-7.5 7-2.4 4.5-3 7.6-1.8 13.2 1.4 6.6 5.6 12 13.5 9.9 10.3-2.7 12.3-12 12.7-19.6.3-7.3 1.9-14.8.8-22.5.3.2 5.9.4 5.9 3.6 0 .8.2 1-.2 2.5-.6 3.5 0 7.9 1.1 12 1.6 5.9 5.2 11.3 6.6 13.8.3-4.7 2-9.9 4.9-17.9 4.8-14.9 4.7-21.3 4.4-22.4.7-.1 5.4 0 6.1 2.8zm107.9 43.1s-8.6-.6-10.5 3.2c-6.6 13.3 21.8 14.7 29 13.8 6.9-.8 13.6-3.4 19.6-6.6 4.9-2.7 9.8-5.2 13.7-9.2 1.9-2 3.6-4.4 3.6-7.3 0-1.8-1.2-3.4-1.9-.8-2.6 9.7-15.6 12.8-24.3 11.5-5.3-.8-21.8-4.7-29.2-4.6zm23.6-48c-.9 1.5-5 7-7.9 7.7-2.8.7-5.4.6-5.2-3.1 0 0 8.9-5.7 9.9-6.8 1-1.2 1.6-3.1.7-6.3-.9-3.2-3.5-5.4-7.6-3.7-4.1 1.6-6.9 4.3-7.3 10.3-.3 4.4-.3 6.4-.2 7.1 0 .3-.1.5-.2.7l-1.9 3.2s-.4.6-.3-.4V66.3c0-.5 0-1.9-1.2-2.3-1.1-.3-2.5-1.1-9.4 4.9l.1-20.3s-.5-1.4-1.9-.3c-1.3 1.1-2.9 3.2-3.1 7.8-.2 4.6-.9 25.9-.9 25.9s-1.9 4.7-4.6 6.8c-2.6 2.1-5.7 2.6-5.8-1.7-.1-4.4-.3-12.7.5-13.8.3-.4.9-1.2 2.7-1.3 1.8-.1 2.5-.1 2.4 5.5-.1 5.6 2.1 3 3.1.5s.7-7.3-1.4-7.9c-2.1-.7-5.8-.2-8.1 1.5-1.9 1.5-3.6 2.6-3.9 6.9-.3 4.2-.4 9.3-.4 9.3s-1.6 3.1-2.1 3.4c-.5.4-.5-.6-.5-1.2s.2-16.4.2-16.4 0-.7-.9-.3c-.9.4-3.4 2.4-3.6 2.9-.2.5-.3 1-.3 1s-2.7-2-4.4-2c-1.7 0-7 2-7.1 7.8-.2 5.4-.1 9.3-.1 9.5 0 0-1.7 2.7-2.1 3-.4.3-.6.4-.5-.4 0-.4.2-11.6.4-20.7 4.3-1.2 7.8-2.3 8.2-2.5 1.2-.7-.1-2-.1-2l-8.1 2.6c.1-5.4.2-9.6.2-9.6s.2-3.7-.6-3.3c-.8.4-4.2 2.4-4.3 5.1 0 .9-.1 4.7-.3 9.3l-13.5 4.3c-2.6 1.9 2.1.7 2.1.7s5.6-1.5 11.4-3.2c-.2 7.1-.5 15.4-.5 17.5 0 .3-.1.6-.3.9l-1.7 2s-.4 0-.4-1 .2-6.9-4.1-14.3c0 0-2.1 1.7-2.6 2.7-.5.9-.8 2-.3 2.8.2.3.3.6.4.8.2.4.1 1-.2 1.3-1.2 1.6-4.8 6.3-5.5 7.6-.8 1.4-1.4 2.1-1.4 3.1v.3c-.2 1-1.4 2.6-2.3 2.8-.1 0-.7 0-.8-.6-.1-.7.3-17.6.3-17.6s-.1-.5-.8 0c-.7.5-3.2 2.3-3.4 5.2-.2 2.7-.4 9.2-.5 10.5 0 .2-.1.3-.2.4-.4.8-2.2 2.8-3.2 3.5-1.2.8-3.4 2.1-3.5-1-.1-3 .3-15.4.3-15.4s.2-.6-1.3.1c-1.5.8-3.1 2.9-3.2 3.9-.1.8-.1 1.7-.1 2.1 0 .1 0 .2-.1.2l-3 3.3V95c0-.8-.5-3.6-2.6-4.4-2.1-.8-6.1-.4-5.7 3.3.4 3.7 1.9 6.2 3.8 6.3 0 0 1.2 9-2.4 10.2-3.6 1.2-4.2-4.6-4.1-9.2.1-4.5 1.7-7.9 2-8.6 0 0 .9-2-1.4-.9s-4.6 2.6-4.9 6.1c-.3 3.5-.2 8 0 9.3.1 1.2 1 3.3 2 4.2 1.1.9 2.7 2.4 6.2 1.1 3.5-1.3 6.5-3.4 7-8.3.3-3.5.3-4.6.3-5 0-.1 0-.3.1-.3l2.9-3.1-.1 7.3s-.5 2.7 1.6 3.9c2 1.2 3.5 1.8 6.1-.6 2.6-2.4 3.7-3.6 3.7-3.6s-.2 1.6.6 2.2c.8.6 2.3 1.6 4.2-.2 1.9-1.8 3-3.3 3-3.3s.2.6 1.9 1.5c1.6.9 4.2 1.1 6 0 1.8-1.1 2.3-1.5 4-3.1 1.8-1.6 3.7-3.8 3.7-3.8s-.1 1.8.9 2.6 2.7 1.8 4.5-.6c1.9-2.4 2.6-3.6 2.6-3.6s1 3.3 3 3.4c2 .1 3.9.3 7.8-4.8 0 0 .3 2 1.9 2.2 1.6.2 3.4-.6 6.2-5.5 0 0 .8 3.1 4.4 3 3.6 0 7.6-.7 11.3-8.8 0 0-.1 2.7 1.2 3.3 1.3.7 3.6 1.9 3.8-.6.2-2.5.3-15.2.3-15.2s2.3-2.4 3.1-3c.8-.6 3.3-2.5 3.2.9-.1 3.3-.1 13.4-.1 13.4s.2 2.4 1.6 2.5c1.4.2 2.7.2 4-1.7 1.3-1.9 1.7-2.5 1.7-2.5s.4 1.4 2 2.2c1.8.9 8.8 1 12.2-3.4 3.3-4.3 4.1-6.6 4.1-6.6s-.5-1.5-1.3 0zm-9.2-10c4.2-.9 2.5 7.9 2.5 7.9l-6.4 4.1c.1-1.3-.4-11.1 3.9-12zM132.1 98.1c-.3-.1-1.1.2-2.3-3-1.2-3.2.7-2.9 1.6-1.9.9 1 .7 4.9.7 4.9zm33.5 3.1c-1.1.3-2-.5-2.8-1.9-.6-1-.2-3.5.1-4.7.1-.4.3-.8.5-1.1l2.8-3.9c3.4 8.4.5 11.3-.6 11.6zm27.5-11s-.1.3-1.7 2.3c-1.6 2-3.8 1.8-4.4 1.2-.7-.6-.5-3.1-.5-3.1s.2-7.3.3-8.7c.1-1.4.4-2.2 2-3.7 1.7-1.5 4.4 1 4.4 1l-.1 11zm16.3 35.7s0-.1 0 0c-3.6-1.2-6.7 1.1-9.5 2.9-2.9 1.9-5.3 4.6-7.8 7-3 3.1-5.8 6.4-9.1 9.2-1.5 1.2-3 2.4-4.7 3.2-3.4 1.7-7.2 2.7-11 3.1-2.8.3-5.7.2-8.5-.3-5.5-.9-11-2-16.4-3.2-5.2-1.1-10.4-2.3-15.4-4-1-.3-2.1-.7-3.1-1.1-.3-.1-1.8-1.1-2-1.1.3-.1.7-.1 1-.2 5.9-1.6 11.6-5.4 13-13.5.5-2.7.3-4.3-.7-6.5-2.4-5.5-10.1-2.8-12.3-2.2-6.3 1.7-11.6 6.5-13.5 8.8h-.1c-1.3 1.9-1.8 2-1.3 3.9.3.9 1 2 2.8 2.7.2-.1.7-2.6 4.3-6.2.1.5.1 1.4.1 2.2l-.1 1.4c0 3.1-.6 5.1-.4 8.4-3.6.3-5.2-2.2-5.6-2.1-.2.1-.3.2-.3.4v.1c0 .1 0 .1.1 0 0-.1 1.5 2 5.8 2.8.1 2 0 3.8.5 5.5.6 2 3 1.9 3.2 1.8-.3-1-.3-4.3-.3-4.3-.1-.4-.1-2.1.1-2.5 7.3 4.7 29.5 10.3 39.1 12.6 3.5.8 7.1 1.2 10.7 1.4 4.7.1 9.5 0 14.1-.9 5.2-1 10.3-2.6 14.8-5.4 3.9-2.4 7.5-5.4 10.5-8.8 1.3-1.4 2.5-3 3.4-4.6 1.1-1.9 2.3-4.3 2-6.6-.3-1.8-1.7-3.4-3.4-3.9zm-91.2 14.6c.3-3.2.5-4.5 1.1-7.1.5-2.2.4-2 .2-2.9-.5-1.8-3.7-2.3-4.3-2.1 2-2 4.4-6 9.1-7.7 5.2-1.9 5.9-1 6.5 1.2.3 1.2 0 6.3-.5 8.4-1.3 6.1-3.8 8.5-8.7 9.8-1 .2-2.6.7-3.4.4z"/></symbol><symbol viewBox="0 0 463.67 463.72" id="pocket-square"><path d="M68.34 333.52l3-4.19-4.93.51c-33.09-52.89-42.3-137.95 8.24-209.25 50.19-70.85 142.7-100.07 224.25-69.15-.77 1.67-2 3.3-2.15 5-.1 1.54 1.07 3.17 1.92 5.39 2.47-3 5.6-2.12 8.55-2.08v-.65a6 6 0 0 1-1.83-1.22c-.46-.67-1-2.12-.74-2.31.73-.58 2.07-1.26 2.72-.95 6.77 3.25 13.46 6.66 20.11 10.16.53.28.53 1.58.69 2.11a6.06 6.06 0 0 1 2.26 0c9.91 5 18.59 11.8 27 18.93a190.13 190.13 0 0 1 33.47 37.16c1.23 1.77 1.36 3.14.1 5-.47.67 0 2 .11 3.19l2.64-1.07-.65-2.3c2.52 2.2 2.28 3.18-.58 4.18-1.53.54-3.08 1-4.72 1.58v2.35c-2 2.41-3.58-.16-5.12-.67-1.39-.46-2.25.18-3.88 0l1.76 1.49-2.15.25c-.08 1.64.05 3 2.54 2.82-.6.45-1.17 1.22-1.79 1.26a6 6 0 0 1-2.26-.86l-.34.53 1.16 1.32-5.87 1.57c2.32 2.89 2.49 2.94 3.71.94.24 1.2.41 2.38.72 3.51s.76 2.21 1.25 3.57c-1.06 1.37-1.59-.09-2.16-.88q-6.89-9.48-13.73-19c-3.23-4.47-6.45-9-9.7-13.42-1.85-2.54-2.57-2.65-5.08-.87-2.28 1.62-4.53 3.28-6.82 4.89-1.8 1.27-2 2.69-.7 4.47 2 2.69 3.95 5.43 5.91 8.15 2.31 3.2 2.24 3.67-.89 5.93l-30.93 22.33c-2.87 2.08-3 2.76-.93 5.61 1.44 2 2.85 4.05 4.34 6 2 2.63 2.62 2.72 5.27.81l30.92-22.32c3.38-2.44 3.77-2.37 6.25 1.06 1.92 2.66 3.86 5.3 5.75 8 1.25 1.77 2.61 2.16 4.43.78 2.36-1.79 4.83-3.43 7.16-5.24a13.36 13.36 0 0 0 1.93-2.45l1.47.48-1.37-2.36.28-.51 8.34 4.59c1.8-.85 3.42-2.16 5.15-2.32 4.28-.39 6.58-2.83 8-6.49a2 2 0 0 0 .48-.08c.95-.56 2.76 1.38 3-.93.19-1.69-2-2.58-3.51-3.27-2.31-1-5.55.23-7.12-3-.5-1-2.45-1.38-4.21-2.28.74-.48 1.38-1.16 1.65-1 1.21.57 2.76 1.1 3.36 2.13a4.27 4.27 0 0 0 4.23 2.4 22.25 22.25 0 0 1 3.85.27 17.3 17.3 0 0 0-2.08-1.54 16 16 0 0 1-2.4-1c-.63-.47-1.48-1.46-1.33-2a8.25 8.25 0 0 1 1.85-2.42 5.91 5.91 0 0 1 1.6 1.37c2.49 4.74 5.09 9.44 7.29 14.31 39.57 87.59 10.38 187.26-66.84 239.16-55.2 37.1-114.88 43.51-177.45 20.74-17.62-6.41-33.67-15.86-48.52-27.31a191.49 191.49 0 0 1-44.68-48.93c-.41-.63-.83-1.31-1.25-1.98zm207-169.92L187.9 288.36l108.77-23zM160.9 187.94l20.35 96.66 41.86-59.37zm11.88 128.29c-6.71 0-11.29 2-14.3 6a133.86 133.86 0 0 0-17.4 31.82 15.36 15.36 0 0 0 2.82 15.38 28.62 28.62 0 0 0 15.78 9.87c2.58.61 3.89 1.83 4.25 4.34a9.71 9.71 0 0 0 .48 1.61 2.42 2.42 0 0 0 3.33 1.8c1.77-.49 3.54-1 5.32-1.4 7.57-1.84 6.65-1.93 5.1-8.42a4.36 4.36 0 0 1 .22-2.92c3.68-6.34 7.58-12.56 11.22-18.92a87.36 87.36 0 0 0 5.55-11.13c2.11-5.32 2-10.78-1.34-15.61a28.83 28.83 0 0 0-21-12.43zm151.68-33.49c-2.3.93-5.33 1.65-7.76 3.26a31.21 31.21 0 0 0-6.91 6.55c-4.19 5.24-8.08 10.72-12.06 16.13-1.58 2.14-1.44 3.29.67 4.86q21.95 16.3 43.94 32.54c2 1.5 3.15 1.33 4.67-.65 1.76-2.28 3.43-4.62 5.17-6.91 1.38-1.82 1.2-3.35-.66-4.71-3.2-2.35-6.37-4.74-9.57-7.08-1.42-1-2.76-2.06-1.93-4.11 1.11-2.77 2.6-3.68 5.25-3.25 5.29.86 10.58 1.68 15.85 2.59a4.38 4.38 0 0 0 4.78-1.96c1.29-1.83 2.66-3.6 4-5.4 3-4.13 2.2-6.14-2.82-6.85-5.38-.76-10.75-1.6-16.14-2.31-1.5-.2-2-.82-2.43-2.32-.82-2.86-1.72-5.9-3.43-8.26a31 31 0 0 0-14-10.48 54.76 54.76 0 0 0-6.59-1.64zM284.9 317.8c-6.92 0-17 4.6-21.51 9.85-3.1 3.59-4.55 7.75-3.68 12.44a43.56 43.56 0 0 0 2.48 8.48c1.87 4.58 4.07 9 6.14 13.54 3.34 7.26 6.66 14.53 10 21.78 1.29 2.78 2.14 3.06 4.86 1.82 2.48-1.12 5-2.24 7.4-3.41s2.74-2 1.6-4.54q-1.38-3.06-2.79-6.11a2.37 2.37 0 0 1 1.26-3.55c2.24-1.06 4.48-2.12 6.75-3.12 1.71-.75 2.91-.18 3.66 1.53.93 2.12 1.94 4.21 2.9 6.32.86 1.91 2.2 2.37 4.09 1.47 2.38-1.13 4.79-2.21 7.18-3.32 3.31-1.53 3.56-2.19 2-5.53-4.73-10.4-9.39-20.83-14.26-31.17a69 69 0 0 0-5.88-10.14 14.22 14.22 0 0 0-12.2-6.34zm25-231.34a13.25 13.25 0 0 1-3.07-.76c-3.81-2-7.56-4.18-11.34-6.25-2.44-1.33-3.36-1.11-4.67 1.25q-13.33 24-26.62 48c-1 1.89-.82 3.29 1.16 4.38q15.74 8.69 31.45 17.45c2 1.11 3.29.6 4.31-1.32 1.24-2.33 2.56-4.62 3.83-6.93 1.72-3.13 1.55-3.77-1.5-5.47l-16.4-9.01c-2.93-1.63-3.11-2.31-1.45-5.3 1.77-3.2 2.3-3.37 5.4-1.66q5 2.77 10.07 5.57c2.36 1.31 3.26 1.07 4.63-1.3 1-1.73 1.95-3.49 2.92-5.24 2.8-5 2.78-5-2.25-7.93a8.5 8.5 0 0 1-1.71-2.21c-2 1.23-3.75-.83-5.69-1.86-3.85-2-4-2.65-1.76-6.2a4.38 4.38 0 0 1 3-2c1.48 0 3 .93 2.08 3.35 2.12-2.06 3.59-.45 5.13.39 3.72 2 7.41 4.1 11.13 6.14 3 1.62 3.58 1.45 5.31-1.51.73-1.24 1.38-2.52 2.09-3.77 3.89-6.84 3.47-5.86-2.56-9.43 1-2.09.6-4.15-.89-5.07 2.69-1.45 5.36-3.25 8.13.22.2-2.34-1.28-3.82-3.68-4.17.19-3-.54-3.73-3.68-3.6a29 29 0 0 1-5.22 0 6 6 0 0 0-6.08 3.91 5.21 5.21 0 0 1-1.49 1.59zm-177 96.2a.93.93 0 0 1 0-.72c.4-1 .71-2.51 1.43-2.75 8.56-2.91 13.75-9.15 17.31-17.07.68-1.51 1.61-3.16 1.53-4.69-.27-5.14-1.38-10.08-5-14.08a7.11 7.11 0 0 1-1-2.05 9.62 9.62 0 0 1-2-.89c-6.2-4.79-12.33-9.67-18.57-14.41a34.45 34.45 0 0 0-6.12-3.73c-6.51-3.06-12.75-2.36-18.5 2a31.74 31.74 0 0 0-9.9 12.45c-3.18 7.08-2.18 13.68 2.82 19.61a27.76 27.76 0 0 0 4.88 4.57c8.71 6.23 16.11 14.35 26.69 18.4l-8.19 5.42c.67.16 1.49.38 2.32.54a14.72 14.72 0 0 0 2.12.28c.36-1.71 1.68-1.09 2.73-1.35 1.4-.35 2.15-1.28.67-2.79l2.52-1.22-.44.67a8.62 8.62 0 0 0 1.89 2.08c.55.31 1.46-.13 2.81-.27zm69.71-73.34c-.74 2 .62 2.76 1.78 3.42a2.79 2.79 0 0 1 1.57 2.87c-.1 3.11-.05 6.24 0 9.35 0 2.53.77 3.21 3.35 3.25h5c7.2 0 7.06.58 7-7.08 0-3.48-.16-6.9 2.59-9.77 1.95-2 2.09-2.23 3.72.26 3.07 4.68 6.18 9.33 9.17 14.06a4.92 4.92 0 0 0 4.76 2.53c3.67-.12 7.36 0 11-.1a4.47 4.47 0 0 0 3.08-1.13c.37-.47-.32-2.06-.88-2.93q-8.71-13.49-17.56-26.87a3.35 3.35 0 0 1 .06-4.49q8.19-11.07 16.14-22.32c.54-.76 1.08-2.09.76-2.74s-1.71-1-2.64-1c-3.84-.1-7.68.05-11.51 0a5 5 0 0 0-4.61 2.4c-3.92 5.55-7.94 11-11.95 16.52a16.07 16.07 0 0 1-1.63 1.67l-.6-.27v-2.31c0-4.75 0-9.49-.05-14.24 0-3.12-.58-3.67-3.61-3.69h-8.16c-3.07 0-3.61.57-3.61 3.65q0 18.71.07 37.42v2.79zm145.35 125.8a8.53 8.53 0 0 0-2.44-1.95c-2.72-.9-5.54-1.52-8.33-2.22-3-.75-3.71-.35-4.47 2.58q-4.4 17.06-8.75 34.13c-.68 2.68-.24 3.48 2.41 4.16q26.57 6.84 53.15 13.64c2.49.64 3.44.1 4.07-2.33q4.47-17.29 8.86-34.6c.6-2.38 0-3.34-2.43-4-2.62-.72-5.25-1.39-7.89-2-3-.74-3.68-.37-4.46 2.6-1.66 6.34-3.25 12.69-4.92 19-.71 2.7-1.49 3-4.68 2.19s-3.72-1.49-3.05-4.19c1-4 2-7.89 3-11.84.65-2.61.16-3.42-2.51-4.13s-5.41-1.42-8.13-2.08-3.38-.17-4.09 2.54c-1 3.86-2 7.75-3 11.61-.73 2.77-1.52 3.15-4.6 2.36-3.36-.85-3.89-1.52-3.18-4.32 1.29-5.11 2.63-10.21 3.95-15.32.43-1.72.88-3.43 1.48-5.83zm-215.67 46.06c-10.57.06-18.75 8.86-17.53 19.32.5 4.24 2 8.36 3.08 12.53a56.67 56.67 0 0 1 1.82 7.18c.44 3.75-2 5.32-5.44 3.78-4.32-1.91-7.88-8-3.26-12.8 1.35-1.4 1.18-2.69-.32-3.85l-7.8-6a2.73 2.73 0 0 0-4 .33c-5.09 5.24-7.61 11.39-5.49 18.6 2.61 8.9 8.25 15.62 16.83 19.21 12.72 5.32 26.65-2.94 24.46-18.68-.62-4.48-2.22-8.81-3.33-13.22a42.08 42.08 0 0 1-1.45-6.52c-.09-1.08.53-2.8 1.35-3.22a4.68 4.68 0 0 1 3.75.26 7.34 7.34 0 0 1 2.35 10.92c-1.25 1.76-1.12 3 .58 4.24 2.51 1.86 5 3.78 7.42 5.7 1.51 1.18 2.91 1.17 4.24-.25 4.14-4.46 6.3-9.65 5.31-15.77-1.25-7.69-5.73-13.41-11.69-18.09a16.88 16.88 0 0 0-10.88-3.67zm102.19 64.62v27a14.18 14.18 0 0 1-.48 3.55c-.79 3-2.78 4.19-6.42 4.16s-5.53-1.24-6.14-4.17a36 36 0 0 1-.63-6.9c-.12-11.11-.15-22.23-.23-33.34 0-2.81-.65-3.32-3.36-3.49s-5.26-.54-7.89-.79a2.53 2.53 0 0 0-.86.31 4.07 4.07 0 0 0-3.06 4.89 45.45 45.45 0 0 1 .06 5.27c0 11 0 21.9.17 32.85.14 10.11 4.91 17 13.35 19.4a30.72 30.72 0 0 0 13.41.89c10.59-1.71 16.75-7.57 17.13-18.34.5-14 .05-28 0-42 0-1.89-1.11-2.72-2.93-2.7-3 0-6.08.07-9.11.06-2.23 0-3.17 1.09-3.13 3.27.06 2.63 0 5.26 0 7.35l-2.53 2.17.31.5h2.34zm-125-151.31a8.61 8.61 0 0 1-1.48-2.39 15.25 15.25 0 0 0-8.27-10 33.94 33.94 0 0 0-17.17-3.56 14.55 14.55 0 0 0-12.66 8.06 31.84 31.84 0 0 0-2.89 7.33c-1.67 6.83-3.09 13.71-4.56 20.59-.54 2.51 0 3.38 2.53 3.93q26.92 5.89 53.85 11.74c2.07.45 3.24-.31 3.68-2.32q.93-4.21 1.83-8.43c.59-2.8.07-3.6-2.71-4.21-4.14-.9-8.27-1.8-12.42-2.66-2-.42-2.74-1.54-2.41-3.62.68-4.33 1.18-8.68 1.82-13a5 5 0 0 1 .86-1.5zm85.94-78.12c-.1-.29-.27-.73-.42-1.18-1.15-3.39-1.75-3.71-5.29-2.83-2.4.6-4.81 1.19-7.2 1.82-2.89.76-3.26 1.49-2.85 4.44.28 2 1.33 4-.38 6-3.59 4.36-8.89 4.42-11.61-.46-3.46-6.2-6.47-12.64-9.62-19a4.54 4.54 0 0 1-.67-2.51c.29-1.64.52-3.59 1.53-4.75 3.4-3.9 7.48-3.61 10.7.4 1.6 2 3 2.37 4.67 1.05a53.47 53.47 0 0 0 7-5.84 4.64 4.64 0 0 0 .7-4.25c-2.95-5.25-7.34-8.85-13.52-9.65-7.7-1-14.16 2.11-20 6.68-6.7 5.27-9.76 12.82-5.35 23 2.89 6.66 6.3 13.1 9.66 19.54a56.64 56.64 0 0 0 5.33 8.49 16 16 0 0 0 11.52 6.15c4.16.41 8-.69 11.87-2.17a41.57 41.57 0 0 1 4-1.16 13.19 13.19 0 0 1 2-2.26c6.5-4.65 10-10.62 8.6-18.86a3.13 3.13 0 0 1 .37-1.07l2.83 2.39c.4-1.13 1.08-2.18 1-3.18s-.88-1.85-1.37-2.78l-.43.33v2.09zm53.92 71.68l-31.59-14.27-23.2 26.02 32.72 19.59zm-144.89 73a13.18 13.18 0 1 0-13.07 13.18 13.2 13.2 0 0 0 13.07-13.27zm257.25-43.98a13.23 13.23 0 0 0 13.36-12.93c.14-7-6.13-13.37-13.24-13.45a13.19 13.19 0 0 0-.12 26.38zM306.42 66.7l.26-.78-2.78-1.21c-.33.93-.75.52-1.44.28-1.82-.64-2.69.13-2.86 2.17a2.27 2.27 0 0 1-.43.81l1.59.55-1 1.61 2.13 1.16a8.05 8.05 0 0 1 1.82-1.26 19 19 0 0 1 3.17-.46l-2.87-2.22zm61.48 62.34l.19.72 2.76-.41-.48-2.45a3.58 3.58 0 0 0-.14-.68 5.36 5.36 0 0 0-6.59-3.39c2.47 2.23 2.47 2.23 2.49 4.68l3.2-.27.11.5zm-38.83-48.05c1 4.61 4.68 6.1 8 3.27zm-238 265.71a31.17 31.17 0 0 0 2.4-2.1c.74-.79 1.34-1.7 2.07-2.64-2.22-.95-3.69-.59-5 1.35-.92 1.36-.84 2.26.46 3.38zm288.28-214c1.79-3.31 1.77-3.56-1.29-4.5a2.32 2.32 0 0 0-1.9.95 5 5 0 0 0 .89 2.78c.26.41 1.23.42 2.23.72zM238.59 322.46c-2.73-1.41-4-.29-5.25 1.54-.95 1.4-.31 2.11.77 3.19zm107.54-216a7.83 7.83 0 0 0 1.63.92c2.1.75 2.06-1 2.4-2.22a10.59 10.59 0 0 0 .2-1.83c-.77.12-1.77 0-2.26.41a14.32 14.32 0 0 0-1.97 2.76zm-21-28.43c-1-4.81-2-3.71-5.72-1.23z"/><path d="M350.81 53.65c1.4-.58 2.84-1.09 4.19-1.77 2-1 3.65-.86 4.9 1.14a11.64 11.64 0 0 1 .54 1.08l.92-.44c-.13-.88 0-2.07-.46-2.59a24.9 24.9 0 0 0-3.77-2.72l-.52.42a17.9 17.9 0 0 0 .21-2 3.46 3.46 0 0 0-3.43-3.5c-2.87 0-5.75-.28-8.6-.09a6.61 6.61 0 0 0-3.17 1.69 32.44 32.44 0 0 0-3 3.08l.36 1.34C284.46 18.73 227.36 11.21 167.9 30.22c-59.33 19-102.34 57.56-128.29 114-26.08 56.74-26.77 114.67-1.79 171.91 46.37 106.27 168.81 157 277.8 110.29 107.8-46.15 159.28-173.85 108.45-283.13l4.82 3.34c2.93-4 7.67-3.62 11.08-5.25l3.3-4.6c3 7.9 5.94 15.15 8.45 22.54a224.58 224.58 0 0 1 11 93.18 227.5 227.5 0 0 1-15.38 64.4c-.39 1-1.48 1.68-2.39 2.67l1 .73a220.43 220.43 0 0 1-21.79 40.4c-3 4.4-6.78 8.29-9.65 12.77-6.41 10-14.7 18.3-23.29 26.27-7 6.5-14.53 12.51-22.12 18.34-27.2 20.89-57.86 34.34-91.4 41-50.33 9.94-98.85 4.11-145.24-18.05a235 235 0 0 1-54.7-36.48c-1.65-1.46-1.82-2.34-.12-3.83a30.36 30.36 0 0 0 3.27-4c-3.79-1.38-3.79-1.38-7.45 3.94-34.45-32.86-57.56-72.1-67.78-118.57-11-49.58-6.1-97.86 14.85-144 29.59-65.2 79-108.41 147.73-128.73 53.17-15.71 105.28-11.1 156 10.26l-.51 4.5 1.79.77-1.16 2.17 2.71 1.69.9-1.95 4-.33c.86-2.08-3.51-1.45-1.52-4l9.95 5-.79 1.68a1.43 1.43 0 0 0 .49.16c1-1.09 2-1 3.16-.26 2.44 1.54 5 2.93 7.94 4.67l-3.46 1.82c3.2 2.28 6.1 2.51 7.12.41 2.14 1.41 4.28 2.78 6.39 4.2a57.75 57.75 0 0 1 6 4.5c-1.8-.23-4.06 1.49-5.14-1.68-.24-.7-1.8-1-3-1.17.92 1.32-.45 3.74 2.3 4.07.26 0 .33 1 .64 1.42a2.25 2.25 0 0 0 1.28 1c.44 0 .89-.62 1.59-1.16 1.46.69 3.26 1.13 4.13-1.56 24.81 18.38 45.19 40.54 60.59 66.74l-.62 4.64-4.08 1 .68-1.51-4.2-1.64.08 1.1-2.55-.33-.14.59 2.11 1.42-2.92.35c.45 3.26-.81 3.27 3.07 3.56l-.9 1.43.13.84-4.42-1.28-.3.63 1.62 1.39c-2.44 1-2.43 1-3.39-.64a204.39 204.39 0 0 0-28.19-37.2 212.57 212.57 0 0 0-30.74-26.75c-.9-.65-1.75-1.38-2.75-2.18 3.25-2.57-.13-2.95-1.33-4.09zm56.88 51.53l-2.79 2.52c1.32.18 2.15.51 2.82.31a2.56 2.56 0 0 0 1.66-1.47c.15-1-.45-1.85-1.77-1.3 1.19-1.05.84-2.13 0-3.18-.44-.56-1-1-1.42-1.58a4.88 4.88 0 0 0-6.21-1.67c1.16.88 2.66 1.51 3.31 2.64.55.95.11 2.46.11 3.23zm9.5 0c-2.53.9-2.57 2.84-2.11 4.6.18.69 1.64 1 2.9 1.76l.5 1.17.72-.1a53.5 53.5 0 0 0 1-5.28c0-.48-.79-1-1.21-1.56l-1.07 1zm-32.22-32.93c-4.06-1.4-3.9 3.21-6.48 3.88.94.43 2 .42 2.67.95 1 .83 2.57 1 2.91-.11a43.39 43.39 0 0 0 .9-4.75zm-46.77-29.3l-2.82 2.23a3.5 3.5 0 0 0 1.38.77c1.44-.05 2.26-.72 1.44-3.03z"/><path d="M348.8 51.64l-1.27 3.21-3.76-2.34.74-2.12-2.37-.22v-.48l2.84-.47 3.9 2.47zm89.36 74.89c-1-.4-1.72-.51-1.77-.75-.48-2.59-3-2.7-4.59-3.93a1.55 1.55 0 0 1-.49-1.37 1.68 1.68 0 0 1 1.34-.82 5.17 5.17 0 0 1 2.38 1.52c1.08 1.47 1.87 3.15 3.13 5.35z"/><path d="M350.81 53.64c-.4-.76-.78-1.53-1.23-2.26a2.73 2.73 0 0 0-.79.25v.06c.51-1.95 2.22-3.11 3.67-2.73l-1.69 4.69zM156.23 358.18a16.9 16.9 0 0 1 1-3.39c3.51-6.53 6.94-13.12 10.72-19.49 2.22-3.73 5.05-4.16 8.8-2.07 3.55 2 4.72 4.5 2.89 8.17-3.35 6.7-6.88 13.33-10.79 19.71-2.77 4.53-8.45 4.25-11.51-.19a12.34 12.34 0 0 1-1.11-2.74zm169.01-59.23a10.37 10.37 0 0 1 7.07 4.65c1.31 2.07-.06 3.8-1.2 5.44-.91 1.31-1.88 2.57-2.85 3.83a2.69 2.69 0 0 1-4.16.58c-1.55-1.12-3.08-2.27-4.61-3.4s-1.95-2.64-.69-4.3 2.41-3.38 3.79-4.91a13.52 13.52 0 0 1 2.65-1.89zm-40.93 35.43c1.07.93 2.52 1.66 3.16 2.84 1.79 3.29 3.35 6.72 4.81 10.17a2.76 2.76 0 0 1-1.55 3.95c-2.12.94-4.2 2-6.33 2.89a2.39 2.39 0 0 1-3.54-1.33c-1.43-3.12-2.94-6.2-4.31-9.35-1.6-3.67-1-5.35 2.63-7.16 1.49-.74 3.1-1.22 5.13-2.01zm35.7-246.47c-.57 4.21-.57 4.21 2.37 3.36a3.48 3.48 0 0 1-.43 1.21c-3.1.2-5.66-1.23-8.07-2.92a1.64 1.64 0 0 1-.45-1.42c.63-.65 1.51-1.58 2.22-1.51a21.57 21.57 0 0 1 4.36 1.28zM113.9 136.4a76.4 76.4 0 0 1 6.58 4c4.3 3.17 8.46 6.54 12.64 9.86a9.37 9.37 0 0 1 2.16 2.22c2.22 3.54 2.14 5.4-.45 8.52-2.28 2.74-4.89 3.45-7.81 1.34-6.39-4.62-12.57-9.52-18.71-14.48a4.87 4.87 0 0 1-1.48-6.26c1.23-2.57 2.92-4.75 7.07-5.2zm-27.15 57.4c.58.12 1.69.28 2.76.58 3.25.92 4.19 2.31 3.67 5.62-.31 2-.83 3.9-1.25 5.85s-1.61 2.6-3.53 2.15-3.6-.74-5.38-1.15c-2.69-.61-3.68-2.15-2.36-4.51a8.69 8.69 0 0 0 1-4.69c.01-2.45 1.98-3.94 5.09-3.85z"/></symbol><symbol viewBox="-141 297 200 200" id="qr-code"><path d="M-141 297h8v8h-8zm0 8h8v8h-8zm0 8h8v8h-8zm0 8h8v8h-8zm0 8h8v8h-8zm0 8h8v8h-8zm0 8h8v8h-8zm0 16h8v8h-8zm0 8h8v8h-8zm0 8h8v8h-8zm0 8h8v8h-8zm0 16h8v8h-8zm0 16h8v8h-8zm0 24h8v8h-8zm0 8h8v8h-8zm0 8h8v8h-8zm0 8h8v8h-8zm0 8h8v8h-8zm0 8h8v8h-8zm0 8h8v8h-8zm8-192h8v8h-8zm0 48h8v8h-8zm0 16h8v8h-8zm0 24h8v8h-8zm0 16h8v8h-8zm0 16h8v8h-8zm0 24h8v8h-8zm0 48h8v8h-8zm8-192h8v8h-8zm0 16h8v8h-8zm0 8h8v8h-8zm0 8h8v8h-8zm0 16h8v8h-8zm0 16h8v8h-8zm0 16h8v8h-8zm0 16h8v8h-8zm0 8h8v8h-8zm0 16h8v8h-8zm0 24h8v8h-8zm0 16h8v8h-8zm0 8h8v8h-8zm0 8h8v8h-8zm0 16h8v8h-8zm8-192h8v8h-8zm0 16h8v8h-8zm0 8h8v8h-8zm0 8h8v8h-8zm0 16h8v8h-8zm0 40h8v8h-8zm0 16h8v8h-8zm0 8h8v8h-8zm0 8h8v8h-8zm0 8h8v8h-8zm0 16h8v8h-8zm0 16h8v8h-8zm0 8h8v8h-8zm0 8h8v8h-8zm0 16h8v8h-8zm8-192h8v8h-8zm0 16h8v8h-8zm0 8h8v8h-8zm0 8h8v8h-8zm0 16h8v8h-8zm0 24h8v8h-8zm0 8h8v8h-8zm0 16h8v8h-8zm0 16h8v8h-8zm0 8h8v8h-8zm0 8h8v8h-8zm0 16h8v8h-8zm0 16h8v8h-8zm0 8h8v8h-8zm0 8h8v8h-8zm0 16h8v8h-8zm8-192h8v8h-8zm0 48h8v8h-8zm0 16h8v8h-8zm0 16h8v8h-8zm0 8h8v8h-8zm0 8h8v8h-8zm0 16h8v8h-8zm0 8h8v8h-8zm0 24h8v8h-8zm0 48h8v8h-8zm8-192h8v8h-8zm0 8h8v8h-8zm0 8h8v8h-8zm0 8h8v8h-8zm0 8h8v8h-8zm0 8h8v8h-8zm0 8h8v8h-8zm0 16h8v8h-8zm0 16h8v8h-8zm0 16h8v8h-8zm0 16h8v8h-8zm0 16h8v8h-8zm0 16h8v8h-8zm0 8h8v8h-8zm0 8h8v8h-8zm0 8h8v8h-8zm0 8h8v8h-8zm0 8h8v8h-8zm0 8h8v8h-8zm8-120h8v8h-8zm0 16h8v8h-8zm0 8h8v8h-8zm0 32h8v8h-8zm8-128h8v8h-8zm0 8h8v8h-8zm0 24h8v8h-8zm0 8h8v8h-8zm0 8h8v8h-8zm0 8h8v8h-8zm0 8h8v8h-8zm0 16h8v8h-8zm0 32h8v8h-8zm0 16h8v8h-8zm0 8h8v8h-8zm0 16h8v8h-8zm0 24h8v8h-8zm0 8h8v8h-8zm0 8h8v8h-8zm8-192h8v8h-8zm0 16h8v8h-8zm0 24h8v8h-8zm0 16h8v8h-8zm0 8h8v8h-8zm0 16h8v8h-8zm0 16h8v8h-8zm0 8h8v8h-8zm0 16h8v8h-8zm0 40h8v8h-8zm0 8h8v8h-8zm0 24h8v8h-8zm8-192h8v8h-8zm0 40h8v8h-8zm0 8h8v8h-8zm0 32h8v8h-8zm0 8h8v8h-8zm0 8h8v8h-8zm0 8h8v8h-8zm0 16h8v8h-8zm0 8h8v8h-8zm0 8h8v8h-8zm0 8h8v8h-8zm0 16h8v8h-8zm0 24h8v8h-8zm0 8h8v8h-8zm8-192h8v8h-8zm0 8h8v8h-8zm0 16h8v8h-8zm0 8h8v8h-8zm0 32h8v8h-8zm0 24h8v8h-8zm0 24h8v8h-8zm0 16h8v8h-8zm0 24h8v8h-8zm0 24h8v8h-8zm0 16h8v8h-8zm8-168h8v8h-8zm0 8h8v8h-8zm0 8h8v8h-8zm0 8h8v8h-8zm0 16h8v8h-8zm0 8h8v8h-8zm0 8h8v8h-8zm0 8h8v8h-8zm0 40h8v8h-8zm0 8h8v8h-8zm0 8h8v8h-8zm0 8h8v8h-8zm0 40h8v8h-8zm8-184h8v8h-8zm0 8h8v8h-8zm0 8h8v8h-8zm0 56h8v8h-8zm0 16h8v8h-8zm0 8h8v8h-8zm0 16h8v8h-8zm0 8h8v8h-8zm0 16h8v8h-8zm0 16h8v8h-8zm0 8h8v8h-8zm0 16h8v8h-8zm0 8h8v8h-8zm8-192h8v8h-8zm0 8h8v8h-8zm0 8h8v8h-8zm0 8h8v8h-8zm0 8h8v8h-8zm0 8h8v8h-8zm0 8h8v8h-8zm0 8h8v8h-8zm0 32h8v8h-8zm0 8h8v8h-8zm0 48h8v8h-8zm0 8h8v8h-8zm0 8h8v8h-8zm0 8h8v8h-8zm8-112h8v8h-8zm0 16h8v8h-8zm0 8h8v8h-8zm0 16h8v8h-8zm0 8h8v8h-8zm0 8h8v8h-8zm0 8h8v8h-8zm0 8h8v8h-8zm0 8h8v8h-8zm0 16h8v8h-8zm0 8h8v8h-8zm0 8h8v8h-8zm0 8h8v8h-8zm8-176h8v8h-8zm0 8h8v8h-8zm0 40h8v8h-8zm0 8h8v8h-8zm0 8h8v8h-8zm0 8h8v8h-8zm0 24h8v8h-8zm0 8h8v8h-8zm0 16h8v8h-8zm0 8h8v8h-8zm0 8h8v8h-8zm0 8h8v8h-8zm0 8h8v8h-8zm0 8h8v8h-8zm0 8h8v8h-8zm0 8h8v8h-8zm0 8h8v8h-8zm0 8h8v8h-8zm8-128h8v8h-8zm0 40h8v8h-8zm0 8h8v8h-8zm0 16h8v8h-8zm0 32h8v8h-8zm0 8h8v8h-8zm0 8h8v8h-8zm0 8h8v8h-8zm8-184h8v8H3zm0 8h8v8H3zm0 8h8v8H3zm0 8h8v8H3zm0 8h8v8H3zm0 8h8v8H3zm0 8h8v8H3zm0 16h8v8H3zm0 8h8v8H3zm0 16h8v8H3zm0 8h8v8H3zm0 8h8v8H3zm0 8h8v8H3zm0 8h8v8H3zm0 8h8v8H3zm0 16h8v8H3zm0 16h8v8H3zm0 24h8v8H3zm8-184h8v8h-8zm0 48h8v8h-8zm0 16h8v8h-8zm0 16h8v8h-8zm0 8h8v8h-8zm0 16h8v8h-8zm0 24h8v8h-8zm0 32h8v8h-8zm0 24h8v8h-8zm8-184h8v8h-8zm0 16h8v8h-8zm0 8h8v8h-8zm0 8h8v8h-8zm0 16h8v8h-8zm0 16h8v8h-8zm0 64h8v8h-8zm0 8h8v8h-8zm0 8h8v8h-8zm0 8h8v8h-8zm0 8h8v8h-8zm0 8h8v8h-8zm0 8h8v8h-8zm0 8h8v8h-8zm8-184h8v8h-8zm0 16h8v8h-8zm0 8h8v8h-8zm0 8h8v8h-8zm0 16h8v8h-8zm0 24h8v8h-8zm0 8h8v8h-8zm0 8h8v8h-8zm0 24h8v8h-8zm0 32h8v8h-8zm0 16h8v8h-8zm0 8h8v8h-8zm0 24h8v8h-8zm8-192h8v8h-8zm0 16h8v8h-8zm0 8h8v8h-8zm0 8h8v8h-8zm0 16h8v8h-8zm0 32h8v8h-8zm0 32h8v8h-8zm0 24h8v8h-8zm0 32h8v8h-8zm8-168h8v8h-8zm0 48h8v8h-8zm0 16h8v8h-8zm0 8h8v8h-8zm0 32h8v8h-8zm0 24h8v8h-8zm0 40h8v8h-8zm0 8h8v8h-8zm8-176h8v8h-8zm0 8h8v8h-8zm0 8h8v8h-8zm0 8h8v8h-8zm0 8h8v8h-8zm0 8h8v8h-8zm0 8h8v8h-8zm0 16h8v8h-8zm0 8h8v8h-8zm0 8h8v8h-8zm0 16h8v8h-8zm0 8h8v8h-8zm0 8h8v8h-8zm0 24h8v8h-8zm0 8h8v8h-8zm0 16h8v8h-8zm0 16h8v8h-8zm0 16h8v8h-8z"/></symbol><symbol viewBox="0 0 665.6 71" id="snapshotz"><path d="M1.3 59.2C.2 58.7 0 58.3 0 56.8c0-3.8.3-8 .3-9.1.1-1 .3-1.8.8-1.8.6 0 .7.6.7 1.2 0 .9.3 2.4.6 3.6 1.5 5.2 5.7 7.1 10 7.1 6.3 0 9.4-4.3 9.4-8 0-3.4-1-6.6-6.8-11.2L11.8 36C4.1 30 1.5 25.1 1.5 19.4c0-7.7 6.4-13.2 16.1-13.2 4.5 0 7.5.7 9.3 1.2.6.1 1 .3 1 .8 0 .9-.3 2.9-.3 8.4 0 1.5-.2 2.1-.8 2.1-.5 0-.7-.4-.7-1.3 0-.6-.4-2.8-1.8-4.6-1-1.3-3.1-3.4-7.6-3.4-5.2 0-8.3 3-8.3 7.2 0 3.2 1.6 5.7 7.4 10.1l2 1.5c8.4 6.4 11.5 11.2 11.5 17.8 0 4-1.5 8.9-6.6 12.2-3.5 2.2-7.4 2.9-11.1 2.9-4.1-.1-7.3-.6-10.3-1.9m44.9-31.5h.2c1.2 1 7.7 8.2 14.4 14.7 6.4 6.2 14.1 13.5 17.9 17.1.6.6 1.5 1.3 2.5 1.3.5 0 1-.6 1-1.9l.7-37.4c.1-3.3.6-4.4 2.2-4.9.8-.2 1.3-.2 1.9-.2.7 0 1-.3 1-.6 0-.5-.6-.6-1.4-.6-3 0-5.3.1-6 .1-1.3 0-4.6-.1-7.8-.1-.9 0-1.5.1-1.5.6 0 .3.2.6 1 .6s2.3 0 3.2.4c1.5.6 2 1.6 2.1 5.2l.6 26.4h-.3c-.9-.8-9.1-9.2-13.3-13.3-8.9-8.9-18.1-18.3-18.9-19.1-1-1-1.9-2-2.7-2-.6 0-1.1.8-1.1 2l-.6 35.2c-.1 5.2-.3 6.8-1.9 7.2-.8.2-2 .3-2.8.3-.6 0-1 .3-1 .6 0 .6.6.6 1.4.6 3.1 0 6.1-.2 6.6-.2 1.1 0 4 .2 8 .2.8 0 1.4-.1 1.4-.6 0-.3-.3-.6-1.1-.6-1 0-2.2-.1-3.2-.4-1.2-.4-2-1.8-2.1-6.4l-.4-24.2zm72.7 17.4c.3 0 .5.1.6.4l4.7 11.9c.3.7-.1 1.3-.6 1.3-.6.1-.8.3-.8.6 0 .4.7.4 1.8.5 5.2.1 9.6.1 11.8.1 2.3 0 2.7-.1 2.7-.6 0-.4-.3-.6-.8-.6-.7 0-1.4-.1-2.3-.2-1.1-.2-2.9-1-5.2-6.4-3.9-9-14.2-33.3-15.6-36.6-.6-1.3-.9-1.9-1.8-1.9-.6 0-1.1.7-1.8 2.4L95.5 53.4c-1.3 3-2.3 4.8-5.1 5.2-.6 0-1.3.1-1.8.1s-.7.3-.7.6c0 .5.3.6 1.1.6 3.2 0 6.5-.2 7.1-.2 2 0 4.8.2 6.8.2.6 0 1-.1 1-.6 0-.3-.1-.6-.9-.6h-.9c-1.9 0-2.4-.6-2.4-1.7 0-.7.3-2.2.9-3.6l3.3-8c.1-.3.2-.4.6-.4h14.4zm-13.2-3.3c-.2 0-.4-.1-.2-.4l5.9-15c.1-.2.1-.6.4-.6.1 0 .2.3.3.6l5.8 15.1c.1.2 0 .4-.3.4h-11.9zm40.2 1c0 5.4 0 10.1-.3 12.6-.2 1.7-.6 2.9-1.8 3.1-.6.1-1.3.2-2.2.2-.8 0-1 .3-1 .6 0 .4.4.6 1.2.6 2.4 0 6.4-.2 7.8-.2 1.6 0 5.9.2 10.1.2.6 0 1.1-.2 1.1-.6 0-.3-.3-.6-1-.6-.9 0-2.2-.1-3.1-.2-1.8-.3-2.2-1.4-2.4-3.1-.3-2.6-.3-7.3-.3-12.7V19.2c0-.6.1-1 .5-1.1.6-.2 1.7-.3 2.7-.3 1.4 0 3.9.3 6.1 2.2 3.4 2.9 3.6 6.8 3.6 8.8 0 6.1-4.8 9.6-8.2 9.6-1.3 0-2 .3-2 .8 0 .4.4.6.8.6.3.1 1.5.1 1.8.1 8.7 0 15.4-6 15.4-14.4 0-3.2-1.7-5.9-3.1-7.1-1-.8-3.8-3.4-11.5-3.4-2.8 0-7.7.1-10.2.1-1.7 0-5.7-.1-8.9-.1-.9 0-1.4.1-1.4.6 0 .4.4.6 1 .6.9 0 2 .1 2.4.2 2 .6 2.5 1.2 2.7 3.2.1 1.9.1 3.6.1 12.6v10.6zm38.6 16.4c2.7 1.2 6.4 1.5 10 1.5 3.3 0 7.3-.3 10.3-2.4 4.5-3.1 6.1-6.7 6.1-11.1 0-5.4-2.5-9.9-10.6-14.4l-2.5-1.4c-5.5-3.1-6.5-5.2-6.5-7.8 0-4 4-6.4 8.4-6.4 4 0 5.9 1.7 6.8 2.8 1.3 1.5 1.6 3.4 1.6 3.9 0 .7.2 1 .6 1 .5 0 .8-.6.8-1.9 0-4.7.2-6.4.2-7.1 0-.4-.3-.6-.8-.8-1.6-.4-4.7-1-8.7-1-8.5 0-15.5 4.7-15.5 11.9 0 5.2 2.4 9.2 9.6 13.5l3.6 2.1c5.4 3.2 6.1 5.8 6.1 8.4 0 4.2-3.2 7.5-8.5 7.5-3.8 0-8.5-1.5-9.8-5.9-.3-1.1-.6-2.3-.6-3.1 0-.4-.1-1-.6-1s-.8.6-.8 1.5c-.1 1-.4 4.7-.4 7.9 0 1.6.2 1.9 1.2 2.3m48.3-24.8c-.2 0-.4-.1-.4-.4v-1.3c0-9 0-11.2.1-13.1.1-2.1.6-2.9 2.3-3.2.7-.1 1.3-.2 1.7-.2.8 0 1.1-.2 1.1-.6 0-.4-.4-.6-1.3-.6-2.4 0-6.7.1-8.2.1-1.7 0-5.7-.1-9-.1-.8 0-1.3.1-1.3.6 0 .4.4.6 1 .6.9 0 2 .1 2.4.2 2 .6 2.5 1.2 2.7 3.2.1 1.9.1 3.6.1 12.6v10.5c0 5.4 0 10.1-.3 12.6-.2 1.7-.6 2.9-1.8 3.1-.6.1-1.3.2-2.2.2-.8 0-1 .4-1 .6 0 .4.4.6 1.2.6 2.4 0 6.5-.2 7.9-.2 1.7 0 6 .2 10 .2.8 0 1.3-.2 1.3-.6 0-.3-.3-.6-1-.6-.9 0-2.3-.1-3.1-.2-1.8-.3-2.2-1.4-2.4-3.1-.3-2.6-.4-7.1-.4-12.6v-4.5c0-.3.2-.3.4-.3H256c.1 0 .4.1.4.3v4.5c0 5.4 0 10-.3 12.5-.2 1.7-.6 2.9-1.8 3.1-.6.1-1.3.2-2.2.2-.7 0-1 .4-1 .6 0 .4.5.6 1.3.6 2.4 0 6.7-.2 8.1-.2 1.7 0 5.7.2 9.7.2.8 0 1.3-.2 1.3-.6 0-.3-.4-.6-1-.6-1 0-2.3-.1-3.1-.2-1.9-.3-2.2-1.4-2.4-3.1-.3-2.6-.3-7.3-.3-12.7V32.3c0-9 0-10.7.1-12.6.1-2.1.6-2.9 2.2-3.2.8-.1 1.3-.2 1.8-.2.7 0 1.1-.2 1.1-.6 0-.4-.4-.6-1.3-.6-2.4 0-6.4.1-7.9.1-1.6 0-5.9-.1-9.2-.1-.9 0-1.3.1-1.3.6 0 .4.3.6 1 .6.8 0 1.9.1 2.4.2 2 .6 2.5 1.2 2.7 3.2.1 1.9.1 4.1.1 13.1V34c0 .4-.2.4-.4.4h-23.2zm123 8.4c0 5.4 0 10.1-.3 12.6-.2 1.7-.6 2.9-1.8 3.1-.5.1-1.3.2-2.2.2-.8 0-1 .4-1 .6 0 .4.4.6 1.2.6 2.4 0 6.6-.2 8-.2 1.7 0 5.9.2 9.9.2.7 0 1.2-.2 1.2-.6 0-.3-.3-.6-1-.6-.9 0-2.3-.1-3.1-.2-1.8-.3-2.2-1.4-2.4-3.1-.3-2.6-.3-7.3-.3-12.7v-24l7.7.1c5.5.1 7.1 1.9 7.3 3.4l.1.6c.1.9.2 1.2.7 1.2.3 0 .5-.4.6-1 0-1.5.1-5.9.1-7.2 0-.9-.1-1.3-.5-1.3-.2 0-.7.1-1.7.3-.9.1-2.2.3-4.2.3h-24.9c-2 0-4.3-.1-6.1-.3-1.5-.2-2.2-.7-2.7-.7-.3 0-.6.3-.7 1.1-.1.5-1.3 6.2-1.3 7.2 0 .6.1 1 .6 1 .4 0 .6-.3.7-.8.1-.4.4-1.2 1-2 .9-1.3 2.4-1.7 5.9-1.8l9.1-.2v24.2zm40 13.4c8.7-12.5 17.9-26 26.4-39.4.2-.4.3-.6.3-1.1 0-.3-.4-.5-1-.5h-18.9c-2.5 0-5.4.1-11.3-.1-1.5-.1-1.9-.4-2.4-.4-.3 0-.6.3-.7 1.1-.3 1.8-1.3 7.2-1.3 8.6 0 .7.2 1 .6 1 .4 0 .6-.2.8-1 .1-1.4 1.3-3.4 3.3-4.5 2-1 5.6-1 8.7-1h11.6C403.6 31 394.7 44.4 386 57.4c-.7 1.1-.8 1.4-.8 1.7 0 .4.3.6 1 .6 12.4 0 22.8.3 33.1.3 1.1 0 1.5-.5 1.9-1.5.4-1.5 1.2-5.3 1.2-7.3 0-1.4-.1-1.8-.6-1.8-.4 0-.6.3-.7 1-.2.8-.6 1.8-1.1 2.7-1 1.8-3.2 3.1-9.5 3.1h-14.7zM467 31.3c0-5.2-1.3-9.2-4-12.2-2.6-2.9-6.5-4.4-11.4-4.4-3.4 0-6.5.7-9.2 2.2-2.7 1.4-5.1 3.4-6.9 5.9-1.9 2.5-3.4 5.5-4.4 8.8-1 3.3-1.5 6.9-1.5 10.6 0 5.2 1.3 9.3 4 12.3 2.6 3 6.5 4.5 11.4 4.5 3.5 0 6.5-.7 9.1-2.1 2.6-1.4 4.9-3.3 6.9-5.9 1.9-2.4 3.4-5.4 4.4-8.8 1.1-3.3 1.6-7 1.6-10.9M453.1 45c-.8 1.6-1.8 2.8-3 3.7-1.2.9-2.4 1.3-3.7 1.3-1.8 0-3.1-.6-4.2-1.8-1-1.2-1.5-3.3-1.5-6.1 0-2.4.2-4.8.7-7.1.5-2.3 1.1-4.2 1.9-5.8.9-1.7 1.9-3 3-3.9 1.1-.9 2.5-1.4 4-1.4 1.9 0 3.4.7 4.2 2.1.9 1.4 1.3 3.3 1.3 5.9 0 2.9-.2 5.4-.7 7.5-.4 1.9-1.1 3.8-2 5.6m56.2-19.5c0-3.4-.8-6.1-2.5-7.9-1.7-1.8-4-2.7-7-2.7-2.2 0-4.2.5-6 1.5-1.8 1-3.8 2.4-6 4.2l.9-4.6H478l-7.7 41.7H481l5.4-29.5c1.4-.9 2.6-1.6 3.7-2.1s2.1-.7 2.9-.7c1.7 0 2.9.4 3.6 1.1.7.7 1 1.9 1 3.5 0 .9-.1 2-.2 3-.2 1.1-.4 2.4-.7 3.9L493 57.7h10.8l5-27.1c.2-.9.3-1.8.4-2.7.1-.9.1-1.7.1-2.4M524.2 0l-10.7 57.7h10.8L535 0h-10.8zm17.9 16.1l-7.7 41.7h10.8l7.7-41.7h-10.8zM544.7 0l-1.9 10.1h11.3l2-10.1h-11.4zm49.5 25.5c0-3.4-.8-6.1-2.5-7.9-1.7-1.8-4-2.7-7-2.7-2.2 0-4.2.5-6 1.5-1.8 1-3.8 2.4-6 4.2l.9-4.6h-10.8l-7.7 41.7h10.7l5.4-29.5c1.4-.9 2.6-1.6 3.7-2.1s2.1-.7 2.9-.7c1.7 0 2.9.4 3.6 1.1.7.7 1 1.9 1 3.5 0 .9-.1 2-.2 3-.2 1.1-.4 2.4-.6 3.9l-3.8 20.7h10.8l5-27.1c.2-.9.3-1.8.4-2.7.1-.8.2-1.6.2-2.3m23 33.4c2.6 0 5-.3 7.3-.9 2.3-.6 4.5-1.4 6.6-2.6l2-10.7h-1.2c-1.6 1.2-3.4 2.3-5.5 3.3s-4.3 1.5-6.6 1.5c-3.3 0-5.8-.8-7.5-2.5-1.6-1.6-2.4-3.9-2.4-6.8v-.8h24.8c.4-1.6.8-3.2 1-4.8.3-1.6.4-3.3.4-4.9 0-4.9-1.3-8.6-3.8-11.1s-6.3-3.8-11.2-3.8c-3.3 0-6.3.7-9 2-2.7 1.4-5 3.2-6.8 5.5-1.9 2.4-3.4 5.2-4.4 8.4-1 3.2-1.5 6.6-1.5 10.4 0 5.5 1.5 9.9 4.6 13 3.1 3.2 7.5 4.8 13.2 4.8m-6.3-27.3c.8-2.7 1.9-4.7 3.4-6.2s3.3-2.2 5.6-2.2c1.8 0 3.2.5 4.2 1.6 1 1 1.5 2.5 1.5 4.5v1.2c0 .4-.1.8-.1 1.2h-14.6zm-268.7 3.8V38h-7.9c-.2 3.1-.9 6.1-2 8.8-2 4.7-5.3 8.6-9.4 11.4-3.8 2.6-8.3 4.2-13.2 4.4V71H307v-8.4c-3.1-.2-6.1-.9-8.8-2-4.7-2-8.6-5.3-11.4-9.4-2.6-3.8-4.2-8.3-4.4-13.2h-7.9v-2.6h7.9c.2-3.1.9-6.1 2-8.8 2-4.7 5.3-8.6 9.4-11.4 3.8-2.6 8.3-4.2 13.2-4.4V2.4h2.6v8.4c3.1.2 6.1.9 8.8 2 4.7 2 8.6 5.3 11.4 9.4 2.6 3.8 4.2 8.3 4.4 13.2h8zM326.4 38h-6.2v-2.6h6.2c-.1-2-.6-4-1.4-5.7-1.4-3.2-3.7-6-6.6-8-2.6-1.7-5.6-2.8-8.8-3v5.8H307v-5.8c-2 .1-3.9.6-5.7 1.4-3.2 1.4-6 3.7-8 6.6-1.7 2.6-2.8 5.5-3 8.8h6.2V38h-6.2c.1 2 .6 4 1.4 5.7 1.4 3.2 3.7 6 6.6 8 2.6 1.7 5.6 2.8 8.8 3V49h2.6v5.8c2-.1 4-.6 5.7-1.4 3.2-1.4 6-3.7 8-6.6 1.6-2.6 2.7-5.6 3-8.8zM311 36.7c0 1.5-1.2 2.7-2.7 2.7-1.5 0-2.7-1.2-2.7-2.7 0-1.5 1.2-2.7 2.7-2.7 1.5 0 2.7 1.2 2.7 2.7zm353.3-21.5c0 3-1.2 5.7-3.2 7.6-2 2-4.7 3.2-7.6 3.2-3 0-5.7-1.2-7.6-3.2-2-2-3.2-4.7-3.2-7.6 0-3 1.2-5.7 3.2-7.6 2-2 4.7-3.2 7.6-3.2 3 0 5.7 1.2 7.6 3.2 2 1.9 3.2 4.6 3.2 7.6h1.4c0-6.7-5.4-12.1-12.1-12.1-6.7 0-12.1 5.4-12.1 12.1 0 6.7 5.4 12.1 12.1 12.1 6.7 0 12.1-5.4 12.1-12.1h-1.4zm-15.5 7.3h1.9v-6.3h1.8c1.7.1 2.5.8 2.9 2.8.4 1.8.7 3 1 3.5h1.9c-.3-.6-.6-2-1.1-4-.3-1.5-1-2.5-2.1-2.9v-.1c1.5-.5 2.7-1.8 2.7-3.7 0-1.1-.4-2.1-1.1-2.8-.9-.8-2.2-1.2-4.2-1.2-1.3 0-2.6.1-3.6.3v14.4zm1.8-13c.3-.1.9-.2 1.8-.2 2 0 3.3.8 3.3 2.7 0 1.7-1.3 2.8-3.3 2.8h-1.9V9.5z"/></symbol><symbol viewBox="0 0 129.271 20.029" id="superette"><path d="M6.964 5.075c-.135-1.673-1.025-2.16-1.78-2.16-1.08 0-1.675.702-1.675 1.917 0 3.32 6.8 4.913 6.8 10.204 0 3.212-2.16 4.994-5.29 4.994-3.11 0-4.89-2.483-5.02-5.398l3.18-.46c.13 1.97.92 2.943 2 2.943 1.16 0 1.94-.62 1.94-1.78 0-3.86-6.8-4.887-6.8-10.475C.32 1.758 2.21 0 5.5 0c2.73 0 4.35 1.97 4.647 4.724l-3.19.35zM15.55.27h3.35v14.71c0 1.432.567 2.133 1.78 2.133 1.216 0 1.783-.702 1.783-2.132V.27h3.348v14.576c0 3.347-1.94 5.183-5.13 5.183-3.18 0-5.12-1.84-5.12-5.19V.27zm16.2 19.49V.27h4.806c4.13 0 6.046 1.593 6.046 5.75s-1.917 5.75-6.046 5.75h-1.458v7.99H31.75zM35.1 9.015h1.294c2.187 0 2.86-.675 2.86-2.996s-.674-3-2.86-3H35.1v5.99zM47.95 19.76V.27h8.962v2.915h-5.614v5.02h4.32v2.916h-4.32v5.73h5.992v2.92h-9.34zm18.036 0H62.64V.27h4.696c3.752 0 5.668 1.593 5.668 5.75 0 3.13-1.215 4.4-2.35 4.913l2.835 8.827h-3.41l-2.38-8.07c-.43.053-1.137.08-1.73.08v7.99zm0-10.744h1.188c1.81 0 2.483-.675 2.483-2.996s-.675-2.996-2.483-2.996h-1.188v5.992zM78.84 19.76V.27h8.96v2.915h-5.614v5.02h4.32v2.916h-4.32v5.73h5.992v2.92h-9.34zM95.47 3.185h-3.24V.27h9.826v2.915h-3.24V19.76H95.47V3.184zm13.203 0h-3.24V.27h9.827v2.915h-3.24V19.76h-3.346V3.184zm11.26 16.575V.27h8.96v2.915h-5.614v5.02h4.31v2.916h-4.32v5.73h5.99v2.92h-9.34z"/></symbol><symbol viewBox="-.792 -.792 208.741 27.991" id="tencent"><path d="M.938 0L0 3.656h8.688L5.5 16.406l-2.344 9.407h5.688l2.344-9.407 3.187-12.75h8.656L23.94 0h-23zm173.625.28c-.463 1.9-.888 3.384-1.313 4.657h-2.125l.688-.437c1.185-.77 1.768-1.164 1.78-1.22-.632-1.427-1.167-2.414-1.655-2.905-.014-.09-.917.463-2.657 1.594l-.59.37c.02.02.09.13.22.31.61.79 1.13 1.54 1.53 2.28h-1.75l-.56 2.62h3.94l-.28.53-.28.53h-4.25l-.53 2.62h2.94a14.545 14.545 0 0 1-4.47 3.68l2.75-13.13h-7.59l-2.84 13.57c-.07.35-.16.69-.25 1.03-.66 2.62-1.64 4.98-2.97 7.06.81.71 1.46 1.47 2 2.28 1.6-2.27 2.85-5.18 3.79-8.75h1.66l-.94 4.44c-.08.6-.69.88-1.81.78.23 1.08.33 2.17.25 3.31 2.7-.02 4.07-.63 4.12-1.88l1.53-7.25.1-.5c.17.17.33.33.47.5.364.43.65.85.84 1.28.415-.21.91-.52 1.47-1l-1 3.25h9.09l-.153.84c-.36 1.752-.864 2.61-1.5 2.5l.5-2.5h-9.75l-.56 2.59h7.937c.45.98.65 1.98.56 3.03 2.53-.08 4.084-.47 4.687-1.19.19-.21.39-.57.593-1.19.41-1.232.9-3.05 1.5-5.43l.34-1.37h-3.377l.188-.814.25-1.25c.6.52 1.14.93 1.6 1.25.34.23.643.41.906.53l.44-.53c.87-1.06 1.696-1.94 2.47-2.66-2.04-.58-3.53-1.414-4.47-2.5h4.47l.53-2.626H175c.215-.313.415-.65.56-1.06h6.627l.53-2.625h-2.37c1.04-1.01 1.95-1.845 2.784-2.5L180.31.72a38.554 38.554 0 0 1-2.907 3.31l1.688 1.032h-2.4l.35-1.093.44-1.1c.37-.92.67-1.62.88-2.07.02-.18-.1-.27-.47-.31-.7-.11-1.8-.19-3.31-.22zm16.812.22c-.848.28-2.165.795-4 1.563A30.645 30.645 0 0 1 188.655 7c.65-.246 2.057-.73 4.19-1.5-.89-3.2-1.4-4.874-1.47-5zm3.094 1.406l-.66 3.032h2.5l-1.19 5.656H192l-.656 3.03h3.156l-.594 2.782L192 25.438h3.5l1.875-9.032.594-2.78h2.5l-.5 2.28c-.04.17-.07.334-.1.5-.64 3.352-.31 5.973.97 7.844.78 1.11 1.72 1.577 2.84 1.406 1.16.06 2.32-1.816 3.47-5.625-1.04-.47-2-.88-2.85-1.25-.57 1.75-.92 2.32-1.07 1.69-.23-.89-.18-2.24.12-4.06.1-.58.22-1.22.37-1.9l2.66-12.6h-11.93zm-51.91.313l-1.19 4.81h-4.57l-.88 3.56h16.69l-10.06-8.37zm20.12 2.28h1.65l-.78 3.72h-1.63l.75-3.72zm37.09.43h2.62l-1.19 5.65h-2.63l1.18-5.66zM30.47 5.96c-3.47 0-6.476.91-9.032 2.72-2.543 1.84-4.194 4.25-4.938 7.22-.044.178-.09.33-.125.5-.57 2.76-.065 5.01 1.53 6.72 1.702 1.8 4.327 2.69 7.876 2.69 6.05 0 10.69-3.69 11.16-4.093l-2.62-.6c-.62.14-3.98 1.112-7.34.81-4.24-.38-5.2-3.49-4.97-5.03h17.03l.16-.5.13-.53c.77-3.1.37-5.537-1.22-7.28-1.59-1.76-4.12-2.62-7.62-2.62zm50.468 0c-3.65 0-6.95.95-9.938 2.88-2.994 1.93-4.83 4.32-5.53 7.127-.04.15-.096.28-.126.43-.524 2.6.17 4.8 2.062 6.59 2.008 1.877 4.85 2.813 8.53 2.813 2.233 0 4.574-.464 7.033-1.376l1.43-5.72c-1.64 1.26-3.01 2.096-4.1 2.532a9.73 9.73 0 0 1-3.66.686c-2.07 0-3.64-.555-4.69-1.688-.94-1.02-1.27-2.318-1-3.847.03-.166.08-.324.12-.5.43-1.72 1.47-3.17 3.12-4.31 1.65-1.143 3.52-1.72 5.59-1.72 1.31 0 2.38.225 3.25.688.88.45 1.8 1.294 2.75 2.5l1.43-5.78c-1.87-.885-3.97-1.31-6.32-1.31zm20.593 0c-3.46 0-6.47.91-9.03 2.72-2.54 1.84-4.19 4.25-4.93 7.22-.04.178-.09.33-.12.5-.57 2.76-.07 5.01 1.53 6.72 1.7 1.8 4.33 2.69 7.88 2.69 6.05 0 10.69-3.69 11.16-4.093l-2.62-.6c-.62.14-3.98 1.112-7.34.81-4.24-.38-5.21-3.49-4.97-5.03h17.03l.16-.5.13-.53c.78-3.1.39-5.537-1.19-7.28-1.59-1.766-4.15-2.628-7.65-2.628zm-44.31.54c-2.41 0-4.76.745-7.06 2.25l-5.09-1.72-2.34 9.376-2.35 9.407h5.53l2.25-9.063.09-.344c.58-2.16 1.35-3.7 2.28-4.593 1.01-.95 2.4-1.407 4.22-1.407 1.68 0 2.77.34 3.22 1.063.47.7.46 1.99 0 3.84l-.25 1.09-2.38 9.4h5.53l2.35-9.4.53-2.13c.67-2.65.48-4.55-.56-5.72C61.99 7.18 60 6.5 57.23 6.5zm70.6 0c-2.41 0-4.76.745-7.06 2.25l-5.09-1.72-2.34 9.376-2.34 9.407h5.53l2.25-9.063c.03-.116.06-.24.09-.344.57-2.16 1.34-3.7 2.28-4.593 1-.95 2.39-1.407 4.22-1.407 1.67 0 2.76.34 3.22 1.063.47.7.46 1.99 0 3.84l-.28 1.09-2.35 9.4h5.53l2.34-9.41.53-2.13c.67-2.65.48-4.55-.56-5.72-1.2-1.38-3.2-2.06-5.97-2.06zm56.16 1.97l-.66 3.06h3.09l-1.03 4.876-.66 3.25c-.14.68-.69 1.39-1.62 2.157-.27.227-.44.373-.47.437.35 1.076.96 2.126 1.82 3.094.07.017.43-.305 1.06-.938.94-.996 3.33-3.192 7.19-6.593-.01-.044-.22-.5-.62-1.344l-.03-.07-.56-1.25-.63.53c-.3.26-.59.51-.84.72-.68.58-1.19 1.01-1.53 1.28l.28-1.28 1.65-7.94h-6.44zM29.59 9.874c2.932 0 4.5 1.153 4.687 3.47H23.25a6.282 6.282 0 0 1 1.125-1.44c.446-.42.95-.797 1.5-1.092a7.35 7.35 0 0 1 1.78-.688c.63-.168 1.27-.25 1.94-.25zm71.062 0c2.933 0 4.503 1.153 4.688 3.47H94.31a6.39 6.39 0 0 1 1.124-1.44c.448-.42.956-.797 1.5-1.092a7.43 7.43 0 0 1 1.78-.688c.63-.168 1.27-.25 1.938-.25zm60.72.938H163l-.72 3.468h-1.624l.72-3.467zm11.968.437h.97c.127.37.306.74.53 1.09h-2.375l.436-.57.44-.53zm-33.063.15l-1.25 5-2.375 9.4h5.5l2.375-9.41 1.25-5h-5.5zm29.69 3.4h3.904l-.31 1.59-.21.9h-2.68c.1-.34.19-.64.28-.91.11-.31.19-.58.29-.81-.13-.08-.21-.13-.28-.13h-1.62l.66-.66z"/></symbol><symbol viewBox="0 0 881.4 271.6" id="theliquoriceland"><path d="M586.2 269.5c2.8-.3 4.7-.8 5.7-1.7 1-.9 1.5-2.5 1.5-5v-44c0-2-.2-3.4-.5-4.1-.6-1.3-1.8-1.9-3.7-1.9-.4 0-.9 0-1.4.1s-1.1.2-1.9.4v-1.5c4.1-1.1 8.9-2.5 14.6-4.3.2 0 .3.1.4.3 0 .2.1.6.1 1.2v54c0 2.6.5 4.3 1.4 5.1.9.8 2.8 1.3 5.6 1.5v1.3h-21.8v-1.4zm33.7-18.6c2.8-1.8 8.3-4.3 16.5-7.3v-3.8c0-3.1-.3-5.2-.9-6.4-1-2-3.1-3-6.4-3-1.5 0-3 .4-4.4 1.2-1.4.8-2.1 1.9-2.1 3.3 0 .4.1 1 .2 1.8.1.9.2 1.4.2 1.6 0 1.7-.6 2.9-1.7 3.5-.6.4-1.4.6-2.3.6-1.4 0-2.4-.4-3.1-1.3-.7-.9-1.1-1.9-1.1-3 0-2.1 1.3-4.3 3.9-6.6 2.6-2.3 6.4-3.4 11.4-3.4 5.8 0 9.8 1.9 11.9 5.7 1.1 2.1 1.7 5.1 1.7 9.1V261c0 1.7.1 2.9.4 3.6.4 1.2 1.2 1.8 2.4 1.8.7 0 1.3-.1 1.7-.3.5-.2 1.2-.7 2.3-1.5v2.3c-1 1.2-2 2.1-3.1 2.9-1.7 1.1-3.4 1.7-5.1 1.7-2 0-3.5-.7-4.4-2-.9-1.3-1.4-2.9-1.5-4.7-2.3 2-4.2 3.5-5.9 4.4-2.7 1.6-5.3 2.4-7.8 2.4-2.6 0-4.8-.9-6.7-2.7-1.9-1.8-2.8-4.1-2.8-6.9.2-4.6 2.4-8.2 6.7-11.1zm16.6-5.1c-3.5 1.1-6.3 2.4-8.6 3.8-4.3 2.7-6.5 5.7-6.5 9.1 0 2.7.9 4.7 2.7 6 1.2.8 2.5 1.3 3.9 1.3 2 0 3.9-.6 5.7-1.7 1.8-1.1 2.7-2.5 2.7-4.2v-14.3zm16.1 23.7c2.1-.3 3.6-.8 4.5-1.6.9-.8 1.3-2.6 1.3-5.3v-22.9c0-1.9-.2-3.2-.5-4-.6-1.1-1.7-1.7-3.5-1.7h-.8c-.3 0-.6.1-1.1.1v-1.6c1.2-.4 4.1-1.3 8.7-2.8l4.2-1.4c.2 0 .3.1.4.2s.1.4.1.6v6.6c2.8-2.6 4.9-4.4 6.5-5.3 2.3-1.5 4.8-2.2 7.3-2.2 2 0 3.9.6 5.6 1.8 3.2 2.3 4.9 6.4 4.9 12.2v21c0 2.2.4 3.7 1.3 4.7s2.3 1.5 4.3 1.5v1.3h-19.2v-1.3c2.2-.3 3.7-.9 4.6-1.8.9-.9 1.3-2.9 1.3-6v-19.2c0-2.6-.5-4.7-1.4-6.4-1-1.7-2.7-2.5-5.3-2.5-1.8 0-3.6.6-5.4 1.8-1 .7-2.3 1.8-3.9 3.4v25.2c0 2.2.5 3.6 1.4 4.3 1 .7 2.5 1.1 4.6 1.2v1.3h-19.7v-1.2zm72.4-39.9c1.2.6 2.4 1.5 3.5 2.6v-14.3c0-1.8-.2-3.1-.6-3.8-.4-.7-1.4-1-2.9-1h-.9l-1.8.2v-1.5l3.7-.9c1.4-.4 2.7-.7 4.1-1.1 1.4-.4 2.5-.8 3.6-1.1.5-.1 1.3-.4 2.4-.9l.3.1-.1 4.7c0 1.7-.1 3.5-.1 5.3v5.4l-.1 36.8c0 2 .2 3.3.7 4.1s1.8 1.2 3.8 1.2h1c.3 0 .7-.1 1-.1v1.5c-.2.1-2.4.8-6.5 2.3l-7.1 2.7-.3-.4v-5.5c-1.7 1.8-3.1 3.1-4.4 3.9-2.2 1.4-4.7 2-7.6 2-5.1 0-9.2-2-12.4-5.9s-4.8-8.5-4.8-13.7c0-6.5 1.9-12.1 5.7-16.8 3.8-4.7 8.5-7 13.9-7 2.1-.2 4.1.2 5.9 1.2zm1.3 35.1c1.4-1.4 2.2-2.7 2.2-3.9v-19.3c0-3.9-1-6.7-3.1-8.3-2.1-1.6-4.1-2.4-6.1-2.4-3.8 0-6.7 1.7-8.8 5-2.1 3.4-3.2 7.5-3.2 12.4 0 4.8 1.1 9.1 3.4 12.9 2.2 3.8 5.6 5.7 10 5.7 2.3-.1 4.2-.8 5.6-2.1zm-347.6-83c-2.4 2.4-4.4 4.8-6.8 6.9-6 5.4-12.8 9.3-20.8 11-4.7 1-9.4.8-14.1.4-4.9-.4-9.6-1.6-14.1-3.4-8.6-3.5-15.1-9.3-20-17.1-4.4-7-6.7-14.7-7.5-22.9-.8-9-.2-17.9 2.1-26.7 2.3-9 5.9-17.5 10.5-25.5 1.7-2.9 3.2-5.9 4.7-8.8.6-1.1.5-1.4-.7-2-2.5-1.2-5-2.4-7.5-3.5-.5-.2-1.3-.1-1.9.1-3 1.4-6 2.9-9 4.4-2.4 1.3-3.8 3.4-4.7 5.8-.7 1.9-.9 3.9-1.3 5.9-.1.7 0 1.4 0 2.2v102.8c0 1.2 0 2.5.1 3.7.4 3.9 1.9 7.3 4.9 10 .8.7 1.5 1.4 2.2 2.2 2.1 2.5 1.3 5.4-1.6 6.8-3.5 1.6-7 3.2-10.4 5-4.4 2.3-8.3 5.5-12.2 8.6-.9.7-1.7 1.4-2.6 2.1-1.2.9-2.6 1.6-4.2 1.5-3.2-.3-4.8-3.3-3.4-6.6.8-2 1.7-4 2.3-6 2-6.2 3.1-12.6 3.1-19.1v-32c0-.6 0-1.3-.4-2.1-.6.7-1.3 1.4-1.9 2-.7.7-1.5 1.3-2.2 1.9-6.6 5.9-14.4 9.1-23.2 10.2-6.3.8-12.5.4-18.7-1.4-6.6-1.9-12.4-5.3-17.4-10-11.1-10.6-17.6-23.6-20.4-38.6-.8-4.1-1-8.2-1.2-12.3-.3-6.9.2-13.7 1.9-20.4 2.6-10.5 7.2-20.1 14.4-28.3 6.9-7.8 14.9-13.9 25-17.1 4.3-1.4 8.8-2.1 13.3-2.1 4.3-.1 8.5.2 12.7 1.1 6.8 1.6 12.5 5 17.6 9.5 1.5 1.3 2.8 2.8 4.1 4.3 1.2 1.3 1.3 1.3 2.4-.1 3.9-5.1 8.5-9.4 14-12.8.5-.3 1-.6 1.6-.8 2.6-.9 4.3-.3 6.1 1.8 2.6 3.1 5.3 6 7.9 9 .8.9 1.5 1.1 2.7.7 3-.9 6.1-1.5 9.1-2.4 3-1 6.1-2.1 9-3.4 3-1.4 5.9-3.1 8.9-4.6 1.1-.6 2.2-1.1 3.4-1.6 3.3-1.3 6 2.1 5.3 4.7-.4 1.4-1 2.7-1.8 3.9-5.2 6.9-9.9 14.2-13.7 22-4.8 9.9-8 20.2-9 31.2-1 10-.5 19.9 3.2 29.4 2.7 7 6.6 13.1 13.1 17.2 3.9 2.4 8.1 3.8 12.8 3.8 10.1.2 18.4-3.7 25.6-10.6 2.2-2.1 4.1-4.4 5.4-7.2.4-.9.7-2 .7-3 0-23.5 0-47 .1-70.6 0-2.9-.9-5-3.2-6.7-1.2-.9-2.3-1.9-3.4-2.9-.4-.4-.8-.8-1.2-1.3-1.9-2.8-.3-6.4 3-6.6 2.7-.2 5.4 0 8 .1 3.1.1 6.1.2 9.2.3h2.8c3.1-.2 6.3-.3 9.4-.6 2.4-.2 4.2.5 5 2.2.9 1.8.5 4.1-1.3 5.7-1.3 1.2-2.7 2.3-4.1 3.4-2 1.5-2.9 3.4-2.9 6.1.1 23.2 0 46.4.1 69.6 0 4.1.5 8.2 2.5 12 1.1 2 2.4 3.8 4.2 5.1 1.8 1.2 3.6 2.4 5.3 3.7 1.9 1.4 2.6 3.3 1.9 5.3-.3.9-1 1.9-1.7 2.5-3.6 2.8-6.8 6-9.5 9.6-1.4 1.9-3.8 2.4-6 1-2.2-1.3-4.2-2.9-6.1-4.6-3.8-3.4-7-7.5-9.1-12.2 0-.3-.2-.5-.4-.8zm-112.5-51.5V109c0-2.6-.3-5.2-1.2-7.7-2.7-7.6-8.2-12.5-15.3-15.7-4.7-2.1-9.7-2.7-14.8-2.4-7.2.3-13.5 2.8-18.8 7.8-6.4 6.2-10.4 13.7-12.3 22.4-1.5 6.5-1.9 13-1.3 19.7.5 6 1.3 11.8 3.2 17.5 2.7 8.3 6.8 15.9 13.3 21.9 4.2 3.9 9.2 6.5 14.8 7.7 3.9.9 7.8 1.1 11.7.3 2.5-.5 5.1-1.2 7.4-2.4 6.6-3.4 10.1-9.3 11.9-16.3 1-3.9 1.4-7.9 1.3-11.9 0-6.6.1-13.2.1-19.7zm505.4 34.3c-2.2 9.6-7.8 16.7-14.8 22.9-5.6 4.9-11.9 8.6-19 10.8-7.5 2.3-15.1 2.9-22.9 2.3-5.3-.5-10.5-1.3-15.6-2.9-8.1-2.5-15.2-6.5-21.4-12.4-4.6-4.4-8.5-9.3-11.4-14.9-2.7-5.1-4.5-10.6-5.7-16.3-1.6-7.5-2.1-15-1.7-22.7.4-7.5 2.3-14.6 5.2-21.5 4-9.5 10.2-17.5 17.8-24.4 9.7-8.8 21.1-14.3 34.2-15.8 8.6-1 17.1-.7 25.4 2.2 6.8 2.4 12.8 6.2 17.4 11.7 6.1 7.4 7.8 15.9 5.8 25.1-2 9.2-7.1 16.1-15.8 20.1-9.8 4.5-23.7 2.9-31.7-6.9-5.1-6.2-6.5-14.8-1.4-22.9 2-3.1 4.3-5.9 7.8-7.5.8-.4 1.6-.6 2.4-.8 3.4-.7 6 1.9 5.2 5.3-.3 1.3-.7 2.5-1.1 3.8-1.4 5.6.5 8.7 6.1 10 4.9 1.2 9.6-1.2 11.5-5.9 1-2.6 1.3-5.3.9-8.1-.6-4.7-3.4-8-7.3-10.4-6.8-4.1-14.3-5.2-22.1-4.5-4.4.4-8.6 1.4-12.7 3.2-5.9 2.5-10.6 6.6-14.5 11.4-7.2 8.7-10.8 18.9-11.9 30.1-.6 6.6-.6 13.2.8 19.7 1.7 7.5 4.9 14.2 9.9 20.1 4.3 5.2 9.4 9.4 15.6 12.2 4.8 2.1 9.7 3.5 15 3.6 5.9.1 11.8-.1 17.5-1.6 5.8-1.5 10.7-4.5 15.1-8.5 1.7-1.6 3.3-3.2 4.9-4.9.9-.9 1.6-1.9 2.4-2.9l1.5-1.8c1.8-2.2 4.1-2.7 6.7-1.4h.5c-.1-.4-.1-.7-.2-1.1-2.3-5.2-3.4-10.6-3.9-16.2-.2-2.6-.4-5.2-.4-7.8-.1-6.8.9-13.4 2.9-19.9 2.2-7 5.2-13.6 9.4-19.6 5.3-7.6 11.7-14.1 19.8-18.8 6.3-3.7 13.1-6.2 20.4-7.2 8.8-1.2 17.5-.6 26 2.3 2 .7 3.9 1.5 5.8 2.4 3.4 1.6 6.8 3.4 10.3 4.9 1.2.5 2.6.8 4 .9 2.1.1 4.2 0 6.3 0 2.3 0 3.4.6 4.1 2.4.7 1.7.1 3.6-1.5 4.9-.8.6-1.7 1.2-2.5 1.9-4 3.1-7.2 6.8-10.5 10.6-8 9.3-15.5 19-22.7 28.9-9.9 13.4-19.3 27.1-28.5 41-.2.3-.4.6-.5.8-.5.8-.4 1.5.5 1.9 2.5 1.3 4.9 2.8 7.4 4 4.1 1.9 8.4 3.4 12.9 4.1 4.4.6 8.7 1 13.1.4 2.5-.4 4.9-.7 7.3-1.2 5.6-1.2 10.3-4.2 14.4-8.1 3.2-3 6.1-6.3 8.6-9.9 1.2-1.8 3-2.6 5.1-2.3 2.6.4 4.4 2.9 3.9 5.7-.3 2-.9 4-1.6 5.8-1.3 3.3-3.1 6.4-5.5 9.1-7.5 8.7-16.6 15-27.5 18.4-4 1.3-8.1 1.9-12.3 2.2-6.8.4-13.5-.2-20.1-1.5-6.4-1.3-12.3-3.9-17.9-7.3-.4-.2-.8-.5-1.1-.8-.7-.6-1.3-.4-1.8.3-2.5 3.6-4.8 7.3-6.4 11.5-.4 1.1-.7 2.2-.3 3.5.2.7.6 1.1 1.3 1.3 1.3.3 2.5.1 3.7-.2 3.5-1 5.9 1.1 5.2 4.7-1 5.1-5.3 10.7-11.8 11.3-3.6.3-6.9-.8-9.5-3.4-2.4-2.5-3.7-5.5-3.9-9-.3-4.8 1.4-9 3.6-13.1 2.4-4.4 5.1-8.5 7.6-12.8 1.3-2.3 1.3-2.4-.4-4.4-4.1-4.7-7.6-9.8-10.4-15.5-.6-.1-.7-.3-1-.6zm11.6-34.9c.3 1.8.6 5.3 1.3 8.7 1.4 7 4.5 13.2 8.3 19.2 1.1 1.6 2.3 3.2 3.5 4.8.8 1 1.2.9 2 0 .1-.2.2-.3.3-.5 6.1-8.9 12.1-17.9 18.3-26.8 4.7-6.8 9.5-13.5 14.2-20.3 2.5-3.6 4.9-7.1 7.1-10.9 1.2-2.1 2-4.4 2.6-6.7.8-3.4.2-6.6-2.7-8.9-1.6-1.3-3.5-2.4-5.3-3.2-2.8-1.2-5.7-1.7-8.8-2.1-6.2-.7-12.2.1-17.8 2.8-8.2 4-13.6 10.7-17.6 18.7-3.8 7.4-5.2 15.4-5.4 25.2zM33.7 173.4c2.4-.7 4.3-1.2 6.3-1.8 3.8-1.2 7.8-1.8 11.8-2 2.3-.1 4.6.2 6.8.6 9.5 1.6 18.5 4.7 27.5 7.9 4.9 1.7 9.8 3.1 15.1 3.3 3 .1 5.9.1 8.8-.6 9.4-2.2 16.9-10.6 17.4-20.8.2-4.6.3-9.3-.8-13.9-1.5-6.2-4.4-11.6-9.6-15.5-3-2.2-6.4-3.4-10.1-3.4-2.3 0-4.7.1-7 .5-2.5.4-4.7 1.6-6.5 3.5-2.1 2.2-2.8 6.9-1.6 9.6.8 1.9 3.3 3.1 5.4 2.6 1.3-.3 2.5-.8 3.7-1.2 3-1.1 4.8.1 5 3.4.2 3.9-1.5 6.8-4.4 9.2-7.4 6.1-19.3 5.8-26.2-.6-3.4-3.2-5.4-7.2-6.3-11.7-1.2-6.3-.2-12.2 3.3-17.7 1.6-2.6 3.8-4.7 6.2-6.5 6.2-4.5 13.1-6.7 20.7-6.9 4.8-.1 9.4.4 14 1.8 6.6 2.1 12.1 5.8 16.7 10.9 5.8 6.4 9.3 13.9 10.7 22.4 1.6 9.9.9 19.6-3.7 28.6-7.1 13.9-18.4 22.3-33.9 25-9.1 1.6-17.9.4-26.6-2.2-7.7-2.3-15.4-4.7-23.1-6.9-3-.8-6.1-1.6-9.2-1.7-6.7-.2-13.4.4-19 4.8-1 .8-1.9 1.8-2.8 2.7-.6.6-1.2 1.2-1.9 1.7-2 1.4-4 1-5.5-1-.6-.8-1.1-1.6-1.6-2.4-2.1-3.3-5-5.3-8.7-6.3-.9-.2-1.8-.5-2.6-.9-1.9-.9-2.4-3.1-1.1-4.8.5-.7 1.2-1.2 1.9-1.7 2.5-2 5.1-3.9 7.4-6.2 5.2-5.3 9.3-11.3 11.5-18.5.9-2.9 1.4-5.9 1.7-8.8.4-3.5.4-7.1.4-10.6 0-33.7 0-67.5.1-101.2 0-2.8-1-4.7-3.1-6.3-1.5-1.1-3-2.3-4.5-3.5-1.7-1.4-2.2-3.1-1.6-4.9.6-1.7 2.1-2.9 4.2-3 2.1 0 4.2.1 6.3.2 6 .3 12 .9 18 .2 2.7-.3 5.3-.3 8-.5h1c1.7.2 3.1.7 3.8 2.4.6 1.6.5 3.3-.7 4.6-.7.8-1.6 1.6-2.4 2.3-1.2 1-2.4 1.8-3.6 2.7-1.7 1.2-2.5 2.8-2.5 5 .1 18.9 0 37.7 0 56.6 0 13-.1 25.9 0 38.9.1 14.8-4 28.4-11.8 40.9-.6.3-.8.8-1.3 1.7zm584.8-88c4-4 9.2-5.6 13.6-8.6 3.4-2.3 6.8-4.6 10.3-6.9 1.1-.7 2.1-1.6 3.3-2.2 3.2-1.7 6.1.1 5.9 3.7-.2 2.3-.6 4.5-.9 6.8-.3 3.5-.7 6.9-.7 10.4-.1 30.5 0 61.1-.1 91.6 0 1.9.7 3.3 2.1 4.4 1.1.8 2.2 1.7 3.2 2.6.8.7 1.6 1.4 2.2 2.2 2 2.7.9 6.1-2.3 6.8-2 .5-4.2.4-6.2.3-5.8-.4-11.6-1-17.4-.3-1.6.2-3.3.4-4.9.4-1.4 0-2.8-.1-4.1-.5-2.8-.8-3.7-3.7-2.2-6.2 1.1-1.7 2.7-2.8 4.2-4.1.2-.2.5-.4.8-.6 2.1-1.6 3.1-3.6 3.1-6.5-.1-26.2-.1-52.4-.1-78.6 0-1.5-.2-3-.4-4.5-.2-1.8-1.2-2.8-2.9-3.3-2-.6-3.9-1.5-5.9-2.4-.2 1.3-.3 2.7-.5 4.1-1.1 6.1-4.1 10.7-9.8 13.3-3.3 1.5-6.9 1.5-10.4 1.1-2.6-.3-5.1-1-7.5-2.3-1.5-.9-2.7-2-3.5-3.6-1.4-2.6.2-5.4 3.1-5.8.8-.1 1.6-.1 2.3-.2 3-.6 4.6-2.4 4.8-5 .2-2.8-1.3-5.1-3.9-6.2-4.1-1.6-8.2-1.6-12.3-.4-3.7 1.1-6.8 3.3-9.7 5.8-4 3.6-7.2 7.8-9.7 12.5-1 2-1.5 4-1.5 6.2v69.2c0 2.5.6 4.4 2.7 5.9 1.2.8 2.3 1.9 3.5 2.9.7.6 1.3 1.3 1.8 2.1 1.7 2.6.5 5.9-2.5 6.6-2 .4-4.2.4-6.2.3-5.9-.4-11.9-1-17.8-.3-1.7.2-3.4.4-5.1.4-1.2 0-2.4-.1-3.5-.4-2.7-.8-3.8-3.6-2.3-6 .7-1.1 1.6-2.1 2.5-3 1.3-1.2 2.7-2.3 4-3.4 1.1-1 1.5-2.2 1.5-3.7 0-23.5-.1-47-.1-70.6 0-2.9-.3-5.8-1.3-8.5-1.1-3.3-3-5.9-6.1-7.6-2.7-1.5-5.4-2.9-8.2-4.3-3.1-1.6-3.7-4.1-1.3-6.6 1.8-1.9 3.7-3.5 5.5-5.3 1.3-1.3 2.4-2.7 3.6-4.1.5-.5.9-1.1 1.4-1.6 1.6-1.5 3.4-1.7 5.4-.8.2.1.4.2.5.3 6 4 11.6 8.5 15.6 14.7.7 1.1 1.3 2.4 2.1 3.8.5-.6.9-1 1.2-1.4 4.7-6.6 10.6-11.7 17.9-15.2 4.9-2.4 10.1-3.6 15.6-3.6 3.7 0 7.3 0 10.9.9 6.9 1.7 12.1 5.5 15.3 11.9.6 1 .9 2.2 1.4 3.4z"/><path d="M470.1 69.3c6.5-.4 13.1.7 19.5 2.5 7.7 2.2 14.5 6 20.7 11 5.9 4.8 11 10.4 15.1 16.9 5.1 8.1 8.3 16.9 9.4 26.4.4 3.4.7 6.9.7 10.4-.3 15.1-5.1 28.5-14.9 40-7.5 8.8-16.4 15.6-27.2 19.8-5.7 2.2-11.6 3.5-17.7 4-9.3.8-18.4-.2-27.3-3.1-7.9-2.6-14.9-6.7-21.2-12.1-7.2-6.1-12.9-13.4-17-21.9-3.2-6.7-5.1-13.7-5.9-21.1-.8-6.5-.6-13.1.6-19.6 2.1-10.7 6.4-20.5 13.5-28.9 7.5-8.9 16.3-16 27.3-20.3 7.7-2.8 15.7-4.4 24.4-4zM420.3 125c-.1 6 .9 11.8 2.9 17.4 2.5 7.3 6.5 13.7 11.6 19.4 6.2 7 13.3 12.8 21.7 16.9 8.8 4.3 18 5.9 27.7 4.6 14-1.9 24.2-9.4 30.7-21.8 2.7-5.1 3.5-10.7 4-16.3.9-11.1-2.2-21.1-8.6-30.2-4-5.8-8.8-10.9-14.3-15.3-11.4-9.4-24.3-14.8-39.4-13.5-5.9.5-11.5 2-16.5 5.1-12.5 7.8-19.8 18.6-19.8 33.7zm-250 9.1v45.6c0 1.9.4 3.3 1.9 4.5 1.3 1.1 2.6 2.1 3.9 3.3.8.7 1.5 1.5 2 2.4 1.8 2.9.6 5.8-2.7 6.5-1.8.4-3.8.4-5.7.2-5.2-.4-10.3-.8-15.5-.6-2.2.1-4.4.4-6.6.6-1.8.2-3.5.1-5.2-.6-2.4-1.1-3.2-3.6-1.7-5.7.9-1.3 2.1-2.5 3.3-3.6 1.2-1.2 2.4-2.2 3.6-3.3.7-.7 1-1.5 1-2.5V99.4c0-1.4-.2-2.7-.4-4.1-.2-1.5-1.1-2.5-2.6-2.9-1.1-.3-2.3-.7-3.3-1.2-.8-.4-1.7-.8-2.3-1.4-1.7-1.8-1.4-4.3.9-6.1 1.1-.9 2.4-1.6 3.7-2.3 7-3.7 13.6-7.8 19.9-12.6.6-.4 1.2-.8 1.8-1.1 1.5-.7 2.9-.8 4.3.2s1.8 2.5 1.5 4.2c-.4 2.3-.7 4.7-1 7-.7 5.5-.8 11.1-.8 16.7v38.3zm-9-107.3c7.4-.6 13.3 6.7 13.3 13.6 0 7.1-5.5 13.4-14 13.5-8 0-13.5-6.1-13.5-13.7.1-7.5 6.4-13.7 14.2-13.4zm479.5 0c7.1-.5 13.2 5.8 13.4 13.5.1 7.9-6.4 13.4-13.9 13.6-7.4.1-13.6-6.2-13.5-13.7 0-7.1 6.3-13.8 14-13.4zm-422.6-7.9v2.9h-8.1l-.1 22.8c0 2 .2 3.5.5 4.6.6 1.8 1.9 2.7 3.7 2.7 1 0 1.8-.2 2.5-.7.7-.5 1.5-1.2 2.4-2.1l1 .9-.9 1.2c-1.4 1.9-2.8 3.2-4.4 3.9-1.5.8-3 1.2-4.5 1.2-3.1 0-5.3-1.4-6.4-4.2-.6-1.5-.9-3.6-.9-6.3V21.7h-4.3c-.1-.1-.2-.2-.3-.2-.1-.1-.1-.2-.1-.3 0-.3.1-.5.2-.6.1-.1.5-.5 1.1-1 1.8-1.5 3.1-2.7 4-3.7.8-.9 2.7-3.4 5.7-7.5.3 0 .6 0 .6.1.1.1.1.3.1.6v9.8h8.2zm2.6 35.5c2.2-.3 3.6-.8 4.3-1.6.7-.8 1-2.6 1-5.6V9.1c0-1.5-.2-2.6-.6-3.3-.4-.7-1.3-1.1-2.8-1.1-.3 0-.6 0-.9.1-.3 0-.6.1-.9.1V3.5c1.2-.3 2.6-.8 4.3-1.3 1.7-.5 2.9-.8 3.6-1.1l3.8-1.2.1.3v24.4c1.7-1.9 3.2-3.3 4.5-4.2 2.3-1.6 4.9-2.4 7.6-2.4 4.3 0 7.2 1.8 8.8 5.4.8 1.9 1.3 4.4 1.3 7.5v16.2c0 2.8.3 4.6 1 5.5.6.8 2 1.4 4 1.7v1.1h-17.2v-1.1c2.3-.3 3.8-.9 4.5-1.6.7-.8 1-2.6 1-5.5v-16c0-2.6-.4-4.7-1.3-6.2-.9-1.6-2.5-2.4-4.9-2.4-2.1 0-4.1.7-6 2.2-1.9 1.5-2.9 2.5-2.9 2.9v19.6c0 3 .3 4.8 1 5.6.7.7 2.2 1.3 4.4 1.6v1.1H221v-1.2zm68.6-32.3c2.8 2.6 4.2 6.3 4.2 11h-25.3c.3 6.1 1.7 10.6 4.2 13.4 2.5 2.8 5.5 4.2 9 4.2 2.8 0 5.1-.7 7-2.2 1.9-1.5 3.7-3.5 5.3-6.2l1.4.5c-1.1 3.4-3.1 6.5-6.1 9.4s-6.6 4.3-11 4.3c-5 0-8.8-1.9-11.6-5.7-2.7-3.8-4.1-8.1-4.1-13 0-5.3 1.6-9.9 4.7-13.8 3.2-3.9 7.3-5.8 12.3-5.8 3.9 0 7.2 1.3 10 3.9zm-19.1 3c-.8 1.4-1.5 3.2-1.8 5.4h16.8c-.3-2.7-.8-4.6-1.5-5.9-1.3-2.3-3.5-3.5-6.5-3.5-3.1 0-5.4 1.4-7 4z"/></symbol><symbol viewBox="0 0 150 49" id="trishpeng"><path d="M94.96 3.075C93.57 1.505 91.72.73 89.46.772c-3.145.06-7.526 1.52-11.666 3.18V3.06c.014-.098.036-.27.036-.525 0-.472-.083-1.13-.465-1.66-.316-.442-.784-.722-1.355-.81-.58-.088-1.142.118-1.587.58-.782.814-1.196 2.386-1.196 4.327 0 .283.028.59.046.886-.73.32-1.428.63-2.085.922l-3.86 1.653c-3.364 1.26-6.31 1.557-7.686.773-.5-.284-.795-.714-.902-1.313-.345-1.936 2.946-3.508 4.927-4.198.466.206 1.143.3 1.89.215 1.318-.147 2.33-.773 2.26-1.398-.07-.626-1.194-1.01-2.513-.864-.74.083-1.378.32-1.787.62-1.764.573-6.755 2.506-6.155 5.87.18 1.005.728 1.795 1.587 2.284 2.52 1.44 7.04.004 8.87-.68l3.93-1.682c.52-.238 1.09-.49 1.67-.74.04.273.07.544.12.83.34 1.764.88 4.514 2.84 6.62v29.88c-.27.436-.45 1.123-.45 1.902 0 1.326.51 2.402 1.133 2.402.63 0 1.14-1.075 1.14-2.402 0-.754-.17-1.418-.425-1.86v-28.73c1.902 1.3 4.693 2.08 8.887 1.675 4.484-.435 9.943-2.22 10.486-8.27l.016-.184c.09-.655-.228-3.846-2.23-6.113zM74.626 4.97c0-1.662.336-2.867.806-3.356.185-.193.31-.174.364-.165.256.04.364.14.43.23.16.22.203.57.203.85 0 .15-.02.28-.03.36l-.01.05v1.57c-.6.25-1.18.493-1.76.74 0-.097-.02-.206-.02-.3zm.298 2.913c-.077-.398-.123-.77-.17-1.14.54-.235 1.078-.467 1.64-.702v6.35c-.767-1.37-1.167-2.95-1.47-4.5zM95.8 8.99l-.026.254c-.367 4.09-3.47 6.447-9.226 7.002-4.452.43-7.083-.524-8.754-2.11V5.462c4.17-1.7 8.62-3.235 11.69-3.293 1.814-.04 3.29.56 4.39 1.79 1.66 1.84 1.983 4.58 1.927 5.03zM4.463 39.75h-.806V27.844H.382v-.755h7.355v.75H4.463v11.91zm17.715 0h-.923l-4.13-5.995h-.404v5.995h-.8V27.09h1.58c1.03 0 2.03.015 2.89.637.91.638 1.28 1.646 1.28 2.72 0 2.2-1.53 3.342-3.62 3.31l4.147 5.993zM17.745 33c.79 0 1.578-.034 2.217-.59.605-.485.89-1.24.89-1.997 0-.94-.437-1.88-1.343-2.284-.68-.32-1.53-.29-2.27-.29h-.52v5.15h1.02zm13.887 6.75h-.806V27.09h.806v12.66zM46.93 29.17c-.572-.905-1.378-1.493-2.57-1.493-1.36 0-2.384 1.09-2.384 2.418 0 1.326 1.26 1.88 2.284 2.368l2.418 1.26c.957.604 1.444 1.376 1.444 2.518 0 2.1-1.914 3.68-3.963 3.68-1.77 0-3.14-1.09-3.73-2.72l.7-.32c.53 1.35 1.53 2.29 3.05 2.29 1.66 0 3.12-1.31 3.12-2.99 0-1.42-1.46-2.03-2.55-2.57l-2.28-1.21c-.84-.52-1.31-1.26-1.31-2.26 0-1.88 1.34-3.206 3.24-3.206 1.273 0 2.482.688 3.09 1.78l-.57.47zm18.486 3.292V27.09h.806v12.66h-.806v-6.532h-7.69v6.532h-.806V27.09h.806v5.372h7.69zm22.39 7.288H87V27.09h2.233c.99 0 1.948.066 2.737.738.772.654 1.143 1.612 1.143 2.602 0 .907-.353 1.915-1.06 2.502-.772.672-1.83.806-2.82.806h-1.426v6.012zm1.46-6.767c.824 0 1.562-.1 2.217-.69.554-.503.823-1.158.823-1.896 0-.79-.32-1.58-.957-2.05-.64-.486-1.45-.503-2.22-.503H87.8v5.14h1.46zm13.182-5.14v4.6h5.104v.758h-5.104V39h5.24v.756h-6.046V27.09h6.045v.754h-5.24zm25.86 12.327l-10.63-11.3v10.88h-.806V26.92L127.5 38.14V27.09h.806v13.08zm21.307-6.516c.034 1.596-.2 2.99-1.326 4.214-1.21 1.31-3.03 2.05-4.81 2.05-3.51 0-6.5-2.957-6.5-6.45 0-3.627 2.97-6.548 6.6-6.548 2.3 0 4.16 1.142 5.49 2.955l-.66.52c-1.13-1.68-2.84-2.72-4.89-2.72-3.09 0-5.745 2.704-5.745 5.744 0 3.12 2.59 5.74 5.745 5.74 1.36 0 2.687-.56 3.728-1.4 1.093-.93 1.495-1.98 1.546-3.36h-4.534v-.76h5.34z"/></symbol><symbol viewBox="0 0 564 97.2" id="uestc"><path d="M373.3 86.8c-9.7 2.5-19.5 4.7-29.5 1.4-2.1-.7-4.3-3-5-5.1-1.3-3.6-3.3-3.6-6.1-2.7-5.8 1.9-11.6 2.6-17.7 1.7-9.1-1.3-9.3-1.4-8.5-10.5.3-3.1 1.1-6.2 2-9.2.2-.7 1.4-1.2 2.1-1.7.4.7 1 1.3 1.3 2 .8 2 1.2 4.2 2.3 6 1.9 3.2 5.7 4.5 9 3.6 2.3-.6 2.8-1.9.9-3.4-1.9-1.6-4-3.1-6.2-4.1-3.4-1.6-5.5-3.5-3.8-7.7.4-1.1.1-2.5.1-4.4-6.1 5.4-11.1 10.6-10.2 19 .1 1.1-.2 2.3-.4 3.5-1 5.8-2.3 6.6-7.4 3.7-2.4-1.3-3.8-.1-5.5.7-5.7 2.7-8.8 1.1-9.6-5-.3-2.3.2-3.6 2.5-4.6 4.5-2 7.9-5.4 10.3-9.8 4.5-8.5 3.2-15.4-5.2-22.7 2.7-.6 4.9-1.3 7-1.3 3 0 4.1-1.3 4.4-4.1.5-3.6 1.2-7.2 2.1-10.8.6-2.5 1.7-4.8 5.1-4.4 3.3.3 5.1 2.3 5.6 5.4.7 4.4-.1 8.6-2.4 12.5-1.7 3-3.2 6.2-4.6 9.4-.2.5.3 1.4.4 2.1.7-.3 1.6-.4 2-.9.8-.9 1.2-2 1.8-2.9 2.6-3.8 5.8-6.8 10.5-7.8 1.5-.3 2.9-.9 4.3-1.3 3.4-.9 4.8-3.1 5-6.5.3-5 .7-10 1.4-14.9.2-1.2 1.4-2.3 2.1-3.5 1 1 2.6 1.9 2.8 3.1.7 3.7.9 7.6 1.5 11.3.2 1.4.9 2.7 1.4 4 1.5-.6 3.2-.8 4.3-1.7 2.2-1.8 3.9-4 5.9-6 1.9-1.9 3-.8 3.5 1.2 1.4 5.1-2.7 13.2-7.7 15.4-2.4 1.1-4.9 2.1-7.1 3.5-.9.5-1.1 2.2-1.5 3.3 1.2.2 2.4.7 3.5.5 7-1.6 7.6-1.2 8.3 6.1.5 5.5.5 11-1.6 16.2-.9 2.2-.5 3.8 1.3 5.3 7 5.9 13.9 11.9 23.2 14 .8.2 1.5.7 2.2 1 0 .1-.1.6-.1 1.1zm-57.9-38.4c1.9.5 3.6 1.3 5.3 1.4 1 0 2.5-.9 3.1-1.8.5-.8.5-2.6-.1-3.1-1.5-1.4-3.4-2.3-5.2-3.4-.8 1.5-1.7 3-2.5 4.5-.3.7-.3 1.5-.6 2.4zm24.3 6.3c-4.1.2-6.2 1.9-6.4 5.3 0 .8.5 2.3 1 2.4.9.2 2.6-.2 2.9-.8 1.1-2.1 1.7-4.5 2.5-6.9zm186.6 42.4h-.5c-6.3.8-10.2-1.4-12-8-.7-2.6-3.3-4.8-5.2-7.1-1.4-1.7-3.4-2.9-4.3-4.8-.7-1.5-.7-3.8-.2-5.5.8-2.5 2.7-.9 4.2-.5 10.7 3 18.3-.1 23.8-9.8.3-.6.9-1.2.9-1.8 0-1.9-.1-3.8-.2-5.7-1.7.6-3.9.8-5.1 2-2.1 2-3.7 4.7-5.6 7-.7.8-2.1 1.8-2.7 1.6-1-.4-2.1-1.6-2.4-2.7-1.5-4.7 1.7-10.2 7.6-13.1 2.4-1.2 5-2 7.3-3.3 1.3-.7 2.2-2.2 3.3-3.3-1.5-.2-3.2-.9-4.4-.5-4 1.5-7.9 3.5-11.8 5.3-1.5.7-2.9 1.8-4.5 2-4 .6-7.1 2.1-9 6-1 2.2-3.2 3.4-5.8 2.3-2.6-1.1-4-3.1-3.4-5.9.8-3.6 1.7-7.1 2.8-10.6.4-1.1 1.5-2.5 2.5-2.8 11.7-4.2 23.2-9.3 36.1-7.8 2.9.3 5.8 1.5 8.4 2.9 4.6 2.6 5.3 7 1.4 10.7-3.1 3-4.6 6.3-4.4 10.6.1 1.2-.6 2.5-1.1 3.7-.7 1.7-1.8 3.2-2.3 5-.5 2-.4 4.1-.6 6.2 1.8-.4 3.7-.7 5.5-1.3 4.5-1.6 10.1.3 12.4 4.4 1.7 3 1.2 4.8-2.1 5.6-2.2.6-4.6.6-6.9.8-4.9.5-6.8 2.3-7.4 7.2-.2 1.3-.2 2.7-.5 4-1.2 5-4 7.2-9.2 7-1.6.1-3.1.2-4.6.2zM524 87c1.4-.2 2.4-.2 3.3-.5 2.2-.8 3.8-2.2 2.9-4.8-.8-2.5-2.8-2.5-4.8-2.1-1.7.4-3.5 1.1-5 2-2.2 1.3-2.1 3.3.2 4.5 1.1.6 2.5.7 3.4.9zM.9 50.1c1.4 2.6 2.5 5.3 4.1 7.8 1.9 2.9 4.4 2.7 6.3-.2 2.1-3.2 1.9-8.5-.9-11-2.1-1.9-2.4-4-1.4-6.2 1.2-2.9 2.7-5.7 4.3-8.4 1.6-2.9 3.5-5.7 5.1-8.6 3.3-6.1 4.9-12.3 1-19.4 5.2.4 8.1 3.2 9.7 7.1 1.2 3 1.8 6.4 2 9.7.2 2.6 1 4.2 3 5.8 4.1 3.3 8 7 11.9 10.6 3.3 3.1 3.3 4.6.1 7.9-3 3.1-6.6 5.7-7.4 10.3-.6 3.7-1.4 7.5-1.4 11.3-.1 4.3-1 5.8-4.9 7.4-2.4 1-4.8 2.3-6.8 3.9-1 .8-1.7 2.8-1.5 4.2.2 2.1 2.1 2.9 4.1 2.6 4.6-.6 9.2-1.4 13.8-2.1 1-.2 2-.4 2.9-.6 2.7-.6 5.7-.2 5.9 2.7.2 1.9-1.6 5.1-3.3 5.9-3.7 1.7-7.8 2.3-11.8 3.2-1.4.3-3 .1-4.5.1-9.5 0-12.5-2.2-15.6-11.3-.4-1.1-.7-2.2-.9-3.4-.4-2.8-2.1-4.2-4.8-5C-.2 71.4-.2 71.3 0 60.9c.1-3.6 0-7.1 0-10.7.3-.1.6-.1.9-.1zM27 39.8c.3 3.3.3 5.4.7 7.5.2 1.2.9 3.1 1.7 3.2 1.3.2 3.1-.4 3.9-1.3 1.6-1.8 2.9-4 4-6.2 2.4-5.2.5-9.8-4.5-12.4-2.2-1.1-3.7-.6-4.3 1.5-.9 2.8-1.2 5.8-1.5 7.7zm1 18c-.8-.4-1.4-.7-1.9-.7-.3 0-.6.6-.8 1 .5.3.9.7 1.4.8.2 0 .6-.5 1.3-1.1zM232 0c5.4 2.2 8.6 4.6 8.2 10.7-.5 7.6 2 14.8 6.2 21.2 3.3 5.2 3.9 9.9-.6 14.9-3.5 3.9-4 9-3.1 14.2.6 3.4.1 6.4-1.7 9.5-3.7 6.4-3.6 13.7-4.5 20.8-.2 1.9-.4 3.8-.7 5.7-.5.1-.9.1-1.4.2-1-3.5-2.4-7-3-10.6-1-5.2-1.5-10.5-2.2-15.8-.3-2.1-.5-4.3-.9-6.4-.6-3.1-2.2-4.6-5.6-3.9-2.1.4-4.4.5-6.4.1-4.8-.9-6.2-5-3.3-9 1.3-1.7 2.6-3.4 3.7-5.3 1.4-2.4 3-4.7-.7-7.1-1.2-.8-1-4.2-.8-6.3.1-2.3 1.5-4.5 1.3-6.8-.2-3.3 1.3-4.5 4.2-5 .5-.1 1-.2 1.5-.2 10.2-1.3 10.2-1.3 10-11.7-.2-2.9-.2-5.9-.2-9.2zm-2.7 46.1c-.8-.6-2-1.9-3.5-2.3-1.8-.5-4.3 2.4-4.2 5.1 0 .9 1.1 2.5 2 2.6 2.5.6 5.5-1.9 5.7-5.4zm-3.4-8c1.5-2.4 3-3.7 3-5.1 0-1-2.1-3.2-2.7-3-1.4.4-3.3 1.8-3.5 3 0 1.3 1.7 2.8 3.2 5.1zm193.2-8.9v-7.5c0-3.5 2-6.2 4.6-7.8 1.3-.8 4.2-.6 5.3.4 3.7 3.7 7.3 7.6 5.9 13.8-.8 3.5-.4 7.3-.5 10.9 0 .9.5 1.8.7 2.7 1-.3 2.4-.4 3-1.1 3.7-3.9 8.2-4.9 13.2-3.9.5.1 1.1.1 1.4.3 1.5 1.1 2.9 2.4 4.3 3.6-1.4 1.5-2.5 3.6-4.3 4.4-2.9 1.2-6.1 1.4-9.2 2.2-2.2.6-4.4 1.5-6.6 2.3-2.8 1-4.1 2.8-4.3 6-.3 8.2-3.3 15.5-10.7 19.8-3.8 2.2-8.3 3.3-12.5 4.6-1.7.5-4.3 1.2-5.2-1.3-.8-2.3-1.7-4.9.4-7.1 1.7-1.8 3.6-3.5 5.3-5.3 1.7-1.9 1.3-3.3-1.2-4-2.6-.7-5.2-1.2-7.7-2-2.7-.9-5.4-2.2-4.8-5.9.6-3.8 3.2-6.2 7.1-6.3 2.3-.1 4.7.1 7 .1 5.2 0 6.8-1.2 7.6-6.5.6-4.1.7-8.3 1.1-12.4h.1zm-297.7-4.1c-.8 2.3-2.1 6.4-3.5 10.5-1 3-2.5 5.9-3.2 8.9-1.1 4.2.3 5.8 4.6 6.3 3.6.4 7.3.6 10.8 1.5 2.6.7 5.1 2.2 7.4 3.8 2 1.4 1.6 3-.8 4-.1.1-.3.1-.5.1-7.5.2-9.7 4.3-9.5 11.4.1 5.9-2.4 11.4-8.6 13.3-3.5 1.1-7.5.9-11.3.8-3.3-.1-6.5-1.2-9.8-1.6-2.2-.3-2.7-1.4-2.7-3.3 0-2.7.5-5.5-.3-7.9-1-3.4-2.8-6.7-4.7-9.8-3.2-5.6-2.2-7.7 4.3-8.1 2.7-.2 5.3-.1 8 0 2.2 0 3.3-.9 3.7-3.1 1.2-6.9 2.5-13.7 3.7-20.6.8-4.5 1.3-8.6-4.2-10.7-2.7-1-1.8-2.5-.2-4.1 2.7-2.7 5-5.9 9.7-3.7 4.3 1.8 7.2 5.7 7.1 12.3zM107 62c-.5 0-1.7.1-2.8.2-6.3.8-7.8 4.1-4.4 9.6.4.7 1 1.3 1.6 1.9 5.8 6.3 9.5 5.6 12.7-2.3 2.5-6.4.4-9.5-7.1-9.4zm103-27.4c-1.2 3.2-2 6.5-3.6 9.5-2.1 4-4.4 7.8-7 11.4-1.7 2.4-2.2 4.7-1.8 7.4.5 3.8.9 7.6 1.3 11.4.1 1.2.2 2.3.2 3.5-.2 3.2-.5 7-4 7.9-3.4.9-4.8-2.6-6.6-5 4.2-2.6 5.6-8.1 3.4-12.4-.9-1.8-1.9-1.4-3.1-.5-2.8 2.3-5.7 4.5-8.5 6.9-3.5 3-5.1 2.7-5.7-1.9-.4-2.8 0-6 .9-8.7 1.5-4.4 3.8-8.5 5.6-12.8.4-1 .4-2.2.5-3.2-1.3 0-2.6-.3-3.8 0-1.7.5-3.3 1.5-5.1 2.1-.9.3-2.5.6-2.7.3-.5-.8-.9-2.2-.6-3.2 1.3-4.6 4.5-7.6 8.6-9.9 1.7-1 3.5-2 5.4-2.5 4.4-1.1 5.4-4.3 6-8.2.8-5.1 1.4-10.3 3.1-15 1.3-3.6 4.1-6.7 6.6-9.8.6-.8 2.7-1.5 3.4-1.1 1 .7 1.9 2.3 2 3.6.1 1.6-.3 3.4-1.1 4.7-1.5 2.6-3 5.4-5.1 7.3-5.2 4.5-5.8 10-4.8 16.3.5 3.6.3 7.2.8 10.8.2 1.5.8 3.6 1.8 4 1.1.4 3.3-.5 4.2-1.5 1.8-1.9 2.9-4.4 4.4-6.6 1.2-1.9 2.5-3.7 3.8-5.6.3.3.9.5 1.5.8zm332.3-12.1c-.3-1.1-1.1-2.2-.8-2.9.8-2 2.1-3.7 3.2-5.6 2-3.8 4.2-7.5 6-11.3.9-1.8 1.5-2.7 3.6-1.6 3.6 2 7.4 3.7 9.1 7.9 1.6 4.1 0 7.6-4.2 8.9-1.6.5-3.3.4-4.9.8-2.8.8-5.5 1.7-8.3 2.6-.9.4-1.9.7-3.7 1.2zM438.7 69c7.4.1 13.2 1.9 16.5 8.3 2.8 5.4 1.2 8-4.8 7.4-2.2-.2-4.5-1.1-6.4-2.3-3.5-2.1-5.8-5.7-10-7-1.1-.3-2-2.7-2-4.1 0-.7 2.1-1.6 3.4-2 1.4-.4 2.8-.2 3.3-.3zM520 22.4c-.5 3.3-2.2 4.9-4.9 4.3-5.6-1.2-10.1-9.2-8.5-14.8.7-2.4 1.9-4.8 4.4-4.6 1.9.2 4.5 1.8 5.3 3.4 1.7 3.6 2.5 7.8 3.7 11.7zm9.3-2.6c-3.3 0-4.8-1.5-4.6-5.1.1-2.2-.1-5 2.8-5.6 2.1-.4 7.3 4.2 7.3 6.1.1 2.2-2.9 4.6-5.5 4.6z"/></symbol></svg>