<svg xmlns="http://www.w3.org/2000/svg" viewBox="0 0 683.93 671.95">
    <path d="M278.66 471.73c52 .31 94.08 45.28 94.08 100.69S333 671.63 281.67 672L.19 671.85S0 401.56 0 188.83h683.93v483H454.07V417.76h-46.21v-68l108.58.24-.22 255.37h105V254.79H62.66c0 155.66-.5 350.59-.5 350.59h214.92c16.52 0 30.55-14.83 30.55-33.12s-13.89-33.1-31.08-33.1h-109L167 350h189.6v67.75H229.8v54h48.86M81.23 32.14h.26l10.36 33.11H70.72l10.51-33.11zM67.62 0L30 104h27l6.74-18.07h35l6.34 18.07h27.09L95.35 0zm182.19 20.69h2.47c8.3 0 17.63 1.66 17.63 13s-9.33 13-17.63 13h-2.47v-26zM275 61.38c13.87-2.62 21.39-15 21.39-29.38 0-22.21-14.65-32-34-32h-38v104h25.41V64h.26l24 40h31.63L275 61.38zM396.89 0v104h55.61V81.1h-30.2V63.17h28.64v-22.9H422.3V22.9h30.2V0h-55.61m198.02 32.14h.26l10.37 33.11h-21.13l10.5-33.11zM581.3 0l-37.59 104h26.95l6.74-18.07h35l6.37 18.07h27.08L609 0z"/>
</svg>
