<svg xmlns="http://www.w3.org/2000/svg" viewBox="0 0 444.2 394.9">
  <path d="M229.6 240.5c1.9.2 3.9.5 5.8.4 12.1-.5 24.3-1.1 36.4-1.6 7.4-.3 7.7.1 8.8 8.6-2.3.2-4.5.5-6.7.5-36.2 0-72.3.1-108.5-.1-6.2 0-9.8 1.9-12.3 7.7-7.3 16.8-15.2 33.3-22.6 50.1-2.5 5.7-6.1 8.1-12.3 8.1-25-.1-50 0-75-.1-7.4 0-9.3-3.1-6.3-9.9 24.4-53.9 48.8-107.7 73.3-161.5 20.3-44.5 40.6-89 60.6-133.7 2.8-6.3 6.5-9.1 13.7-9 28.5.4 57 .2 85.5.1 5.2 0 8.6 1.9 10.7 6.5C305 58 330 109.2 350.7 162.4c.7 1.8 1.3 3.7 2 5.6-8 3.9-12 2.4-15.2-5.3-8.2-20.2-16.3-40.4-25.4-60.3 1.6 4.7 3.2 9.5 4.9 14.2 6.3 17.7 12.7 35.4 18.8 53.2 1.2 3.4 2.9 4.4 6.4 4.5 18.1.8 36.2 1.8 54.3 3 3.2.2 6.5 1.4 9.6 2.6 4.6 1.7 8.5 4.2 8.2 10-.4 5.9-5.2 6.1-9.7 7.1 6 1.4 11.8 2.7 17.5 4.2 8.1 2.1 11.4 5.2 10.7 9.7-.7 4.4-4.9 6.8-13 6.8-14.2 0-28.3-.4-42.5-.7h-4.9c-.3.6-.5 1.1-.8 1.7 1.6 1 3.1 2.6 4.8 2.8 13.7 1.4 27.5 2.5 41.3 3.8 4.1.4 8.3 1.2 12.3 2.2 3.7 1 7 3 6.7 7.5-.4 4.5-4 6-7.8 6.5-13.1 1.6-26.1 2.9-39.2 4.4-2.1.2-4.2.5-7.2.9 1.5 4.3 2.8 8 4 11.7 6.9 20.7 13.9 41.3 20.8 62 .8 2.5 1.8 5.2 1.7 7.8-.1 2.4-.9 5.6-2.5 6.8-1.7 1.2-5.6 1.3-7.2.1-3.6-2.7-7.2-6.1-9.4-10.1-7.5-13.2-14.7-26.5-21.4-40.1-7.6-15.7-14.6-31.8-21.6-47.8-1.6-3.7-3.6-5.2-7.5-4.7-2.1.3-4.3.1-6.5.2-5.1.3-10.5 1.3-12.5-5.6-.1-.2-.9-.2-1.4-.3 1.1 8.9 2.8 10.5 10.8 10.3 2.7 0 5.3-.1 8-.1 7.7-.1 9.1 1 10.7 8.4.1.6.4 1.7.2 1.9-5.1 3.3-1.1 7-.2 10.3 5.1 19.5 10.6 38.8 15.6 58.3.7 2.8.5 6-.2 8.9-1.6 6.3-8.7 8.1-12.6 2.9-3.8-5-7.1-10.5-9.7-16.2-10.4-23.3-20.5-46.6-30.4-70.1-2.2-5.1-4.5-8.3-10.5-6.7-.8.2-1.7 0-2.5.1-3.9.8-5.9-.8-6.8-4.5-.3-1.5-1.1-2.9-1.7-4.4-.4.1-.9.3-1.3.4 1.3 3.8 2.4 7.6 3.9 11.2.3.7 1.9 1.2 3 1.3 2.1.2 4.3.1 6.5.1 7.5 0 10.7 4.6 8.6 12-.4 1.5.5 3.5 1 5.2 6.9 20.5 14 41 20.8 61.5 1.3 3.9 1.9 8.1 2.3 12.2.3 3.8-.6 8.1-4.7 9-3.2.7-8.1.6-10-1.4-4.3-4.4-8.2-9.8-10.4-15.5-9.8-26.4-19-53-28.1-79.6-1.6-4.5-3.4-6.3-8.4-5.9-13.6 1.1-27.3 1.5-40.9 2.3-.9.1-1.9.3-2.8.5.3.5.3.9.4 1.3zm-3.4-55.3h28.9c7.9-.1 10.3-3.8 7.1-10.9-10.4-23.4-20.9-46.8-31.5-70.1-.8-1.8-2.7-3-4.1-4.5-1.5 1.4-3.5 2.5-4.3 4.3-10.7 23.4-21.4 46.9-31.9 70.4-3.2 7.1-.6 10.7 7.3 10.8 9.5 0 19-.1 28.5 0zm104.7 16.7c.3-.6.6-1 .5-1.2-1.1-3.7-2.4-7.3-3.4-11-.8-3.2-2.1-4-5.6-3.2-8.4 2-9.3 1.3-12-7-8.3-25.3-16.5-50.6-24.8-75.9-.8-2.5-1.9-5-2.8-7.4-.8 1.3-.8 2.3-.6 3.2 5.3 24.2 10.6 48.4 16.1 72.6.3 1.4 2.8 2.5 4.4 3.4 1.6.9 4.3.9 5 2.1 1.5 2.8 2 6.1 3.1 9.5-2.4.5-4.1.9-5.7 1.3 2.1 1.1 4.2 1.4 6.2 1.1 9.8-1.5 17.4.3 19.1 11.8-.1 0 0 .1.5.7zm-19.6 1.2c-.5.2-.9.4-1.4.7.8 3.6 2.5 7.2 2.3 10.8-.1 3 .5 3.9 3.2 4.1 5.1.2 10.3.7 15.4.6 4.2-.1 7 1.1 8.2 5.4.4 1.3 1.4 2.5 2.2 3.7-1.4-12.4-2.6-13.5-13.8-13.4-1.8 0-3.7-.2-5.5.1-4.5.7-6.7-1.3-7.8-5.5-.6-2.4-1.9-4.4-2.8-6.5zm70.3 80.9c.3-.1.6-.2.9-.4-5.6-15.9-11.2-31.9-16.9-47.7-1.2-3.4-2.5-3.6-7.2-1.1 6.5.8 7.1 5.8 8.4 10 .6 1.9-1 4.5-.2 6.2 4.8 11.1 10 22 15 33zm-116.8-79.6c0-.3-.1-.6-.1-.8-19.8 1.1-39.5 2.1-59.3 3.3-1.6.1-3.2 1.3-4.8 2 .2.6.3 1.1.5 1.7 21.2-2 42.5-4.1 63.7-6.2zm4.1-73c-.5.2-1.1.5-1.6.7 0 .3-.2.7-.1 1 5 13.7 9.9 27.5 15 41.2.3.9 1.6 1.4 2.4 2.1.6-.4 1.1-.7 1.7-1.1-5.9-14.7-11.6-29.3-17.4-43.9zm24 70.7c.5-.2 1.1-.4 1.6-.5-.9-3.1-2.1-6.2-2.6-9.4-.7-4.4-3.1-6.1-7.3-5.1-5.7 1.3-8.3-1.2-10-6.6-1.9-5.8-4.8-11.3-7.3-16.9-.5.2-1 .5-1.5.7 1.8 4.5 1.1 9.6 5.8 13.5 2.5 2.1 4.3 6.6.7 11.2 4.4 0 8.2.1 11.9 0 2.8-.1 4.3.9 5.1 3.6 1 3.2 2.4 6.3 3.6 9.5zm35.3 48.4c5.2 12.2 10.4 24.3 15.6 36.5-2.7-11.7-6.3-23.1-9.8-34.5-.9-3-2.6-3.5-5.8-2zm-46.1-46.1c-.2.1-.5.1-.7.2.6 2.2 1.3 4.4 1.6 6.7.7 4.7 2.9 6.8 7.9 6.5 5.1-.3 10.5-.2 12 6.5 0 .1.6.1 1.6.3-1.7-4.4-3.2-8.4-4.9-13-3.3 5.6-8.6 4.3-11.2 2.8-3.1-1.8-4.3-6.6-6.3-10zm79.6 19.7c-1-2.4-2.2-5.1-3-7.2-2 1.5-3.7 2.7-4.7 3.3 2.3 1.2 5 2.6 7.7 3.9zm-21.2-37.2c7.5-1.6 6.8 5.8 9.3 9.6.3-.3.6-.5.9-.8-1.3-3.5-2.6-6.9-3.9-10.5-2.4.7-4.4 1.2-6.3 1.7zM321.7 176c.5-.2 1.1-.3 1.6-.5-1.3-3.6-2.5-7.2-3.8-10.8-.3.1-.6.2-.8.3 1 3.7 2 7.4 3 11zm69.2 192.5v-19c0-3.2.9-5.8 4.7-5.7 9.5.1 19.1-.6 28.4.6 14.4 1.8 20.7 10.8 20.2 27.1-.3 12.3-8.3 21.1-21.3 22.2-9.1.8-18.3.2-27.5.2-3.5 0-4.5-2.4-4.5-5.3v-20.1zm16.3.3c.3 13-2.4 11.5 9.9 11.5 7.3 0 10.8-4 10.6-11.4-.2-8.5-4.2-11.6-14.9-11.5-5.7.1-5.7.1-5.7 9.9.1.5.1 1 .1 1.5zm-295.2.1c0 6.5-.1 13 0 19.5.1 3.9-1.6 5.9-5.6 5.9-9-.1-18 .1-26.9-.5-12.4-.9-20.3-9.6-20.6-22.1-.2-7.6 0-15.3-.1-23 0-3.5 1.3-5.1 5-5.2 11-.5 11.2-.4 11.2 10.6 0 4.8-.1 9.7 0 14.5.3 9.8 10.2 16 18.9 11.7 1-.5 1.6-2.7 1.6-4.1.1-9 .2-18 0-27-.1-4.1 1.6-5.6 5.6-5.6 10.8-.2 10.8-.3 10.8 10.5.1 4.8 0 9.8.1 14.8zm236.8 6.4v14c0 3.3-1.4 4.7-4.8 5-11.1.8-11.5.5-11.5-10.6v-34c0-3.1.5-6 4.3-6 10 .1 20-.5 29.8.8 12.1 1.6 17.6 8.2 18.6 20.5.6 8.1.4 16.3.5 24.4.1 3.4-1.7 4.6-5 4.8-10.9.7-11.3.5-11.3-10.4 0-5.2.2-10.3-.1-15.5-.6-9.1-10.6-15.1-18.7-11.2-.9.4-1.6 2.4-1.7 3.6-.1 5 0 9.8-.1 14.6.1 0 0 0 0 0zm-160-14.3c4-4.4 8.1-8.8 12.2-13.1 4.5-4.8 13.6-6.1 20.5-2.6-1.1 1.5-1.9 3-3.1 4.3-3.8 4.2-7.6 8.4-11.7 12.3-2.7 2.6-3 4.6-.6 7.6 5.1 6.4 9.8 13 14.6 19.6 2.7 3.7 2.2 4.8-2.4 5.1-.5 0-1 0-1.5.1-8 1.2-14.2-1.2-18.1-8.8-1.5-3.1-4.1-5.6-6.2-8.5-4.4 1.9-5.3 5.1-5.3 9.3 0 2.5-.7 6.9-1.6 7.1-4.1.7-8.5.4-12.7 0-.6-.1-1.4-2.5-1.4-3.8-.1-13.6 0-27.3-.1-40.9 0-3.4 1.4-4.7 4.7-4.9 10.8-.8 11.3-.5 11.3 10.3v6.8c.4-.1.9 0 1.4.1zM320 394.3c-4.5.8-8-.9-9.8-6.5-.5-1.7-3.4-3.2-5.5-3.6-2.7-.6-5.7.1-8.4-.2-5.3-.6-8.8.7-10.5 6.4-.5 1.7-3.5 3.3-5.6 3.7-2.7.6-5.7.4-8.4-.1-1-.2-2.5-2.7-2.1-3.5 6.3-14.7 12.8-29.2 19.5-43.7.6-1.4 2.7-2 4.2-3 .1-.1.3 0 .5-.1 12-1.5 13.3-.8 18.1 10.1 4.8 10.8 9.5 21.6 14.3 32.4 3.3 7.9 3.1 8.1-6.3 8.1zM298.9 359c-2 5.1-3.5 8.8-5.1 12.9h10.1c-1.7-4.3-3.1-7.9-5-12.9zm-158.8 35.9c-12.1 0-24.7-12.1-24-26.9.7-15.4 15.4-27.2 31.7-25.4 6.5.7 12.3 2.8 17.1 7.3 2.5 2.3 2.7 4.4-.3 6.4-1.3.8-2.5 1.6-3.6 2.6-2.7 2.4-5.1 2.8-8.3.2-4-3.3-9-3.5-13.6-1.2-4.1 2-5.9 5.6-6.1 10.1-.2 4.9 1.4 8.9 5.7 11.4 4.6 2.7 9.2 2.2 13.7-.6 4.7-2.9 11.5-1.6 14.2 3.2.6 1-.2 3.5-1.2 4.6-5.7 6.2-13.1 8.4-25.3 8.3zm86.6-26.1c0-6.7.1-13.3 0-20-.1-3.6 1.5-5 5-5.2 11.2-.7 11.4-.6 11.4 10.7 0 7.5.1 15 0 22.5-.1 3.2 1.1 4.5 4.3 4.4 4.7-.1 9.3.1 14 0 3.8-.1 4.5 2.3 4.3 5.2-.3 3 1.5 7.5-3.8 7.6-10.3.3-20.6.2-31 .2-3.3 0-4.2-2-4.2-4.9.1-6.9 0-13.7 0-20.5zM50.3 394.3c-4.5.9-7.2-1.5-9.4-6.4-3.5-7.7-10.9-2.5-16.5-3.8-3.2-.7-5.6.4-6.9 3.9-2.1 5.7-11.1 8.7-16.5 5.7-.7-.4-1.3-2.4-.9-3.2C6.6 375.7 13.2 361 20 346.4c.6-1.2 2.5-1.9 3.9-2.7.4-.2 1-.1 1.5-.1 12.4-.8 12.4-.8 17.4 10.5 4.7 10.6 9.4 21.3 14.1 32 3.4 7.9 3.2 8.2-6.6 8.2zm-20.8-35.4c-1.9 5.2-3.3 8.8-4.9 13.1h10.2c-1.8-4.4-3.3-8-5.3-13.1z"/>
</svg>
