<svg xmlns="http://www.w3.org/2000/svg" id="Layer_1" viewBox="293.1 -203.3 1200.9 1199.7">
  <path d="M294 196.3v400h1200v-400H294z" style="fill:#73E573;"/>
  <path d="M293.1 596.3v400h1200v-400h-1200z" style="fill:#66CBCB;"/>
  <path d="M294-203.3v400h1200v-400H294z" style="fill:#FE8080;"/>
  <path d="M1095.4 456.4H492.8c-31.9 0-58-26.1-58-58v-3.8c0-31.9 26.1-58 58-58h602.6c31.9 0 58 26.1 58 58v3.8c0 31.9-26.1 58-58 58zm197.9 400.5H492.8c-31.9 0-58-26.1-58-58v-3.8c0-31.9 26.1-58 58-58h800.5c31.9 0 58 26.1 58 58v3.8c0 31.9-26.1 58-58 58zm-106-800.4H494.6c-32.9 0-59.8-26.9-59.8-59.8s26.9-59.8 59.8-59.8h692.7c32.9 0 59.8 26.9 59.8 59.8s-26.9 59.8-59.8 59.8z" style="fill:#FFF;"/>
</svg>
