<svg xmlns="http://www.w3.org/2000/svg" viewBox="0 0 71 60">
    <g fill="#E64B07">
        <path d="M53.73-2h1.01c4.36.4 8.5 3.44 9.25 7.92 2.56 15.5 3.88 31.2 6.66 46.66-1.62-.16-3.24-.31-4.86-.44-.61-9.22 1.22-18.74-1.41-27.73-2.44-7.42-11.43-9.8-18.37-8.23-4.98.78-8.84 4.3-11.91 8.06.08-7.85.83-15.8-.6-23.58C40.26-.05 46.98-1.13 53.73-2zM5.4 5.3c3.77-1.81 8.08-1.74 12.13-2.42l.03 5.06c1.7.4 3.44.66 5.08 1.28.43 2.25.4 4.55.42 6.83-.15 15.26.01 30.52-.1 45.78-3.55-.34-7.28.16-10.68-1.13-3.48-1.37-5.54-4.93-5.97-8.52C4.42 40.06 2.42 27.97.59 15.84-.18 11.76 1.72 7.32 5.4 5.3z"/>
        <path d="M47.22 26c-4.096-.054-8.25 2.206-10.47 5.656-2.08 3.01-2.49 6.784-2.5 10.344-.03 6.64.06 13.276.03 19.906 8.23-.33 16.46.225 24.69.125-1.49-.77-3.61-1.296-3.97-3.217-.89-4.1-.43-8.33-.47-12.5 2.11-.62 5.057-.337 6.157-2.687 1.14-1.82.896-4.4-.874-5.75-1.93-.61-3.677.756-5.407 1.406-.03-4.17.943-9.805-3.187-12.405-1.28-.58-2.637-.857-4-.875zm-4.75 4.78c1.356-.02 2.735.857 2.968 2.282.84 2.23-1.87 4.533-3.97 3.563-2.48-.68-2.632-4.53-.312-5.5.408-.215.86-.337 1.313-.344zM50 31.845c2.42-.035 4.57 3.443 2.125 5.312-2.93 2.82-7.12-2.406-3.78-4.656.533-.445 1.096-.647 1.655-.655zM38.094 40.5c4.44 3.28 9.835 1.596 14.625.156C50.63 45.386 48.17 52.15 42 52.22c-4.57-1.74-3.416-7.84-3.906-11.72z"/>
    </g>
</svg>
