<svg xmlns="http://www.w3.org/2000/svg" viewBox="-136.8 301.5 174.7 191.9">
  <path d="M37.9 427.7C37.8 415 33 408.1 27.6 399c-2.5-3.8-5.3-6.3-7.7-10.1-.4-2 .4-3.6-.2-8.9-.5-8.1-3.4-11.2-4-12.2.3-2.1-.6-19.8-6.7-30.2-18.7-34.8-54.1-36.1-58.5-36.1-4.3 0-39.8 1.3-58.5 36.1-6.1 10.4-7 28.1-6.7 30.2-.6 1-3.4 4.1-4 12.2-.6 5.4.2 6.9-.2 8.9-2.5 3.8-5.3 6.3-7.7 10.1-5.4 9-10.2 15.9-10.3 28.7-.1 9.5 2.1 22.5 8.5 22.7 2-.2 3.7-1.6 7.2-5.7 1-1.2 4.7-6.4 5.5-7.8.7 2 2.4 15.8 14.3 23-12.2 6-18.2 9.8-18.4 17.6.3 4.5 5.4 10.5 14.9 13.3 12 3.5 25.9 3.6 37.5.6 6.8-1.7 8.9-3.4 17.9-8.6 8.9 5.1 11 6.9 17.9 8.6 11.6 2.9 25.5 2.8 37.5-.6 9.5-2.8 14.7-8.8 14.9-13.3-.2-7.8-6.2-11.6-18.4-17.6 11.9-7.2 13.6-21 14.3-23 .7 1.4 4.4 6.6 5.5 7.8 3.5 4.1 5.2 5.5 7.2 5.7 6.4-.2 8.6-13.2 8.5-22.7z"/>
</svg>
