<svg xmlns="http://www.w3.org/2000/svg" width="250" height="250">
    <path d="M0 0h11.905v11.905H0V0zm0 11.905h11.905V23.81H0V11.905zM0 23.81h11.905v11.904H0V23.81z"/>
    <path d="M0 35.714h11.905V47.62H0V35.713zM0 47.62h11.905v11.904H0V47.62z"/>
    <path d="M0 59.524h11.905V71.43H0V59.523zM0 71.43h11.905v11.903H0V71.43zm11.905 0H23.81v11.903H11.905V71.43zm11.905 0h11.904v11.903H23.81V71.43z"/>
    <path d="M35.714 71.43H47.62v11.903H35.713V71.43zm11.906 0h11.904v11.903H47.62V71.43z"/>
    <path d="M59.524 71.43H71.43v11.903H59.523V71.43zm11.906 0h11.903v11.903H71.43V71.43zm0-11.906h11.903V71.43H71.43V59.523z"/>
    <path d="M71.43 47.62h11.903v11.904H71.43V47.62zm0-11.906h11.903V47.62H71.43V35.713z"/>
    <path d="M71.43 23.81h11.903v11.904H71.43V23.81zm0-11.905h11.903V23.81H71.43V11.905zM71.43 0h11.903v11.905H71.43V0zM59.524 0H71.43v11.905H59.523V0z"/>
    <path d="M47.62 0h11.904v11.905H47.62V0zM35.714 0H47.62v11.905H35.713V0z"/>
    <path d="M23.81 0h11.904v11.905H23.81V0zM11.905 0H23.81v11.905H11.905V0zm95.238 0h11.905v11.905h-11.905V0zm35.714 0h11.905v11.905h-11.905V0zm23.81 0h11.904v11.905h-11.9V0zm0 11.905h11.904V23.81h-11.9V11.905zm0 11.905h11.904v11.904h-11.9V23.81z"/>
    <path d="M166.667 35.714h11.904V47.62h-11.9V35.713zm0 11.906h11.904v11.904h-11.9V47.62z"/>
    <path d="M166.667 59.524h11.904V71.43h-11.9V59.523zm0 11.906h11.904v11.903h-11.9V71.43z"/>
    <path d="M178.57 71.43h11.906v11.903H178.57V71.43zm11.906 0h11.905v11.903h-11.9V71.43z"/>
    <path d="M202.38 71.43h11.906v11.903H202.38V71.43zm11.906 0h11.904v11.903h-11.904V71.43zm11.904 0h11.905v11.903H226.19V71.43zm11.905 0H250v11.903h-11.905V71.43zm0-11.906H250V71.43h-11.905V59.523z"/>
    <path d="M238.095 47.62H250v11.904h-11.905V47.62zm0-11.906H250V47.62h-11.905V35.713z"/>
    <path d="M238.095 23.81H250v11.904h-11.905V23.81zm0-11.905H250V23.81h-11.905V11.905zm0-11.905H250v11.905h-11.905V0zM226.19 0h11.905v11.905H226.19V0zm-11.904 0h11.904v11.905h-11.904V0zM202.38 0h11.906v11.905H202.38V0z"/>
    <path d="M190.476 0h11.905v11.905h-11.9V0zM178.57 0h11.906v11.905H178.57V0zM95.238 11.905h11.905V23.81H95.238V11.905zm35.714 0h11.905V23.81h-11.905V11.905zM23.81 23.81h11.904v11.904H23.81V23.81z"/>
    <path d="M23.81 35.714h11.904V47.62H23.81V35.713zm0 11.906h11.904v11.904H23.81V47.62z"/>
    <path d="M35.714 47.62H47.62v11.904H35.713V47.62zm11.906 0h11.904v11.904H47.62V47.62zm0-11.906h11.904V47.62H47.62V35.713z"/>
    <path d="M47.62 23.81h11.904v11.904H47.62V23.81zm-11.906 0H47.62v11.904H35.713V23.81z"/>
    <path d="M35.714 35.714H47.62V47.62H35.713V35.713zm71.43-11.904h11.904v11.904h-11.905V23.81zm83.332 0h11.905v11.904h-11.9V23.81z"/>
    <path d="M190.476 35.714h11.905V47.62h-11.9V35.713zm0 11.906h11.905v11.904h-11.9V47.62z"/>
    <path d="M202.38 47.62h11.906v11.904H202.38V47.62zm11.906 0h11.904v11.904h-11.904V47.62zm0-11.906h11.904V47.62h-11.904V35.713z"/>
    <path d="M214.286 23.81h11.904v11.904h-11.904V23.81zm-11.906 0h11.906v11.904H202.38V23.81z"/>
    <path d="M202.38 35.714h11.906V47.62H202.38V35.713zm-107.142 0h11.905V47.62H95.238V35.713zm35.714 0h11.905V47.62h-11.905V35.713zM119.048 47.62h11.904v11.904h-11.904V47.62z"/>
    <path d="M119.048 59.524h11.904V71.43h-11.904V59.523zm0 11.906h11.904v11.903h-11.904V71.43z"/>
    <path d="M119.048 83.333h11.904v11.905h-11.904V83.333zm-11.905-23.81h11.905V71.43h-11.905V59.523zm-11.905 0h11.905V71.43H95.238V59.523zm0 11.907h11.905v11.903H95.238V71.43zm47.62-23.81h11.904v11.904h-11.905V47.62z"/>
    <path d="M142.857 59.524h11.905V71.43h-11.905V59.523zm0 11.906h11.905v11.903h-11.905V71.43z"/>
    <path d="M142.857 83.333h11.905v11.905h-11.905V83.333zm0 11.905h11.905v11.905h-11.905V95.238zm-11.905 0h11.905v11.905h-11.905V95.238zm0 11.905h11.905v11.905h-11.905v-11.905zm0 11.905h11.905v11.904h-11.905v-11.904zm0 11.904h11.905v11.905h-11.905v-11.905zm-11.904 0h11.904v11.905h-11.904v-11.905zm-11.905 0h11.905v11.905h-11.905v-11.905zm-11.905 0h11.905v11.905H95.238v-11.905zm0 11.905h11.905v11.905H95.238v-11.905zm0 11.905h11.905v11.905H95.238v-11.905zm0 11.905h11.905v11.904H95.238v-11.9zm11.905 0h11.905v11.904h-11.905v-11.9zm11.905 0h11.904v11.904h-11.904v-11.9zm11.904 0h11.905v11.904h-11.905v-11.9zm11.905 0h11.905v11.904h-11.905v-11.9zm11.905 0h11.905v11.904h-11.905v-11.9zm11.905 0h11.904v11.904h-11.9v-11.9zm-11.905-11.905h11.905v11.905h-11.905v-11.905z"/>
    <path d="M142.857 178.57h11.905v11.906h-11.905V178.57zm0 11.906h11.905v11.905h-11.905v-11.9zm-11.905 0h11.905v11.905h-11.905v-11.9zm-11.904 0h11.904v11.905h-11.904v-11.9zm11.904-11.906h11.905v11.906h-11.905V178.57zm0-23.808h11.905v11.905h-11.905v-11.905zm-23.81 23.808h11.906v11.906h-11.905V178.57zm-23.81-35.713H95.24v11.905H83.333v-11.905z"/>
    <path d="M71.43 142.857h11.903v11.905H71.43v-11.905zm71.427-23.81h11.905v11.905h-11.905v-11.904zm11.905-23.81h11.905v11.906h-11.905V95.238zm0 11.906h11.905v11.905h-11.905v-11.905zM0 95.238h11.905v11.905H0V95.238zm11.905 0H23.81v11.905H11.905V95.238zm11.905 0h11.904v11.905H23.81V95.238z"/>
    <path d="M35.714 95.238H47.62v11.905H35.713V95.238zm11.906 0h11.904v11.905H47.62V95.238zm-23.81 11.905h11.904v11.905H23.81v-11.905zm47.62-11.905h11.903v11.905H71.43V95.238zm11.903 0h11.905v11.905H83.333V95.238zm11.905 0h11.905v11.905H95.238V95.238zm11.905 0h11.905v11.905h-11.905V95.238zm0 11.905h11.905v11.905h-11.905v-11.905zm-11.905 0h11.905v11.905H95.238v-11.905zm-11.905 0h11.905v11.905H83.333v-11.905zm95.237-11.905h11.906v11.905H178.57V95.238zm23.81 0h11.906v11.905H202.38V95.238zm23.81 0h11.905v11.905H226.19V95.238zm0 11.905h11.905v11.905H226.19v-11.905zm0 11.905h11.905v11.904H226.19v-11.904zm0 11.904h11.905v11.905H226.19v-11.905zm-11.904 0h11.904v11.905h-11.904v-11.905zm-11.906 0h11.906v11.905H202.38v-11.905z"/>
    <path d="M190.476 130.952h11.905v11.905h-11.9v-11.905zm23.81-23.81h11.904v11.906h-11.904v-11.905zm23.81 0H250v11.906h-11.905v-11.905zm-47.62 0h11.905v11.906h-11.9v-11.905zM0 119.05h11.905v11.904H0V119.05zm0 11.904h11.905v11.905H0v-11.91zm11.905 0H23.81v11.905H11.905v-11.91zm0-11.904H23.81v11.904H11.905V119.05zm0 23.81H23.81v11.904H11.905V142.86zm11.905 0h11.904v11.904H23.81V142.86zm35.714-23.81H71.43v11.904H59.523V119.05zm11.906 0h11.903v11.904H71.43V119.05zm95.237 0h11.904v11.904h-11.9V119.05zM35.714 130.952H47.62v11.905H35.713v-11.905zm119.048 0h11.905v11.905h-11.905v-11.905zM47.62 142.857h11.904v11.905H47.62v-11.905zm95.237 0h11.905v11.905h-11.905v-11.905zm23.81 0h11.904v11.905h-11.9v-11.905z"/>
    <path d="M178.57 142.857h11.906v11.905H178.57v-11.905zm11.906 11.905h11.905v11.905h-11.9v-11.905zm23.81 0h11.904v11.905h-11.904v-11.905zm11.904 0h11.905v11.905H226.19v-11.905zm0 11.905h11.905v11.904H226.19v-11.9zm-226.19 0h11.905v11.904H0v-11.9z"/>
    <path d="M0 178.57h11.905v11.906H0V178.57zm0 11.906h11.905v11.905H0v-11.9z"/>
    <path d="M0 202.38h11.905v11.906H0V202.38zm0 11.906h11.905v11.904H0v-11.904zm0 11.904h11.905v11.905H0V226.19zm0 11.905h11.905V250H0v-11.905zm11.905 0H23.81V250H11.905v-11.905zm11.905 0h11.904V250H23.81v-11.905z"/>
    <path d="M35.714 238.095H47.62V250H35.713v-11.905zm11.906 0h11.904V250H47.62v-11.905z"/>
    <path d="M59.524 238.095H71.43V250H59.523v-11.905zm11.906 0h11.903V250H71.43v-11.905zm0-11.905h11.903v11.905H71.43V226.19zm0-11.904h11.903v11.904H71.43v-11.904zm0-11.906h11.903v11.906H71.43V202.38z"/>
    <path d="M71.43 190.476h11.903v11.905H71.43v-11.9zm0-11.906h11.903v11.906H71.43V178.57z"/>
    <path d="M71.43 166.667h11.903v11.904H71.43v-11.9zm-11.906 0H71.43v11.904H59.523v-11.9z"/>
    <path d="M47.62 166.667h11.904v11.904H47.62v-11.9zm-11.906 0H47.62v11.904H35.713v-11.9z"/>
    <path d="M23.81 166.667h11.904v11.904H23.81v-11.9zm-11.905 0H23.81v11.904H11.905v-11.9zm190.475 0h11.906v11.904H202.38v-11.9z"/>
    <path d="M202.38 178.57h11.906v11.906H202.38V178.57zm11.906 0h11.904v11.906h-11.904V178.57zm23.81 0H250v11.906h-11.905V178.57zm0 11.906H250v11.905h-11.905v-11.9zm-11.906 0h11.905v11.905H226.19v-11.9zm-202.38 0h11.904v11.905H23.81v-11.9z"/>
    <path d="M23.81 202.38h11.904v11.906H23.81V202.38zm0 11.906h11.904v11.904H23.81v-11.904z"/>
    <path d="M35.714 214.286H47.62v11.904H35.713v-11.904zm11.906 0h11.904v11.904H47.62v-11.904zm0-11.906h11.904v11.906H47.62V202.38z"/>
    <path d="M47.62 190.476h11.904v11.905H47.62v-11.9zm-11.906 0H47.62v11.905H35.713v-11.9z"/>
    <path d="M35.714 202.38H47.62v11.906H35.713V202.38zm59.524-11.904h11.905v11.905H95.238v-11.9z"/>
    <path d="M95.238 202.38h11.905v11.906H95.238V202.38zm0 11.906h11.905v11.904H95.238v-11.904zm0 11.904h11.905v11.905H95.238V226.19zm0 11.905h11.905V250H95.238v-11.905zm11.905 0h11.905V250h-11.905v-11.905zm11.905 0h11.904V250h-11.904v-11.905zm11.904 0h11.905V250h-11.905v-11.905zm11.905 0h11.905V250h-11.905v-11.905zm11.905 0h11.905V250h-11.905v-11.905zm11.905 0h11.904V250h-11.9v-11.905zm-11.905-11.905h11.905v11.905h-11.905V226.19zm-11.905 0h11.905v11.905h-11.905V226.19zm0-11.904h11.905v11.904h-11.905v-11.904zm-11.905 0h11.905v11.904h-11.905v-11.904zm-11.904 11.904h11.904v11.905h-11.904V226.19zm-11.905-11.904h11.905v11.904h-11.905v-11.904zm0-11.906h11.905v11.906h-11.905V202.38zm59.524-11.904h11.904v11.905h-11.9v-11.9z"/>
    <path d="M178.57 202.38h11.906v11.906H178.57V202.38zm11.906 0h11.905v11.906h-11.9V202.38z"/>
    <path d="M202.38 202.38h11.906v11.906H202.38V202.38zm0 11.906h11.906v11.904H202.38v-11.904zm0 11.904h11.906v11.905H202.38V226.19zm11.906 0h11.904v11.905h-11.904V226.19zm-35.716 0h11.906v11.905H178.57V226.19zm47.62 11.905h11.905V250H226.19v-11.905z"/>
</svg>
