<svg xmlns="http://www.w3.org/2000/svg" viewBox="-11 313 1000 400">
  <path d="M-11 313v27.4h194.6V313H-11zm222.2 0v27.4h277.4S460.3 313 422.7 313H211.2zm331.8 0v27.4h167.8l-10-27.4H543zm288.1 0l-10 27.4h166.3V313H831.1zM-11 366.2v27.4h194.6v-27.4H-11zm222.2.1v27.3h309.6s-3.6-21.1-9.9-27.3H211.2zm331.8 0v27.3h186.2l-9.2-27.3H543zm268.2 0l-9.2 27.3h185.5v-27.3H811.2zM44.9 419.4v27.4h84.3v-27.4H44.9zm222.3 0v27.4h84.3v-27.4h-84.3zm166.3 0v27.4h84.3s5.4-14.5 5.4-27.4h-89.7zm165.5 0v27.4h149.5l-10-27.4H599zm193.9 0l-10 27.4h150.2v-27.4H792.9zm-748 53.3v27.4h84.3v-27.4H44.9zm222.3 0v27.4h215.3s18-14 23.8-27.4H267.2zm331.8 0v27.4h84.3v-15.2l5.4 15.2H843l5.7-15.2v15.2H933v-27.4H774.8l-8.4 23.2-8.4-23.2H599zM44.9 525.9v27.4h84.3v-27.4H44.9zm222.3 0v27.4h239.1c-5.7-13.3-23.8-27.4-23.8-27.4H267.2zm331.8 0v27.4h84.3v-27.4H599zm99.6 0l10.2 27.4h115.8l9.7-27.4H698.6zm150.2 0v27.4h84.3v-27.4h-84.3zM44.9 579.1v27.4h84.3v-27.4H44.9zm222.3 0v27.4h84.3v-27.4h-84.3zm166.3 0v27.4h89.6c0-12.9-5.4-27.4-5.4-27.4h-84.2zm165.5 0v27.4h84.3v-27.4H599zm118.7 0l9.9 27.4h77.6l10-27.4h-97.5zm131.1 0v27.4h84.3v-27.4h-84.3zM-9.5 632.4v27.4h194.6v-27.4H-9.5zm220.7 0v27.4h299.6c6.3-6.3 9.9-27.4 9.9-27.4H211.2zm333.3 0v27.4h138.7v-27.4H544.5zm192.4 0l10.2 27.4h39.5l9.5-27.4h-59.2zm111.9 0v27.4H989v-27.4H848.8zM-9.5 685.6V713h194.6v-27.4H-9.5zm220.7 0V713h211.5c37.5 0 65.9-27.3 65.9-27.3H211.2zm333.3 0V713h138.7v-27.4H544.5zm211.6 0l9.8 27.3h1.7l9.9-27.3h-21.4zm92.7 0V713H989v-27.4H848.8z"/>
</svg>
