<svg xmlns="http://www.w3.org/2000/svg" viewBox="0 0 150 49">
  <path d="M94.96 3.075C93.57 1.505 91.72.73 89.46.772c-3.145.06-7.526 1.52-11.666 3.18V3.06c.014-.098.036-.27.036-.525 0-.472-.083-1.13-.465-1.66-.316-.442-.784-.722-1.355-.81-.58-.088-1.142.118-1.587.58-.782.814-1.196 2.386-1.196 4.327 0 .283.028.59.046.886-.73.32-1.428.63-2.085.922l-3.86 1.653c-3.364 1.26-6.31 1.557-7.686.773-.5-.284-.795-.714-.902-1.313-.345-1.936 2.946-3.508 4.927-4.198.466.206 1.143.3 1.89.215 1.318-.147 2.33-.773 2.26-1.398-.07-.626-1.194-1.01-2.513-.864-.74.083-1.378.32-1.787.62-1.764.573-6.755 2.506-6.155 5.87.18 1.005.728 1.795 1.587 2.284 2.52 1.44 7.04.004 8.87-.68l3.93-1.682c.52-.238 1.09-.49 1.67-.74.04.273.07.544.12.83.34 1.764.88 4.514 2.84 6.62v29.88c-.27.436-.45 1.123-.45 1.902 0 1.326.51 2.402 1.134 2.402.63 0 1.14-1.075 1.14-2.402 0-.754-.17-1.418-.425-1.86v-28.73c1.902 1.3 4.693 2.08 8.887 1.675 4.484-.435 9.943-2.22 10.486-8.27l.015-.184c.09-.655-.228-3.846-2.23-6.113zM74.626 4.97c0-1.662.336-2.867.806-3.356.185-.193.31-.174.364-.165.256.04.364.14.43.23.16.22.203.57.203.85 0 .15-.02.28-.03.36l-.01.05v1.57c-.6.25-1.18.494-1.76.74 0-.096-.02-.205-.02-.298zm.298 2.913c-.077-.398-.123-.77-.17-1.14.54-.235 1.078-.467 1.64-.702v6.35c-.767-1.37-1.167-2.95-1.47-4.5zM95.8 8.99l-.026.254c-.367 4.09-3.47 6.447-9.226 7.002-4.452.43-7.083-.524-8.754-2.11V5.462c4.17-1.7 8.62-3.235 11.69-3.293 1.814-.04 3.29.56 4.39 1.79 1.66 1.84 1.983 4.58 1.927 5.03zM4.463 39.75h-.806V27.844H.382v-.755h7.355v.75H4.463v11.91zm17.715 0h-.923l-4.13-5.995h-.404v5.995h-.8V27.09h1.58c1.03 0 2.03.015 2.89.637.91.638 1.28 1.646 1.28 2.72 0 2.2-1.53 3.342-3.622 3.31l4.148 5.993zM17.745 33c.79 0 1.578-.034 2.217-.59.605-.485.89-1.24.89-1.997 0-.94-.437-1.88-1.343-2.284-.68-.32-1.53-.29-2.27-.29h-.52v5.15h1.02zm13.887 6.75h-.806V27.09h.806v12.66zM46.93 29.17c-.572-.905-1.378-1.493-2.57-1.493-1.36 0-2.384 1.09-2.384 2.418 0 1.326 1.26 1.88 2.284 2.368l2.418 1.26c.957.604 1.444 1.376 1.444 2.518 0 2.1-1.914 3.68-3.963 3.68-1.77 0-3.14-1.09-3.73-2.72l.7-.32c.53 1.35 1.53 2.29 3.05 2.29 1.66 0 3.12-1.31 3.12-2.99 0-1.42-1.46-2.03-2.55-2.57l-2.28-1.21c-.84-.52-1.31-1.26-1.31-2.26 0-1.88 1.34-3.207 3.24-3.207 1.274 0 2.483.688 3.09 1.78l-.57.47zm18.486 3.292V27.09h.806v12.66h-.806v-6.532h-7.69v6.532h-.806V27.09h.806v5.372h7.69zm22.39 7.288H87V27.09h2.233c.99 0 1.948.066 2.737.738.772.654 1.143 1.612 1.143 2.602 0 .907-.353 1.915-1.06 2.502-.772.672-1.83.806-2.82.806h-1.426v6.012zm1.46-6.767c.824 0 1.562-.1 2.217-.69.554-.503.823-1.158.823-1.896 0-.79-.32-1.58-.957-2.05-.64-.486-1.45-.503-2.22-.503H87.8v5.14h1.46zm13.182-5.14v4.6h5.104v.758h-5.104V39h5.24v.756h-6.046V27.09h6.045v.754h-5.24zm25.86 12.327l-10.63-11.3v10.88h-.806V26.92L127.5 38.14V27.09h.806v13.08zm21.307-6.516c.034 1.596-.2 2.99-1.326 4.214-1.21 1.31-3.03 2.05-4.81 2.05-3.51 0-6.5-2.957-6.5-6.45 0-3.627 2.97-6.548 6.6-6.548 2.3 0 4.16 1.142 5.49 2.955l-.66.52c-1.13-1.68-2.84-2.72-4.89-2.72-3.09 0-5.744 2.704-5.744 5.744 0 3.12 2.59 5.74 5.745 5.74 1.36 0 2.687-.56 3.728-1.4 1.093-.93 1.495-1.98 1.546-3.36h-4.534v-.76h5.34z"/>
</svg>
